<svg width="201" height="200" viewBox="0 0 201 200" fill="none" xmlns="http://www.w3.org/2000/svg">
<g clip-path="url(#clip0_389_1174)">
<path d="M168.118 60.854C168.118 60.3857 168.235 59.9161 168.235 59.4478C169.524 37.2994 163.195 21.0099 150.305 13.6279C136.828 5.77593 118.664 9.52592 100.5 21.8306C82.3359 9.52592 64.2887 5.77593 50.6953 13.6279C35.3438 22.5333 31.1254 40.6982 32.8824 60.854C13.0777 70.4634 0.5 84.2915 0.5 99.8778C0.5 115.463 13.0777 129.292 32.8824 138.901C31.125 159.058 35.3438 177.222 50.6953 186.128C65.9297 194.917 83.7422 189.526 100.5 177.807C117.258 189.526 135.07 194.917 150.305 186.128C165.656 177.222 169.875 159.058 168.118 138.901C187.922 129.292 200.5 115.463 200.5 99.8778C200.5 84.2915 187.922 70.4634 168.118 60.854ZM144.445 23.7056C152.648 28.5099 157.102 40.2287 156.632 56.0494C148.43 53.1197 139.406 50.8931 129.679 49.3697C123.469 41.6349 116.906 34.9552 110.344 29.3302C122.414 21.3619 134.601 17.9634 144.445 23.7056ZM151.711 84.0568C149.953 80.3068 148.078 76.7911 146.204 73.5103C144.211 69.9947 142.102 66.5958 139.875 63.4322C145.383 64.7212 150.657 66.2447 155.461 68.1193C154.641 73.2755 153.469 78.6665 151.711 84.0568ZM155.344 131.635C150.539 133.51 145.383 135.034 139.875 136.323C142.219 132.925 144.328 129.525 146.204 126.245C148.195 122.846 149.953 119.447 151.594 116.049C153.117 121.206 154.406 126.479 155.344 131.635ZM100.5 140.893C92.6488 140.893 84.9137 140.424 77.6484 139.37C73.1953 133.51 68.8594 127.182 64.9918 120.385C61.7109 114.76 58.3129 107.729 55.1484 99.9947C58.1953 92.1427 61.7109 85.1115 64.9918 79.3697C68.3906 73.3931 72.9613 66.8306 78 60.2681C85.1484 59.3302 92.7656 58.8618 100.5 58.8618C108.234 58.8618 115.851 59.3302 122.999 60.2681C128.155 66.9478 132.609 73.5103 136.007 79.3697C139.405 85.1118 142.804 92.2599 145.968 100.111C143.273 106.909 139.874 113.706 136.007 120.385C132.14 127.182 127.804 133.51 123.351 139.37C116.086 140.424 108.351 140.893 100.5 140.893ZM112.336 152.26C108.468 156.362 104.485 160.112 100.5 163.158C96.5152 160.112 92.5312 156.362 88.6641 152.26C92.5316 152.495 96.5152 152.612 100.5 152.612C104.485 152.612 108.469 152.495 112.336 152.26ZM45.6562 68.1193C50.4605 66.2447 55.6168 64.7212 61.125 63.4322C58.8984 66.5958 56.7891 69.9947 54.7965 73.5103C52.9219 76.674 51.1637 80.0728 49.4062 83.7056C47.8828 78.5493 46.5941 73.2755 45.6562 68.1193ZM49.5238 116.167C51.1641 119.799 53.0395 123.08 54.7969 126.245C56.6723 129.525 58.7816 132.924 61.1254 136.323C55.6172 135.034 50.5781 133.51 45.7738 131.752C46.7105 126.596 48.0004 121.322 49.5238 116.167ZM89.1332 47.4943C92.766 43.6275 96.6328 39.9947 100.5 36.7134C104.485 39.9951 108.234 43.6279 111.867 47.4943C108.118 47.2603 104.367 47.1431 100.5 47.1431C96.6328 47.1431 92.8824 47.2603 89.1332 47.4943ZM56.5547 23.7056C66.5152 17.9634 78.7031 21.479 90.773 29.3302C84.0934 34.9548 77.5309 41.6349 71.3203 49.3697C61.5934 50.8931 52.4531 53.2365 44.25 56.0494C43.4297 41.6349 46.5941 29.4478 56.5547 23.7056ZM12.2188 99.8775C12.2188 89.6822 21.0465 80.3068 34.6406 73.0411C36.3988 82.065 39.0938 91.2056 42.4918 99.8775C39.2109 108.549 36.5152 117.69 34.7578 126.713C21.0465 119.448 12.2188 110.073 12.2188 99.8775ZM56.5547 176.049C46.5941 170.307 43.5469 158.002 44.3676 143.706C52.6875 146.635 61.9457 148.979 71.7891 150.385C77.5312 157.534 84.0938 164.331 90.8906 170.19C77.7656 178.51 65.3438 181.088 56.5547 176.049ZM144.445 176.049C134.084 182.025 120.13 176.641 110.109 170.19C116.907 164.331 123.469 157.533 129.211 150.385C139.171 148.979 148.43 146.635 156.75 143.706C157.57 158.119 154.406 170.307 144.445 176.049ZM166.359 126.713C164.601 117.807 161.906 108.784 158.742 100.229C162.258 90.9712 164.953 81.8302 166.359 73.0411C179.954 80.3068 188.781 89.6822 188.781 99.8775C188.781 110.073 179.954 119.448 166.359 126.713Z" fill="#00312D"/>
<path d="M100.498 80.8934C93.5839 74.7992 82.9202 75.034 76.3577 81.5965C69.4433 88.393 69.4433 99.643 76.3577 106.44L100.498 130.581L124.639 106.44C131.553 99.6434 131.553 88.393 124.639 81.5965C118.076 75.034 107.413 74.7996 100.498 80.8934Z" fill="#00312D"/>
</g>
<defs>
<clipPath id="clip0_389_1174">
<rect width="200" height="200" fill="white" transform="translate(0.5)"/>
</clipPath>
</defs>
</svg>
