<svg width="147" height="147" viewBox="0 0 147 147" fill="none" xmlns="http://www.w3.org/2000/svg">
<path d="M40.9524 20.7255C39.0665 17.9272 35.2949 17.1972 32.4965 19.083C27.204 22.6113 22.459 26.8088 18.3832 31.493C16.1324 34.048 16.4365 37.8805 18.9307 40.0705C20.0865 41.1047 21.5465 41.5913 22.9457 41.5913C24.649 41.5913 26.3524 40.8613 27.5082 39.523C30.9149 35.6297 34.869 32.1622 39.3099 29.1813C42.1082 27.2955 42.8382 23.5238 40.9524 20.7255ZM128.005 31.493C123.929 26.8088 119.184 22.6113 113.892 19.083C111.093 17.1972 107.322 17.9272 105.436 20.7255C103.55 23.5238 104.28 27.2955 107.078 29.1813C111.519 32.1622 115.473 35.6297 118.88 39.523C120.036 40.8613 121.739 41.5913 123.442 41.5913C124.842 41.5913 126.302 41.1047 127.457 40.0705C129.952 37.8805 130.256 34.048 128.005 31.493Z" fill="#8DC55C"/>
<path d="M73.1953 24.9229C43.022 24.9229 18.4453 49.4995 18.4453 79.6729C18.4453 109.846 43.022 134.423 73.1953 134.423C103.369 134.423 127.945 109.846 127.945 79.6729C127.945 49.4995 103.369 24.9229 73.1953 24.9229ZM91.4453 85.7562H54.9453C51.5995 85.7562 48.862 83.0187 48.862 79.6729C48.862 76.327 51.5995 73.5895 54.9453 73.5895H91.4453C94.7911 73.5895 97.5286 76.327 97.5286 79.6729C97.5286 83.0187 94.7911 85.7562 91.4453 85.7562Z" fill="#8DC55C"/>
</svg>
