<svg width="40" height="41" viewBox="0 0 40 41" fill="none" xmlns="http://www.w3.org/2000/svg">
<rect y="0.613281" width="40" height="40" rx="20" fill="#00312D"/>
<path d="M21.2372 20.6133L26.7436 15.1074C27.0855 14.7656 27.0855 14.2114 26.7436 13.8696C26.4018 13.5278 25.8477 13.5278 25.5059 13.8696L20 19.3761L14.4941 13.8696C14.1523 13.5278 13.5981 13.5278 13.2564 13.8696C12.9146 14.2114 12.9145 14.7656 13.2564 15.1074L18.7628 20.6133L13.2564 26.1192C12.9145 26.461 12.9145 27.0151 13.2564 27.3569C13.5982 27.6987 14.1523 27.6987 14.4941 27.3569L20 21.8505L25.5058 27.3569C25.8477 27.6987 26.4018 27.6987 26.7436 27.3569C27.0854 27.0151 27.0854 26.4609 26.7436 26.1192L21.2372 20.6133Z" fill="#FEFADF"/>
</svg>
