<svg width="147" height="147" viewBox="0 0 147 147" fill="none" xmlns="http://www.w3.org/2000/svg">
<g clip-path="url(#clip0_635_988)">
<path d="M73.3281 50.4922C55.5603 50.4922 41.1055 64.947 41.1055 82.7148C41.1055 100.483 55.5603 114.938 73.3281 114.938C91.0959 114.938 105.551 100.483 105.551 82.7148C105.551 64.947 91.0959 50.4922 73.3281 50.4922ZM77.6112 101.233V102.127C77.6112 104.489 75.6961 106.404 73.3338 106.404C70.9716 106.404 69.0565 104.489 69.0565 102.127V101.717C67.0858 101.371 65.2853 100.633 63.0106 99.1453C61.0336 97.8521 60.4796 95.2013 61.7727 93.2243C63.0659 91.247 65.717 90.6932 67.6937 91.9861C69.7788 93.3503 70.4543 93.4567 73.3047 93.437C76.0565 93.4188 77.1529 91.2587 77.3671 89.9855C77.5593 88.8423 77.3434 87.3224 75.2236 86.5733C71.6722 85.3178 68.0305 83.8771 65.4507 81.8537C59.5762 77.2461 61.3496 66.7227 69.0568 63.9219V63.3025C69.0568 60.9403 70.9719 59.0252 73.3341 59.0252C75.6963 59.0252 77.6115 60.9403 77.6115 63.3025V63.5398C79.719 64.1346 81.4163 65.2102 82.5823 66.3962C84.2388 68.0803 84.216 70.7885 82.5318 72.4449C80.8483 74.1006 78.1421 74.0786 76.4859 72.3973C76.2473 72.1643 74.9296 71.0656 72.0769 71.9248C70.9379 72.2679 70.632 73.449 70.5652 73.8029C70.4261 74.5414 70.6243 75.0393 70.7304 75.1226C72.3438 76.3881 75.3485 77.5438 78.0748 78.5076C89.3482 82.4927 87.9749 97.4862 77.6112 101.233Z" fill="#8DC55C"/>
<path d="M121.215 40.8767L126.54 35.5517C128.21 33.8815 128.21 31.1731 126.54 29.5027C124.87 27.8325 122.161 27.8325 120.491 29.5027L115.166 34.8277C104.645 25.6095 91.563 20.1906 77.6055 19.2699V9.14453H87.0156C89.3779 9.14453 91.293 7.22942 91.293 4.86719C91.293 2.50495 89.3779 0.589844 87.0156 0.589844H59.6406C57.2784 0.589844 55.3633 2.50495 55.3633 4.86719C55.3633 7.22942 57.2784 9.14453 59.6406 9.14453H69.0508V19.2699C55.0932 20.1906 42.0108 25.6095 31.4903 34.828L26.1653 29.503C24.4951 27.8328 21.7867 27.8328 20.1163 29.503C18.4458 31.1731 18.4458 33.8815 20.1163 35.552L25.4413 40.877C15.2866 52.4663 9.73828 67.1633 9.73828 82.7148C9.73828 117.859 38.1792 146.59 73.3281 146.59C108.472 146.59 136.918 117.864 136.918 82.7148C136.918 67.1633 131.37 52.4663 121.215 40.8767ZM73.3281 123.492C50.8433 123.492 32.5508 105.2 32.5508 82.7148C32.5508 60.23 50.8433 41.9375 73.3281 41.9375C95.813 41.9375 114.105 60.23 114.105 82.7148C114.105 105.2 95.813 123.492 73.3281 123.492Z" fill="#8DC55C"/>
</g>
<defs>
<clipPath id="clip0_635_988">
<rect width="146" height="146" fill="white" transform="translate(0.328125 0.589844)"/>
</clipPath>
</defs>
</svg>
