<svg width="180" height="181" viewBox="0 0 180 181" fill="none" xmlns="http://www.w3.org/2000/svg">
<g clip-path="url(#clip0_249_18059)">
<path d="M174.727 0.588867C168.674 0.588867 -3.98804 0.588867 5.27344 0.588867C2.35931 0.588867 0 2.94818 0 5.8623C0 8.77643 2.35931 11.1357 5.27344 11.1357H21.0938V21.6826H15.8203C13.6629 21.6826 11.7265 22.9955 10.9232 24.9991L0.376282 51.7179C0.12909 52.3413 0 53.006 0 53.6748V69.4951C0 70.8959 0.556183 72.2348 1.54495 73.2236L21.0938 92.7724V101.136C21.0938 104.05 23.4531 106.409 26.3672 106.409H58.3594C61.2735 106.409 63.6328 104.05 63.6328 101.136V92.7724L83.1816 73.2236C84.1704 72.2348 84.7266 70.8959 84.7266 69.4951V53.6748C84.7266 53.006 84.5975 52.3413 84.3503 51.7179L73.8034 24.9991C73 22.9955 71.0637 21.6826 68.9062 21.6826H63.6328V11.1357H174.727C177.641 11.1357 180 8.77643 180 5.8623C180 2.94818 177.641 0.588867 174.727 0.588867ZM31.6406 11.1357H53.0859V21.6826H31.6406V11.1357ZM73.7746 53.6748L74.1797 54.6897V67.3116L63.6328 77.8585V69.4951C63.6328 66.581 61.2735 64.2217 58.3594 64.2217H26.3672C23.4531 64.2217 21.0938 66.581 21.0938 69.4951V77.8585L10.5469 67.3116V54.6897L10.952 53.6748H73.7746Z" fill="#BBDC9D"/>
<path d="M158.906 138.401H21.0938C9.44412 138.401 0 147.845 0 159.495C0 171.145 9.44412 180.589 21.0938 180.589H158.906C170.556 180.589 180 171.145 180 159.495C180 147.845 170.556 138.401 158.906 138.401ZM21.0938 164.769C18.181 164.769 15.8203 162.408 15.8203 159.495C15.8203 156.582 18.181 154.222 21.0938 154.222C24.0065 154.222 26.3672 156.582 26.3672 159.495C26.3672 162.408 24.0065 164.769 21.0938 164.769ZM71.8314 170.042H39.2624C41.0738 166.929 42.1875 163.357 42.1875 159.495C42.1875 155.633 41.0738 152.059 39.2624 148.944H71.8314C70.02 152.059 68.9062 155.633 68.9062 159.495C68.9062 163.357 70.02 166.929 71.8314 170.042ZM90 164.769C87.0872 164.769 84.7266 162.408 84.7266 159.495C84.7266 156.582 87.0872 154.222 90 154.222C92.9128 154.222 95.2734 156.582 95.2734 159.495C95.2734 162.408 92.9128 164.769 90 164.769ZM140.738 170.042H108.169C109.98 166.929 111.094 163.357 111.094 159.495C111.094 155.633 109.98 152.059 108.169 148.944H140.738C138.926 152.059 137.812 155.633 137.812 159.495C137.812 163.357 138.926 166.929 140.738 170.042ZM158.906 164.769C155.993 164.769 153.633 162.408 153.633 159.495C153.633 156.582 155.993 154.222 158.906 154.222C161.819 154.222 164.18 156.582 164.18 159.495C164.18 162.408 161.819 164.769 158.906 164.769Z" fill="#BBDC9D"/>
<path d="M169.453 129.798V101.136C169.453 98.2216 167.094 95.8623 164.18 95.8623H132.539C129.625 95.8623 127.266 98.2216 127.266 101.136V127.854H158.906C162.622 127.854 166.138 128.615 169.453 129.798Z" fill="#BBDC9D"/>
<path d="M111.094 95.8623H79.4531C76.539 95.8623 74.1797 98.2216 74.1797 101.136V127.854H116.367V101.136C116.367 98.2216 114.008 95.8623 111.094 95.8623Z" fill="#BBDC9D"/>
</g>
<defs>
<clipPath id="clip0_249_18059">
<rect width="180" height="180" fill="white" transform="translate(0 0.588867)"/>
</clipPath>
</defs>
</svg>
