<svg width="180" height="181" viewBox="0 0 180 181" fill="none" xmlns="http://www.w3.org/2000/svg">
<g clip-path="url(#clip0_249_18067)">
<path d="M166.252 153.097H163.054V14.3355C163.054 6.75494 156.888 0.588867 149.307 0.588867C141.728 0.588867 135.56 6.75494 135.56 14.3355V71.0991L116.617 17.424C113.286 7.98404 102.835 0.588867 92.8235 0.588867H19.3936C8.6998 0.588867 0 9.29004 0 19.9839V144.249C0 149.949 2.4733 155.083 6.40228 158.634C6.40091 158.546 6.39816 158.458 6.39816 158.37C6.39816 140.303 21.0979 125.605 39.1635 125.605C55.036 125.605 68.3047 136.948 71.2971 151.953C74.2882 136.948 87.5583 125.605 103.429 125.605C119.299 125.605 132.568 136.947 135.56 151.95V161.194C135.56 171.889 143.627 180.589 153.542 180.589H166.252C173.831 180.589 179.997 174.423 179.997 166.842C179.999 159.263 173.833 153.097 166.252 153.097ZM78.327 105.085V97.6325C83.297 95.5602 86.8002 90.6534 86.8002 84.9405C86.8002 77.3613 80.6342 71.1953 73.0536 71.1953H61.382V51.0491C61.382 43.4699 55.2159 37.3038 47.6353 37.3038C40.0562 37.3038 33.8887 43.4699 33.8887 51.0491V88.1389H10.5469V19.9839C10.5469 15.1046 14.5157 11.1357 19.3936 11.1357H92.8235C98.3578 11.1357 104.829 15.7143 106.672 20.9342L131.163 90.3252C132.51 94.1457 133.767 99.6292 134.594 105.085H78.327Z" fill="#D8E7DA"/>
<path d="M39.1638 136.152C26.9127 136.152 16.9453 146.12 16.9453 158.371C16.9453 170.622 26.9127 180.589 39.1638 180.589C51.4149 180.589 61.3823 170.622 61.3823 158.371C61.3823 146.12 51.4149 136.152 39.1638 136.152ZM42.8936 162.099C41.909 163.081 40.5522 163.643 39.1638 163.643C37.7781 163.643 36.4186 163.081 35.4339 162.099C34.4534 161.119 33.8904 159.758 33.8904 158.369C33.8904 156.981 34.4534 155.624 35.4339 154.644C36.4186 153.659 37.7754 153.096 39.1638 153.096C40.5522 153.096 41.9131 153.659 42.8936 154.644C43.8742 155.624 44.4372 156.981 44.4372 158.369C44.4372 159.758 43.8742 161.119 42.8936 162.099Z" fill="#D8E7DA"/>
<path d="M103.429 136.152C91.1783 136.152 81.2109 146.12 81.2109 158.371C81.2109 170.622 91.1783 180.589 103.429 180.589C115.681 180.589 125.647 170.622 125.647 158.371C125.647 146.12 115.681 136.152 103.429 136.152ZM107.159 162.099C106.175 163.081 104.818 163.643 103.428 163.643C102.044 163.643 100.683 163.081 99.6996 162.099C98.7177 161.119 98.1546 159.758 98.1546 158.369C98.1546 156.981 98.7177 155.624 99.6996 154.644C100.684 153.659 102.04 153.096 103.428 153.096C104.818 153.096 106.175 153.659 107.159 154.644C108.14 155.624 108.701 156.981 108.701 158.369C108.701 159.758 108.14 161.119 107.159 162.099Z" fill="#D8E7DA"/>
</g>
<defs>
<clipPath id="clip0_249_18067">
<rect width="180" height="180" fill="white" transform="translate(0 0.588867)"/>
</clipPath>
</defs>
</svg>
