<svg width="147" height="147" viewBox="0 0 147 147" fill="none" xmlns="http://www.w3.org/2000/svg">
<g clip-path="url(#clip0_635_956)">
<path d="M112.649 78.6208C110.818 75.5183 107.412 73.5898 103.743 73.5898C100.075 73.5898 96.6686 75.5183 94.8862 78.5478L62.8209 130.645C61.7381 132.258 61.1602 134.18 61.1602 136.218C61.1602 141.936 65.8322 146.59 71.5748 146.59H135.912C141.655 146.59 146.327 141.936 146.327 136.218C146.327 134.18 145.749 132.251 144.769 130.81L112.649 78.6208ZM106.968 133.085C106.542 133.511 106.055 133.815 105.508 134.058C104.893 134.302 104.352 134.423 103.743 134.423C103.129 134.423 102.527 134.302 101.979 134.058C101.432 133.815 100.945 133.511 100.519 133.085C99.6677 132.233 99.181 131.077 99.181 129.861C99.181 128.644 99.6677 127.488 100.519 126.637C100.945 126.211 101.432 125.907 101.979 125.663C103.129 125.177 104.352 125.177 105.508 125.663C106.055 125.907 106.542 126.211 106.968 126.637C107.819 127.488 108.306 128.644 108.306 129.861C108.306 131.077 107.819 132.233 106.968 133.085ZM108.306 117.694C108.306 120.213 106.262 122.257 103.743 122.257C101.225 122.257 99.181 120.213 99.181 117.694V96.4023C99.181 93.8838 101.225 91.8398 103.743 91.8398C106.262 91.8398 108.306 93.8838 108.306 96.4023V117.694Z" fill="#8DC55C"/>
<path d="M80.9323 0.589844H17.0573C7.81063 0.589844 0.328125 8.07234 0.328125 17.319V111.611C0.328125 120.857 7.81063 128.34 17.0573 128.34H53.7398C54.1048 127.367 54.6523 126.454 55.2606 125.542L76.0048 91.8398L76.1265 91.5965L79.4115 86.304L81.6015 82.7757L87.1373 73.7723C89.449 69.8182 93.2815 66.8982 97.6615 65.499V17.319C97.6615 8.07234 90.179 0.589844 80.9323 0.589844ZM18.5781 61.2407C18.5781 46.0323 29.7715 33.379 44.4323 31.189V59.3548L24.5398 79.2473C20.7681 74.259 18.5781 67.9932 18.5781 61.2407ZM48.9948 91.6573C42.2423 91.6573 35.9765 89.4673 30.9881 85.6957L52.219 64.4648C53.0706 63.6132 53.5573 62.4573 53.5573 61.2407V31.189C68.2181 33.379 79.4115 46.0323 79.4115 61.2407C79.4115 78.0307 65.7848 91.6573 48.9948 91.6573Z" fill="#8DC55C"/>
</g>
<defs>
<clipPath id="clip0_635_956">
<rect width="146" height="146" fill="white" transform="translate(0.328125 0.589844)"/>
</clipPath>
</defs>
</svg>
