<svg width="500" height="500" viewBox="0 0 500 500" fill="none" xmlns="http://www.w3.org/2000/svg">
<path d="M172.616 151.893V143.821H137.426V218.424C137.431 233.919 131.796 285.991 192.322 285.991H224.697L223.797 301.445L271.823 253.241H211.791C211.32 253.257 210.31 253.241 209.835 253.241C189.214 253.241 173.437 237.149 172.618 216.729C172.598 216.212 172.587 215.691 172.587 215.168C172.587 214.645 172.598 214.124 172.618 213.607C172.671 212.262 172.795 210.935 172.986 209.63V152.077" fill="#CEEE81"/>
<path d="M363.519 176.044C363.519 187.963 361.741 200.057 356.761 211.974C348.578 226.56 341.998 232.785 322.965 241.857C313.483 246.438 301.803 248.008 290.565 248.008C288.901 248.008 287.249 247.951 285.612 247.838C282.123 247.991 278.471 248.045 274.648 247.986H222.969L240.224 227.543L257.48 207.097L265.739 197.311V216.546C269.878 216.546 273.728 216.37 277.299 216.029C308.166 213.075 318.34 197.79 317.063 177.605C317.063 177.605 320.133 143.784 281.847 139.816C281.011 139.729 280.157 139.655 279.283 139.598L228.476 139.094L137.43 138.19V103H302.806C336.384 107.421 351.78 129.619 359.429 149.718C362.275 158.611 363.521 166.709 363.521 176.042L363.519 176.044Z" fill="#CEEE81"/>
<path d="M363.967 325.505C363.967 338.856 362.594 350.144 356.85 363.082C344.694 383.494 330.06 397.955 301.745 397.955L137 397.769V362.816L229.259 361.851L278.489 361.356C278.489 361.356 283.25 361.257 285.439 361.069C314.097 360.366 328.937 345.23 328.937 324.936C328.937 304.643 316.563 292.735 295.031 288.305C283.885 286.179 271.077 285.358 249.326 285.531H247.548L279.387 253.425C290.682 253.425 291.926 253.425 296.331 253.484C296.334 253.484 296.34 253.486 296.344 253.484C334.09 255.873 363.967 287.206 363.967 325.507V325.505Z" fill="#CEEE81"/>
</svg>
