<svg width="147" height="146" viewBox="0 0 147 146" fill="none" xmlns="http://www.w3.org/2000/svg">
<path fill-rule="evenodd" clip-rule="evenodd" d="M31.6176 9.82436C34.2116 6.50404 38.1904 4.56348 42.4038 4.56348H90.5337C94.7471 4.56348 98.7259 6.50404 101.32 9.82434L127.095 42.8171C127.722 43.6194 128.062 44.6081 128.062 45.626V71.6507C122.023 68.1567 115.011 66.1572 107.531 66.1572C84.8531 66.1572 66.4688 84.5416 66.4688 107.22C66.4688 109.551 66.6631 111.838 67.0366 114.063H18.5625C11.0031 114.063 4.875 107.935 4.875 100.376V45.626C4.875 44.6081 5.21543 43.6192 5.84214 42.8171L31.6176 9.82436ZM42.4038 13.6885C40.9993 13.6885 39.6732 14.3353 38.8084 15.4421L18.7917 41.0635H29.0435L25.5025 58.0305C25.2219 59.3751 25.5621 60.7744 26.4282 61.8404C27.2947 62.9062 28.5952 63.5251 29.9688 63.5251H36.8602L29.9576 80.3984C29.0033 82.7307 30.1207 85.3948 32.4528 86.3488C34.7849 87.3028 37.449 86.1857 38.403 83.8536L47.8791 60.69C48.4546 59.2829 48.2917 57.6817 47.4443 56.4195C46.5968 55.1573 45.1765 54.4001 43.6562 54.4001H35.5818L38.3649 41.0635H61.9062V13.6885H42.4038ZM71.0312 13.6885V41.0635H114.146L94.1291 15.4421C93.2643 14.3353 91.9382 13.6885 90.5337 13.6885H71.0312Z" fill="#8DC55C"/>
<path fill-rule="evenodd" clip-rule="evenodd" d="M73.3125 107.22C73.3125 88.3212 88.6327 73.001 107.531 73.001C126.43 73.001 141.75 88.3212 141.75 107.22C141.75 126.118 126.43 141.438 107.531 141.438C88.6327 141.438 73.3125 126.118 73.3125 107.22ZM120.436 94.3149C122.218 96.0968 122.218 98.9856 120.436 100.767L113.984 107.22L120.436 113.672C122.218 115.454 122.218 118.343 120.436 120.124C118.654 121.906 115.765 121.906 113.984 120.124L107.531 113.672L101.079 120.124C99.2971 121.906 96.4083 121.906 94.6264 120.124C92.8448 118.343 92.8448 115.454 94.6264 113.672L101.079 107.22L94.6264 100.767C92.8448 98.9856 92.8448 96.0968 94.6264 94.3149C96.4083 92.5333 99.2971 92.5333 101.079 94.3149L107.531 100.767L113.984 94.3149C115.765 92.5333 118.654 92.5333 120.436 94.3149Z" fill="#8DC55C"/>
</svg>
