<svg width="58" height="58" viewBox="0 0 58 58" fill="none" xmlns="http://www.w3.org/2000/svg">
<rect x="0.380859" y="0.717773" width="57.1429" height="57.1429" rx="28.5714" fill="#CEEE81"/>
<path fill-rule="evenodd" clip-rule="evenodd" d="M41.0923 18.8344L18.209 41.7178L16.2475 39.7563L39.1309 16.873L41.0923 18.8344Z" fill="#00312D"/>
<path fill-rule="evenodd" clip-rule="evenodd" d="M38.1522 17.8479C33.5393 22.4607 33.8265 30.2865 38.1521 34.612L39.1328 35.5928L41.0943 33.6313L40.1135 32.6506C36.8293 29.3663 36.6256 23.2974 40.1136 19.8094L41.094 18.829L39.1325 16.8676L38.1522 17.8479Z" fill="#00312D"/>
<path fill-rule="evenodd" clip-rule="evenodd" d="M40.1126 19.8122C35.4997 24.4251 27.674 24.1379 23.3484 19.8122L22.3676 18.8315L24.3291 16.87L25.3098 17.8508C28.5941 21.135 34.6631 21.3388 38.1511 17.8508L39.1315 16.8704L41.0929 18.8319L40.1126 19.8122Z" fill="#00312D"/>
</svg>
