<svg width="47" height="47" viewBox="0 0 47 47" fill="none" xmlns="http://www.w3.org/2000/svg">
<rect x="0.313477" y="0.289062" width="46.6865" height="46.589" rx="23.2945" fill="#00312D"/>
<path fill-rule="evenodd" clip-rule="evenodd" d="M33.5788 15.0505L14.8828 33.7075L13.2803 32.1083L31.9763 13.4514L33.5788 15.0505Z" fill="#CEEE81"/>
<path fill-rule="evenodd" clip-rule="evenodd" d="M31.1744 14.2458C27.4056 18.0067 27.6403 24.3871 31.1743 27.9138L31.9756 28.7134L33.5781 27.1142L32.7769 26.3146C30.0936 23.6369 29.9272 18.6888 32.7769 15.845L33.5779 15.0458L31.9753 13.4466L31.1744 14.2458Z" fill="#CEEE81"/>
<path fill-rule="evenodd" clip-rule="evenodd" d="M32.777 15.8462C29.0083 19.6071 22.6145 19.3729 19.0804 15.8462L18.2791 15.0466L19.8817 13.4474L20.683 14.247C23.3662 16.9247 28.3247 17.0908 31.1745 14.247L31.9754 13.4477L33.578 15.0469L32.777 15.8462Z" fill="#CEEE81"/>
</svg>
