<svg width="88" height="88" viewBox="0 0 88 88" fill="none" xmlns="http://www.w3.org/2000/svg">
<rect x="0.706024" y="0.678009" width="87.1446" height="87.1446" rx="43.5723" fill="#FEFADF"/>
<path fill-rule="evenodd" clip-rule="evenodd" d="M62.799 28.2933L27.9012 63.1911L24.9099 60.1998L59.8077 25.302L62.799 28.2933Z" fill="#00312D"/>
<path fill-rule="evenodd" clip-rule="evenodd" d="M58.3117 26.7994C51.277 33.8342 51.7149 45.7687 58.3115 52.3653L59.8072 53.8609L62.7985 50.8696L61.3028 49.374C56.2943 44.3654 55.9836 35.11 61.303 29.7907L62.798 28.2957L59.8067 25.3044L58.3117 26.7994Z" fill="#00312D"/>
<path fill-rule="evenodd" clip-rule="evenodd" d="M61.3045 29.7896C54.2698 36.8243 42.3354 36.3864 35.7386 29.7896L34.2429 28.2939L37.2342 25.3026L38.7299 26.7983C43.7385 31.8069 52.9939 32.1176 58.3132 26.7983L59.8083 25.3032L62.7996 28.2945L61.3045 29.7896Z" fill="#00312D"/>
</svg>
