<svg width="176" height="147" viewBox="0 0 176 147" fill="none" xmlns="http://www.w3.org/2000/svg">
<path d="M88.0649 0.589844C39.6841 0.589844 0.464844 39.8091 0.464844 88.1898C0.464844 110.63 8.9073 131.096 22.7846 146.59H58.8649V110.09H51.5649C49.5464 110.09 47.9149 108.458 47.9149 106.44C47.9149 105.432 48.32 104.52 48.9843 103.859L85.4843 67.3593C86.145 66.6986 87.0575 66.2898 88.0649 66.2898C89.0723 66.2898 89.9848 66.6986 90.6454 67.3593L127.145 103.859C127.81 104.52 128.215 105.432 128.215 106.44C128.215 108.458 126.583 110.09 124.565 110.09H117.265V146.59H153.345C167.226 131.096 175.665 110.63 175.665 88.1898C175.665 39.8091 136.446 0.589844 88.0649 0.589844ZM68.5702 33.0347C56.6493 37.1957 46.5571 45.0505 39.3775 55.7596C38.0708 57.705 35.837 58.9898 33.3149 58.9898C29.2853 58.9898 26.0149 55.7194 26.0149 51.6898C26.0149 50.186 26.4711 48.7844 27.2522 47.6237C36.2057 34.272 48.831 24.4608 63.7595 19.2486C64.5114 18.9822 65.3254 18.8398 66.1649 18.8398C70.1945 18.8398 73.4649 22.1102 73.4649 26.1398C73.4649 29.3263 71.4172 32.0382 68.5702 33.0347Z" fill="#BBDC9D"/>
</svg>
