<svg width="997" height="255" viewBox="0 0 997 255" fill="none" xmlns="http://www.w3.org/2000/svg">
<rect width="997" height="254.425" fill="#00312D"/>
<path d="M70.0044 71.1028V67.3564H53.6728V101.979C53.6754 109.17 51.0599 133.336 79.15 133.336H94.1748L93.7571 140.509L116.046 118.137H88.1853C87.9667 118.145 87.4977 118.137 87.2774 118.137C77.7073 118.137 70.3854 110.669 70.0053 101.193C69.9959 100.952 69.9908 100.711 69.9908 100.468C69.9908 100.226 69.9959 99.9839 70.0053 99.7438C70.0301 99.1195 70.0873 98.5036 70.1761 97.898V71.1882" fill="#CEEE81"/>
<path d="M158.598 82.3118C158.598 87.8434 157.773 93.4561 155.462 98.9868C151.664 105.756 148.611 108.645 139.778 112.855C135.377 114.981 129.957 115.71 124.741 115.71C123.969 115.71 123.202 115.683 122.442 115.631C120.823 115.702 119.128 115.727 117.354 115.699H93.3701L101.378 106.212L109.387 96.7233L113.219 92.1817V101.109C115.14 101.109 116.927 101.027 118.584 100.869C132.909 99.4976 137.631 92.4038 137.038 83.0362C137.038 83.0362 138.463 67.34 120.695 65.4984C120.307 65.4583 119.911 65.4241 119.505 65.3977L95.9257 65.1636L53.6719 64.7442V48.4126H130.422C146.005 50.4643 153.151 60.7664 156.7 70.0939C158.021 74.2212 158.599 77.9795 158.599 82.311L158.598 82.3118Z" fill="#CEEE81"/>
<path d="M158.807 151.675C158.807 157.871 158.169 163.109 155.504 169.114C149.862 178.587 143.07 185.298 129.93 185.298L53.4727 185.212V168.99L96.2894 168.543L119.137 168.313C119.137 168.313 121.346 168.267 122.362 168.18C135.662 167.853 142.549 160.829 142.549 151.411C142.549 141.993 136.807 136.466 126.814 134.41C121.641 133.424 115.697 133.043 105.602 133.123H104.777L119.553 118.223C124.795 118.223 125.373 118.223 127.417 118.25C127.419 118.25 127.421 118.251 127.423 118.25C144.941 119.359 158.807 133.9 158.807 151.675V151.675Z" fill="#CEEE81"/>
<path d="M237.931 185.299C228.353 185.299 219.839 183.769 212.389 180.709C204.94 177.65 198.554 173.26 193.233 167.54C188.045 161.686 184.054 154.569 181.261 146.189C178.467 137.808 177.07 128.23 177.07 117.454C177.07 101.89 179.731 89.0528 185.052 78.9426C190.373 68.6994 197.69 61.0503 207.002 55.9952C216.314 50.9401 226.889 48.4126 238.729 48.4126C247.908 48.4126 256.222 49.9424 263.672 53.0021C271.121 55.9287 277.44 60.3186 282.628 66.1719C287.95 71.8921 292.073 79.0757 295 87.7225C297.927 96.2363 299.39 106.014 299.39 117.055C299.39 128.097 297.927 137.874 295 146.388C292.206 154.769 288.149 161.886 282.828 167.739C277.507 173.459 271.055 177.849 263.472 180.909C256.023 183.836 247.509 185.299 237.931 185.299ZM238.529 164.946C246.112 164.946 252.431 163.15 257.486 159.558C262.674 155.833 266.598 150.512 269.259 143.594C272.053 136.677 273.449 128.23 273.449 118.253C273.449 108.009 272.053 99.2295 269.259 91.9129C266.465 84.5963 262.408 79.0757 257.087 75.3509C251.899 71.493 245.513 69.5641 237.931 69.5641C230.747 69.5641 224.495 71.4265 219.174 75.1513C213.986 78.7431 209.995 84.1307 207.201 91.3143C204.408 98.3648 203.011 107.012 203.011 117.255C203.011 124.97 203.809 131.821 205.405 137.808C207.002 143.661 209.263 148.583 212.19 152.574C215.249 156.565 218.974 159.624 223.364 161.753C227.887 163.881 232.942 164.946 238.529 164.946Z" fill="#CEEE81"/>
<path d="M349.124 182.705V51.0067H374.466V182.705H349.124ZM310.014 72.3577V51.0067H413.776V72.3577H310.014Z" fill="#CEEE81"/>
<path d="M481.549 185.299C472.902 185.299 465.187 184.434 458.402 182.705C451.618 181.109 445.831 178.581 441.042 175.122C436.386 171.53 432.794 167.207 430.267 162.152C427.739 156.964 426.409 150.911 426.276 143.994L448.625 137.409C448.492 143.794 449.822 149.115 452.615 153.372C455.409 157.496 459.4 160.556 464.588 162.551C469.909 164.546 475.962 165.544 482.746 165.544C489.265 165.544 494.719 164.746 499.109 163.15C503.632 161.553 507.024 159.425 509.286 156.764C511.547 153.971 512.678 150.845 512.678 147.386C512.678 143.528 511.281 140.468 508.487 138.207C505.694 135.812 501.903 133.883 497.113 132.42C492.457 130.824 487.136 129.36 481.15 128.03C474.632 126.567 468.246 124.97 461.994 123.241C455.875 121.512 450.287 119.184 445.232 116.257C440.177 113.33 436.12 109.606 433.06 105.083C430.134 100.427 428.67 94.5735 428.67 87.523C428.67 79.5413 430.666 72.6903 434.657 66.9701C438.647 61.1168 444.434 56.5939 452.017 53.4012C459.732 50.0755 468.911 48.4126 479.554 48.4126C490.063 48.4126 499.242 50.0089 507.091 53.2016C514.939 56.2613 521.059 60.7842 525.449 66.7705C529.839 72.7568 532.167 79.8073 532.433 87.9221L509.485 94.3074C509.485 89.9175 508.753 86.1262 507.29 82.9335C505.96 79.6078 503.964 76.8807 501.304 74.7522C498.643 72.4908 495.451 70.8279 491.726 69.7637C488.134 68.6994 484.01 68.1673 479.354 68.1673C473.9 68.1673 469.111 68.899 464.987 70.3623C460.996 71.8256 457.937 73.8876 455.808 76.5481C453.68 79.0757 452.615 82.0688 452.615 85.5275C452.615 89.7845 454.212 93.1767 457.404 95.7042C460.597 98.2318 464.788 100.294 469.976 101.89C475.297 103.353 481.084 104.817 487.336 106.28C493.056 107.477 498.776 108.941 504.497 110.67C510.35 112.399 515.737 114.661 520.66 117.454C525.582 120.248 529.506 124.039 532.433 128.828C535.492 133.484 537.022 139.404 537.022 146.588C537.022 154.303 534.96 161.088 530.836 166.941C526.712 172.794 520.526 177.317 512.279 180.51C504.031 183.703 493.788 185.299 481.549 185.299Z" fill="#CEEE81"/>
<path d="M591.098 182.705V141.2L543.407 51.0067H573.339L603.27 117.853H604.268L634 51.0067H663.732L616.44 140.801V182.705H591.098Z" fill="#CEEE81"/>
<path d="M681.111 182.705V51.0067H714.035L777.091 148.982H778.887L777.29 51.0067H801.834V182.705H771.903L706.053 80.9381H704.058L705.654 182.705H681.111Z" fill="#CEEE81"/>
<path d="M891.577 185.299C881.6 185.299 872.687 183.902 864.838 181.109C856.989 178.182 850.338 173.925 844.884 168.338C839.43 162.618 835.239 155.567 832.313 147.186C829.386 138.805 827.923 129.227 827.923 118.452C827.923 107.278 829.386 97.3671 832.313 88.7202C835.372 80.0734 839.629 72.7568 845.083 66.7705C850.537 60.6512 857.056 56.0617 864.638 53.0021C872.221 49.9424 880.668 48.4126 889.98 48.4126C897.164 48.4126 903.815 49.3438 909.935 51.2062C916.054 53.0686 921.309 55.8622 925.699 59.587C930.222 63.1788 933.747 67.5687 936.274 72.7568C938.802 77.8119 940.132 83.5986 940.265 90.117L916.719 96.3029C916.852 90.3166 915.588 85.328 912.928 81.3372C910.267 77.3463 906.809 74.3531 902.552 72.3577C898.428 70.3623 893.971 69.3646 889.182 69.3646C884.925 69.3646 880.668 70.2293 876.412 71.9586C872.288 73.688 868.563 76.4151 865.237 80.1399C861.911 83.8647 859.251 88.7867 857.255 94.9061C855.26 100.892 854.262 108.275 854.262 117.055C854.262 128.23 855.859 137.276 859.051 144.193C862.377 151.111 866.9 156.232 872.62 159.558C878.473 162.751 885.058 164.347 892.375 164.347C899.825 164.347 905.744 162.884 910.134 159.957C914.524 156.897 917.717 152.906 919.712 147.984C921.708 142.929 922.838 137.475 923.104 131.622L945.254 135.413C945.121 142.331 944.056 148.849 942.061 154.968C940.066 161.088 936.939 166.409 932.683 170.932C928.559 175.455 923.105 178.98 916.32 181.508C909.536 184.035 901.288 185.299 891.577 185.299Z" fill="#CEEE81"/>
</svg>
