<svg width="180" height="181" viewBox="0 0 180 181" fill="none" xmlns="http://www.w3.org/2000/svg">
<path d="M107.818 65.584C109.538 68.1658 113.026 68.8579 115.619 67.144C118.206 65.4192 118.904 61.931 117.179 59.3438L108.011 45.5889L115.509 34.3389H143.238L150.737 45.5889L141.568 59.3438C139.844 61.931 140.541 65.4192 143.129 67.144C144.09 67.7812 145.172 68.0889 146.243 68.0889C148.061 68.0889 149.847 67.21 150.929 65.584L162.179 48.709C163.437 46.8193 163.437 44.3584 162.179 42.4688L150.929 25.5938C149.885 24.0282 148.127 23.0889 146.249 23.0889H134.999V11.8389H123.749V23.0889H112.499C110.62 23.0889 108.862 24.0282 107.818 25.5938L96.5685 42.4688C95.3105 44.3584 95.3105 46.8193 96.5685 48.709L107.818 65.584Z" fill="#D8E7DA"/>
<path d="M151.875 135.589H28.125C18.8196 135.589 11.25 143.158 11.25 152.464C11.25 161.769 18.8196 169.339 28.125 169.339H151.875C161.18 169.339 168.75 161.769 168.75 152.464C168.75 143.158 161.18 135.589 151.875 135.589Z" fill="#D8E7DA"/>
<path d="M39.375 51.2139H45V62.4639C45 65.573 47.5159 68.0889 50.625 68.0889C53.7341 68.0889 56.25 65.573 56.25 62.4639V51.2139H61.875C64.9841 51.2139 67.5 48.698 67.5 45.5889V23.0889C67.5 19.9797 64.9841 17.4639 61.875 17.4639H56.25V11.8389H45V17.4639H39.375C36.2659 17.4639 33.75 19.9797 33.75 23.0889V45.5889C33.75 48.698 36.2659 51.2139 39.375 51.2139Z" fill="#D8E7DA"/>
<path d="M39.375 98.7984L48.8672 91.2041C49.8944 90.3856 51.3556 90.3856 52.3828 91.2041L61.875 98.7984V73.7139H39.375V98.7984Z" fill="#D8E7DA"/>
<path d="M22.5 129.964H78.75C81.8564 129.964 84.375 127.445 84.375 124.339V79.3389C84.375 76.2325 81.8564 73.7139 78.75 73.7139H67.5V104.651C67.5 105.734 66.8793 106.717 65.907 107.186C65.5197 107.373 65.1022 107.464 64.6875 107.464C64.0613 107.464 63.4378 107.255 62.9297 106.849L50.625 97.0021L38.3203 106.849C37.4771 107.524 36.3235 107.653 35.343 107.186C34.3707 106.717 33.75 105.734 33.75 104.651V73.7139H22.5C19.3936 73.7139 16.875 76.2325 16.875 79.3389V124.339C16.875 127.445 19.3936 129.964 22.5 129.964Z" fill="#D8E7DA"/>
<path d="M127.617 91.2041C128.644 90.3856 130.106 90.3856 131.133 91.2041L140.625 98.7984V73.7139H118.125V98.7984L127.617 91.2041Z" fill="#D8E7DA"/>
<path d="M101.25 129.964H157.5C160.606 129.964 163.125 127.445 163.125 124.339V79.3389C163.125 76.2325 160.606 73.7139 157.5 73.7139H146.25V104.651C146.25 105.734 145.629 106.717 144.657 107.186C144.27 107.373 143.852 107.464 143.438 107.464C142.811 107.464 142.188 107.255 141.68 106.849L129.375 97.0021L117.07 106.849C116.227 107.524 115.074 107.653 114.093 107.186C113.121 106.717 112.5 105.734 112.5 104.651V73.7139H101.25C98.1436 73.7139 95.625 76.2325 95.625 79.3389V124.339C95.625 127.445 98.1436 129.964 101.25 129.964Z" fill="#D8E7DA"/>
</svg>
