<svg width="147" height="147" viewBox="0 0 147 147" fill="none" xmlns="http://www.w3.org/2000/svg">
<path d="M61.5278 12.7568C46.4282 12.7568 34.1875 24.9975 34.1875 40.0972C34.1875 55.1969 46.4282 67.4375 61.5278 67.4375C76.6273 67.4375 88.8681 55.1969 88.8681 40.0972C88.8681 24.9975 76.6273 12.7568 61.5278 12.7568Z" fill="#A4D07C"/>
<path d="M59.1542 75.1492C57.5413 75.1516 55.9284 75.1546 54.3156 75.1546C31.845 75.1546 13.6289 93.3706 13.6289 115.841C13.6289 125.011 21.0627 132.445 30.2328 132.445H61.9974C64.7404 132.445 66.2162 128.955 64.6236 126.722C59.9503 120.169 57.2014 112.149 57.2014 103.488C57.2014 95.0429 59.8144 87.2081 64.2762 80.7483C65.8123 78.5242 64.3505 75.1425 61.6476 75.1455C60.8165 75.1467 59.9852 75.1479 59.1542 75.1492Z" fill="#A4D07C"/>
<path fill-rule="evenodd" clip-rule="evenodd" d="M128.199 103.488C128.199 120.573 114.349 134.424 97.2637 134.424C80.1787 134.424 66.3281 120.573 66.3281 103.488C66.3281 86.4033 80.1787 72.5527 97.2637 72.5527C114.349 72.5527 128.199 86.4033 128.199 103.488ZM79.6591 103.49C79.6591 100.97 81.7019 98.9276 84.2216 98.9276H110.311C112.83 98.9276 114.873 100.97 114.873 103.49C114.873 106.01 112.83 108.053 110.311 108.053H84.2216C81.7019 108.053 79.6591 106.01 79.6591 103.49Z" fill="#A4D07C"/>
</svg>
