<svg width="36" height="36" viewBox="0 0 36 36" fill="none" xmlns="http://www.w3.org/2000/svg">
<path d="M21.5575 18.0121C21.5575 18.7156 21.3488 19.4034 20.958 19.9883C20.5671 20.5733 20.0116 21.0292 19.3616 21.2984C18.7117 21.5676 17.9965 21.6381 17.3065 21.5008C16.6165 21.3636 15.9827 21.0248 15.4852 20.5273C14.9877 20.0299 14.649 19.3961 14.5117 18.7061C14.3745 18.0161 14.4449 17.3009 14.7141 16.6509C14.9833 16.0009 15.4393 15.4454 16.0242 15.0546C16.6092 14.6637 17.2969 14.4551 18.0004 14.4551C18.4678 14.4543 18.9307 14.5457 19.3626 14.7242C19.7945 14.9027 20.187 15.1647 20.5174 15.4951C20.8479 15.8256 21.1099 16.218 21.2883 16.65C21.4668 17.0819 21.5583 17.5448 21.5575 18.0121Z" fill="#DEF4AB"/>
<path d="M22.5484 9.02734H13.4543C12.2772 9.02789 11.1486 9.4957 10.3163 10.328C9.48398 11.1603 9.01617 12.2889 9.01563 13.466V22.5642C9.01562 23.147 9.13045 23.724 9.35354 24.2624C9.57662 24.8008 9.9036 25.29 10.3158 25.702C10.728 26.114 11.2173 26.4408 11.7558 26.6636C12.2943 26.8865 12.8715 27.001 13.4543 27.0008H22.5524C23.1351 27.0005 23.7119 26.8855 24.2501 26.6623C24.7883 26.439 25.2772 26.112 25.689 25.6999C26.1008 25.2877 26.4273 24.7985 26.6501 24.2601C26.8728 23.7217 26.9873 23.1447 26.987 22.5621V13.466C26.9864 12.2889 26.5186 11.1603 25.6863 10.328C24.8541 9.4957 23.7254 9.02789 22.5484 9.02734ZM18.0013 23.8323C16.8515 23.8315 15.7278 23.4899 14.7721 22.8506C13.8164 22.2113 13.0717 21.303 12.632 20.2406C12.1924 19.1782 12.0776 18.0093 12.3021 16.8816C12.5266 15.754 13.0804 14.7182 13.8934 13.9051C14.7064 13.0921 15.7422 12.5383 16.8699 12.3138C17.9976 12.0893 19.1665 12.2041 20.2289 12.6438C21.2913 13.0834 22.1996 13.8281 22.8389 14.7838C23.4782 15.7395 23.8198 16.8632 23.8206 18.013C23.8206 18.7772 23.6701 19.5339 23.3777 20.24C23.0852 20.946 22.6566 21.5875 22.1162 22.1279C21.5758 22.6683 20.9343 23.0969 20.2283 23.3894C19.5222 23.6818 18.7655 23.8323 18.0013 23.8323ZM23.8534 13.6317C23.5702 13.6317 23.2933 13.5477 23.0579 13.3904C22.8224 13.233 22.6389 13.0094 22.5305 12.7478C22.4222 12.4861 22.3938 12.1983 22.449 11.9205C22.5043 11.6428 22.6407 11.3876 22.8409 11.1874C23.0411 10.9872 23.2963 10.8508 23.574 10.7955C23.8518 10.7403 24.1397 10.7686 24.4013 10.877C24.6629 10.9854 24.8865 11.1689 25.0439 11.4044C25.2012 11.6398 25.2852 11.9167 25.2852 12.1998C25.2852 12.5796 25.1343 12.9438 24.8658 13.2123C24.5973 13.4808 24.2331 13.6317 23.8534 13.6317Z" fill="#DEF4AB"/>
<path d="M35.1087 8.35568C34.3008 5.11364 30.8869 1.69977 27.6448 0.891818C24.4636 0.304057 21.2356 0.00556558 18.0005 0C14.7654 0.0057671 11.5375 0.304257 8.3562 0.891818C5.11416 1.69977 1.70234 5.11364 0.894385 8.35568C-0.298128 14.7299 -0.298128 21.2701 0.894385 27.6443C1.70234 30.8864 5.11416 34.3023 8.3562 35.1082C11.5375 35.6957 14.7654 35.9942 18.0005 36C18.9142 36 19.8278 35.9761 20.7414 35.9284C23.0575 35.8016 25.3633 35.5283 27.6448 35.1102C30.8951 34.3043 34.3008 30.8966 35.1087 27.6464C35.7161 24.3624 36.0147 21.0287 36.0005 17.6891C35.9774 14.5578 35.679 11.4347 35.1087 8.35568ZM29.2505 22.5593C29.2484 24.3364 28.5415 26.0401 27.2849 27.2966C26.0283 28.5532 24.3246 29.2601 22.5476 29.2623H13.4535C11.6764 29.2601 9.97274 28.5532 8.71616 27.2966C7.45958 26.0401 6.75269 24.3364 6.75052 22.5593V13.4652C6.75269 11.6882 7.45958 9.98449 8.71616 8.72791C9.97274 7.47134 11.6764 6.76444 13.4535 6.76227H22.5476C24.3246 6.76444 26.0283 7.47134 27.2849 8.72791C28.5415 9.98449 29.2484 11.6882 29.2505 13.4652V22.5593Z" fill="#DEF4AB"/>
</svg>
