<svg width="1629" height="494" viewBox="0 0 1629 494" fill="none" xmlns="http://www.w3.org/2000/svg">
<g clip-path="url(#clip0_529_1352)">
<rect width="1629" height="493.595" rx="54.359" fill="#E0ECE1"/>
<path d="M485.438 227.081H587.42V316.826" stroke="black" stroke-width="1.08718"/>
<rect x="637.73" y="31.2754" width="352.246" height="98.2667" rx="49.1333" fill="white"/>
<path d="M711.485 71.583H699.982V56.4277H711.506V58.8413H703.331V62.7551H710.484V65.1034H703.331V69.1695H711.485V71.583ZM716.805 71.5613H713.565V59.9502H716.826V62.6247H716.913C717.544 61.1896 718.522 59.7328 720.436 59.7328C724.567 59.7328 725.024 62.6247 725.024 64.9512V71.5613H721.784V65.0164C721.784 63.2117 721.132 62.255 719.501 62.255C717.566 62.255 716.805 63.9293 716.805 65.3861V71.5613ZM731.892 62.4724V67.7779C731.892 68.365 732.348 68.7998 732.957 68.7998H736.066V71.583H731.696C729.957 71.583 728.674 70.3219 728.674 68.5824V62.4724H726.608L726.108 59.9502H728.695V57.2105L731.87 56.0363V59.9502H735.305L735.871 62.4724H731.892ZM743.4 69.5826C744.835 69.5826 745.726 68.8868 745.944 67.5604H748.988C748.618 70.4741 746.639 71.8222 743.4 71.8222C739.508 71.8222 737.311 69.213 737.311 65.734C737.311 62.7551 738.834 59.711 743.291 59.711C747.705 59.711 749.183 62.4724 749.249 66.2123H740.53C740.573 68.104 741.551 69.5609 743.4 69.5826ZM740.703 64.4511H746.205C746.031 63.3204 745.052 61.9941 743.334 61.9941C741.725 61.9941 740.79 63.3422 740.703 64.4511ZM754.537 71.5613H751.298V59.9502H754.559V62.6464H754.624C755.125 61.1896 755.864 59.711 757.364 59.711C760.582 59.711 760.952 62.3855 760.8 64.4076H757.843C757.843 62.7769 757.516 62.255 756.386 62.255C755.059 62.255 754.537 63.6466 754.537 65.1034V71.5613ZM765.407 76.6275H762.21V59.9502H765.428V62.4507H765.515C766.255 60.4068 767.842 59.7328 769.321 59.7328C772.56 59.7328 774.496 62.6681 774.496 65.9297C774.496 69.2999 772.56 71.8004 769.386 71.8004C767.951 71.8004 766.124 71.0177 765.494 69.0825H765.407V76.6275ZM771.234 65.7992C771.234 63.8423 770.147 62.1463 768.277 62.1463C766.929 62.1463 765.668 63.0595 765.472 64.125V67.5822C765.711 68.6476 767.037 69.4086 768.299 69.4086C770.125 69.4086 771.234 67.7344 771.234 65.7992ZM780.124 71.5613H776.885V59.9502H780.146V62.6464H780.211C780.711 61.1896 781.451 59.711 782.951 59.711C786.169 59.711 786.539 62.3855 786.387 64.4076H783.429C783.429 62.7769 783.103 62.255 781.973 62.255C780.646 62.255 780.124 63.6466 780.124 65.1034V71.5613ZM791.146 58.189H787.841V55.0796H791.146V58.189ZM791.102 71.5613H787.863V59.9502H791.102V71.5613ZM793.222 68.0388H796.244C796.462 69.2999 797.397 69.6913 798.549 69.6913C799.375 69.6913 800.506 69.4521 800.506 68.4084C800.506 66.0167 793.309 67.43 793.309 63.2552C793.309 60.5155 796.223 59.7328 798.462 59.7328C800.963 59.7328 803.637 60.646 803.702 63.5814H800.637C800.528 62.342 799.68 61.8419 798.527 61.8419C797.679 61.8419 796.592 62.1463 796.592 63.19C796.592 65.3209 803.789 64.2554 803.789 68.278C803.789 70.9742 800.68 71.8004 798.462 71.8004C796.201 71.8004 793.244 70.8655 793.222 68.0388ZM811.433 69.5826C812.868 69.5826 813.76 68.8868 813.977 67.5604H817.021C816.652 70.4741 814.673 71.8222 811.433 71.8222C807.541 71.8222 805.345 69.213 805.345 65.734C805.345 62.7551 806.867 59.711 811.325 59.711C815.739 59.711 817.217 62.4724 817.282 66.2123H808.563C808.607 68.104 809.585 69.5609 811.433 69.5826ZM808.737 64.4511H814.238C814.064 63.3204 813.086 61.9941 811.368 61.9941C809.759 61.9941 808.824 63.3422 808.737 64.4511ZM823.241 67.1473H826.698C826.915 68.9303 828.416 69.4521 829.894 69.4521C831.982 69.4304 832.982 68.4954 832.982 67.343C832.982 66.4515 832.286 66.0384 830.894 65.6688L827.85 64.8425C825.415 64.1684 823.48 63.103 823.48 60.6025C823.48 57.5367 826.654 56.2103 830.025 56.2103C833.482 56.2103 836.265 57.4279 836.33 60.8852L832.83 60.9069C832.656 59.1022 831.46 58.5803 829.829 58.5803C828.177 58.5803 827.198 59.2979 827.198 60.559C827.198 61.4505 827.807 61.9723 829.22 62.3855L832.134 63.2335C834.439 63.9293 836.526 64.8425 836.526 67.343C836.526 70.3219 833.373 71.8004 829.807 71.8004C825.85 71.8004 823.371 69.8653 823.241 67.1473ZM837.68 65.8644C837.68 62.2985 839.703 59.711 843.834 59.711C847.943 59.711 849.944 62.2985 849.944 65.8862C849.944 69.8218 847.204 71.8222 843.834 71.8222C840.485 71.8222 837.68 69.7565 837.68 65.8644ZM843.834 69.3217C845.552 69.3217 846.704 68.0388 846.704 65.7775C846.704 63.5161 845.552 62.1898 843.834 62.1898C842.094 62.1898 840.942 63.4944 840.942 65.7775C840.942 68.0171 842.116 69.3217 843.834 69.3217ZM852.55 71.6048V62.5377H850.245V59.9502H852.528V58.1455C852.528 55.0144 854.202 54.1229 856.746 54.1229H859.529L860.486 56.8191L857.398 56.7539C856.224 56.7321 855.746 57.1888 855.746 57.928V59.9502H860.073V62.5377H855.746V71.6048H852.55ZM866.558 62.4724V67.7779C866.558 68.365 867.014 68.7998 867.623 68.7998H870.732V71.583H866.362C864.622 71.583 863.339 70.3219 863.339 68.5824V62.4724H861.274L860.774 59.9502H863.361V57.2105L866.536 56.0363V59.9502H869.971L870.537 62.4724H866.558ZM879.069 71.583H875.068L871.111 59.9719H874.503L877.264 68.7781L880.156 59.9719H883.07L886.027 68.7781L888.723 59.9719H892.006L888.136 71.583H884.157L881.569 64.5381L879.069 71.583ZM903.098 71.6048H900.141L900.054 68.9085H899.989C899.25 70.909 897.467 71.8439 895.705 71.8222C893.64 71.8004 891.683 70.6045 891.683 68.5172C891.683 65.821 893.596 64.8208 896.662 64.8208H900.119L900.098 63.9293C900.076 62.4507 898.945 62.0158 898.054 62.0158C896.945 62.0158 895.771 62.429 895.771 64.0162H892.661C892.661 60.8634 895.249 59.7328 897.967 59.7328C900.62 59.7328 903.098 60.8417 903.098 63.7118V71.6048ZM900.098 67.5604V66.4515H896.836C895.749 66.4515 894.857 66.9081 894.857 68.0388C894.857 69.126 895.901 69.4956 896.945 69.4956C898.423 69.4739 900.098 68.6259 900.098 67.5604ZM908.717 71.5613H905.478V59.9502H908.739V62.6464H908.804C909.304 61.1896 910.044 59.711 911.544 59.711C914.762 59.711 915.132 62.3855 914.979 64.4076H912.022C912.022 62.7769 911.696 62.255 910.566 62.255C909.239 62.255 908.717 63.6466 908.717 65.1034V71.5613ZM922.084 69.5826C923.519 69.5826 924.41 68.8868 924.628 67.5604H927.672C927.302 70.4741 925.323 71.8222 922.084 71.8222C918.191 71.8222 915.995 69.213 915.995 65.734C915.995 62.7551 917.517 59.711 921.975 59.711C926.389 59.711 927.867 62.4724 927.933 66.2123H919.213C919.257 68.104 920.235 69.5609 922.084 69.5826ZM919.387 64.4511H924.888C924.714 63.3204 923.736 61.9941 922.018 61.9941C920.409 61.9941 919.474 63.3422 919.387 64.4511Z" fill="#00312D"/>
<path d="M756.732 106.366H754.145C752.297 103.561 751.579 99.6904 751.579 96.3419C751.579 92.9716 752.275 89.1665 754.145 86.3181H756.732C754.993 89.2317 754.275 92.7542 754.275 96.3419C754.275 99.9513 754.971 103.452 756.732 106.366ZM773.837 102.234L771.032 91.4061L768.205 102.234H762.074L758.03 87.0791H761.595L765.248 100.712L768.771 87.0791H773.054L777.055 100.734L780.099 87.0791H783.709L779.947 102.234H773.837ZM802.208 87.0791L802.795 102.234H799.446L799.098 93.6239L799.251 92.3845L795.25 102.234H792.423L788.553 92.2758L788.705 93.6239L788.335 102.234H784.987L785.574 87.0791H789.401L794.01 97.69L798.403 87.0791H802.208ZM804.797 97.7987H808.254C808.472 99.5817 809.972 100.104 811.45 100.104C813.538 100.082 814.538 99.1468 814.538 97.9944C814.538 97.1029 813.842 96.6898 812.451 96.3201L809.407 95.4939C806.971 94.8198 805.036 93.7544 805.036 91.2539C805.036 88.188 808.211 86.8617 811.581 86.8617C815.038 86.8617 817.821 88.0793 817.887 91.5365L814.386 91.5583C814.212 89.7536 813.016 89.2317 811.385 89.2317C809.733 89.2317 808.754 89.9493 808.754 91.2104C808.754 92.1019 809.363 92.6237 810.776 93.0368L813.69 93.8848C815.995 94.5806 818.082 95.4939 818.082 97.9944C818.082 100.973 814.929 102.452 811.363 102.452C807.406 102.452 804.927 100.517 804.797 97.7987ZM821.454 102.256H818.802L824.129 87.0791H826.76L821.454 102.256ZM840.107 102.234H828.605V87.0791H840.129V89.4926H831.953V93.4065H839.107V95.7548H831.953V99.8208H840.107V102.234ZM851.363 102.256L850.928 99.4729C850.689 97.9726 849.428 96.8637 847.884 96.8637L845.84 96.8855V102.256H842.492V87.0791H849.493C851.885 87.0791 854.712 88.1663 854.712 91.5365C854.712 93.6674 853.212 95.4721 849.885 95.8852H850.776C852.494 95.8852 853.929 97.1464 854.168 98.8424L854.69 102.256H851.363ZM845.84 89.4274V94.6024H849.341C850.32 94.6024 851.385 94.1458 851.385 91.9497C851.385 89.7318 850.08 89.4274 849.298 89.4274H845.84ZM860.556 96.9507V102.234H857.207V87.0791H863.817C866.296 87.0791 869.275 88.1663 869.275 91.9062C869.275 94.9938 867.035 96.9507 863.882 96.9507H860.556ZM860.556 89.4274V94.6459H863.6C864.665 94.6459 865.948 94.2545 865.948 91.9497C865.948 89.6666 864.361 89.4274 863.491 89.4274H860.556ZM873.566 106.366H870.956C872.696 103.452 873.435 99.9296 873.435 96.3419C873.435 92.7542 872.696 89.21 870.956 86.3181H873.566C875.414 89.1665 876.131 92.9499 876.131 96.3419C876.131 99.7339 875.414 103.517 873.566 106.366Z" fill="#00312D"/>
<rect x="153.652" y="307.308" width="165.891" height="67.9883" rx="33.9942" fill="white"/>
<path d="M194.219 335.615C196.829 335.925 198.851 337.588 198.851 341.029C198.851 344.47 196.796 346.427 194.187 346.737C193.616 346.802 193.355 346.802 192.752 346.802H188.903V335.549H192.784C193.388 335.549 193.649 335.549 194.219 335.615ZM193.681 344.975C195.361 344.763 196.47 343.361 196.47 341.061C196.47 338.844 195.393 337.588 193.73 337.376C193.355 337.327 193.029 337.311 192.523 337.311H191.153V345.024H192.491C192.98 345.024 193.322 345.024 193.681 344.975ZM215.35 335.549L212.365 346.802H209.381L207.457 337.441L205.435 346.802H202.434L199.613 335.549H202.043L203.934 345.073L205.924 335.713H209.087L211.012 345.106L213.034 335.549H215.35ZM220.475 335.321C223.166 335.321 224.389 336.854 224.634 338.86H222.334C222.204 337.718 221.568 337.001 220.394 337.001C219.497 337.001 218.812 337.425 218.812 338.338C218.812 339.284 219.415 339.757 221.209 340.181C223.688 340.752 224.797 341.893 224.797 343.703C224.797 345.823 222.856 347.03 220.638 347.03C217.948 347.03 216.186 345.84 215.974 343.475H218.274C218.518 344.714 219.464 345.35 220.606 345.35C221.633 345.35 222.448 344.796 222.448 343.932C222.448 342.986 221.861 342.431 220.198 342.04C217.899 341.485 216.447 340.686 216.447 338.615C216.447 336.544 218.323 335.321 220.475 335.321ZM233.566 335.321C236.257 335.321 237.48 336.854 237.724 338.86H235.425C235.295 337.718 234.659 337.001 233.484 337.001C232.587 337.001 231.903 337.425 231.903 338.338C231.903 339.284 232.506 339.757 234.3 340.181C236.779 340.752 237.887 341.893 237.887 343.703C237.887 345.823 235.947 347.03 233.729 347.03C231.038 347.03 229.277 345.84 229.065 343.475H231.364C231.609 344.714 232.555 345.35 233.696 345.35C234.724 345.35 235.539 344.796 235.539 343.932C235.539 342.986 234.952 342.431 233.289 342.04C230.989 341.485 229.538 340.686 229.538 338.615C229.538 336.544 231.413 335.321 233.566 335.321ZM247.548 338.126L244.058 347.128C243.145 349.476 242.199 350.226 240.438 350.226C240.03 350.226 239.753 350.21 239.427 350.161V348.612C239.655 348.645 239.867 348.645 240.096 348.645C240.862 348.645 241.368 348.351 241.726 347.487L241.84 347.209L238.302 338.126H240.813L242.966 345.089L245.086 338.126H247.548ZM251.648 337.898C253.719 337.898 254.894 339.056 255.089 340.637H252.839C252.692 339.838 252.252 339.382 251.502 339.382C250.833 339.382 250.474 339.773 250.474 340.311C250.474 340.964 251.012 341.306 252.447 341.665C254.225 342.121 255.269 342.839 255.269 344.437C255.269 346.182 253.687 347.03 251.697 347.03C249.594 347.03 248.11 346.117 247.865 344.16H250.115C250.295 345.106 250.947 345.546 251.73 345.546C252.447 345.546 253.002 345.236 253.002 344.6C253.002 343.932 252.431 343.557 250.931 343.181C249.316 342.774 248.207 342.073 248.207 340.572C248.207 338.909 249.577 337.898 251.648 337.898ZM259.347 339.675V343.687C259.347 343.981 259.347 344.225 259.363 344.453C259.428 345.301 259.738 345.497 260.994 345.399V346.867C260.488 346.949 260.015 346.981 259.51 346.981C257.83 346.981 257.227 346.427 257.129 345.204C257.096 344.812 257.096 344.437 257.096 343.948V339.675H255.824V338.191H257.096V336.055H259.347V338.191H261.141V339.675H259.347ZM270.282 342.285C270.282 342.497 270.282 342.757 270.249 343.051H264.085C264.232 344.877 265.047 345.448 266.091 345.448C267.053 345.448 267.754 344.91 267.901 343.981H270.151C269.711 346.003 268.08 347.03 266.042 347.03C263.661 347.03 261.818 345.546 261.818 342.497C261.818 339.838 263.563 337.898 266.221 337.898C268.879 337.898 270.282 339.92 270.282 342.285ZM266.123 339.48C265.08 339.48 264.346 340.148 264.15 341.583H267.966C267.819 340.213 267.2 339.48 266.123 339.48ZM284.716 340.05C284.781 340.491 284.798 340.931 284.798 341.632V346.802H282.547V342.285C282.547 341.779 282.531 341.306 282.482 340.866C282.368 339.969 281.878 339.48 281.014 339.48C280.003 339.48 279.432 340.344 279.432 342.35V346.802H277.198V342.285C277.198 341.779 277.182 341.306 277.133 340.866C277.019 339.969 276.513 339.48 275.649 339.48C274.638 339.48 274.083 340.344 274.083 342.35V346.802H271.833V338.126H274.083V339.447L274.719 338.403C275.209 338.061 275.779 337.898 276.562 337.898C277.981 337.898 278.878 338.599 279.22 339.545L280.068 338.403C280.558 338.061 281.145 337.898 281.927 337.898C283.574 337.898 284.52 338.86 284.716 340.05Z" fill="#00312D"/>
<rect x="46.2305" y="189.008" width="188.082" height="67.6154" rx="33.8077" fill="#00312D"/>
<path d="M125.758 217.063L122.774 228.315H119.789L117.865 218.955L115.843 228.315H112.842L110.021 217.063H112.451L114.343 226.587L116.332 217.226H119.496L121.42 226.619L123.442 217.063H125.758ZM132.04 216.835C135.089 216.835 136.671 218.498 136.9 220.716L136.916 220.879H134.665L134.633 220.716C134.356 219.33 133.508 218.515 132.007 218.515C130.197 218.515 128.974 220.064 128.974 222.624C128.974 225.429 130.262 226.864 131.975 226.864C133.442 226.864 134.29 225.983 134.584 224.581L134.616 224.418H136.851L136.834 224.581C136.59 226.978 134.763 228.544 131.877 228.544C128.746 228.544 126.593 226.342 126.593 222.755C126.593 219.069 128.925 216.835 132.04 216.835ZM142.652 216.835C145.343 216.835 146.566 218.368 146.811 220.374H144.512C144.381 219.232 143.745 218.515 142.571 218.515C141.674 218.515 140.989 218.939 140.989 219.852C140.989 220.798 141.592 221.271 143.386 221.695C145.865 222.265 146.974 223.407 146.974 225.217C146.974 227.337 145.033 228.544 142.816 228.544C140.125 228.544 138.364 227.353 138.152 224.989H140.451C140.696 226.228 141.641 226.864 142.783 226.864C143.81 226.864 144.626 226.31 144.626 225.445C144.626 224.499 144.039 223.945 142.375 223.554C140.076 222.999 138.624 222.2 138.624 220.129C138.624 218.058 140.5 216.835 142.652 216.835ZM157.928 221.743L157.521 223.635H159.119V224.907H157.26L156.526 228.315H155.172L155.906 224.907H154.471L153.737 228.315H152.384L153.118 224.907H151.715V223.635H153.379L153.786 221.743H152.204V220.471H154.047L154.781 217.063H156.135L155.401 220.471H156.836L157.57 217.063H158.923L158.189 220.471H159.608V221.743H157.928ZM156.575 221.743H155.14L154.732 223.635H156.167L156.575 221.743ZM168.284 217.063V228.315H166.033V219.428L162.756 221.238V219.118L165.365 217.569C165.968 217.226 166.555 217.063 167.175 217.063H168.284Z" fill="#FCFCFC"/>
<rect x="297.789" y="189.008" width="188.082" height="67.6154" rx="33.8077" fill="#00312D"/>
<path d="M377.317 217.063L374.332 228.315H371.348L369.424 218.955L367.402 228.315H364.401L361.58 217.063H364.01L365.901 226.587L367.891 217.226H371.054L372.979 226.619L375.001 217.063H377.317ZM383.598 216.835C386.648 216.835 388.23 218.498 388.458 220.716L388.474 220.879H386.224L386.191 220.716C385.914 219.33 385.066 218.515 383.566 218.515C381.756 218.515 380.533 220.064 380.533 222.624C380.533 225.429 381.821 226.864 383.533 226.864C385.001 226.864 385.849 225.983 386.142 224.581L386.175 224.418H388.409L388.393 224.581C388.148 226.978 386.322 228.544 383.435 228.544C380.304 228.544 378.152 226.342 378.152 222.755C378.152 219.069 380.484 216.835 383.598 216.835ZM394.211 216.835C396.902 216.835 398.125 218.368 398.37 220.374H396.07C395.94 219.232 395.304 218.515 394.13 218.515C393.233 218.515 392.548 218.939 392.548 219.852C392.548 220.798 393.151 221.271 394.945 221.695C397.424 222.265 398.533 223.407 398.533 225.217C398.533 227.337 396.592 228.544 394.374 228.544C391.683 228.544 389.922 227.353 389.71 224.989H392.01C392.254 226.228 393.2 226.864 394.342 226.864C395.369 226.864 396.184 226.31 396.184 225.445C396.184 224.499 395.597 223.945 393.934 223.554C391.634 222.999 390.183 222.2 390.183 220.129C390.183 218.058 392.058 216.835 394.211 216.835ZM409.487 221.743L409.079 223.635H410.678V224.907H408.818L408.085 228.315H406.731L407.465 224.907H406.03L405.296 228.315H403.942L404.676 224.907H403.274V223.635H404.937L405.345 221.743H403.763V220.471H405.606L406.34 217.063H407.693L406.959 220.471H408.394L409.128 217.063H410.482L409.748 220.471H411.167V221.743H409.487ZM408.134 221.743H406.698L406.291 223.635H407.726L408.134 221.743ZM416.711 226.538H421.473V228.315H413.27V227.255L417.054 223.554C418.57 222.07 419.174 221.271 419.174 220.194C419.174 219.199 418.603 218.498 417.559 218.498C416.434 218.498 415.896 219.199 415.749 220.553L415.733 220.716H413.499L413.515 220.553C413.743 218.139 415.244 216.819 417.771 216.819C420.25 216.819 421.555 218.139 421.555 220.064C421.555 221.483 420.854 222.494 418.799 224.499L416.711 226.538Z" fill="#FCFCFC"/>
<rect x="628.211" y="179.489" width="188.082" height="76.6154" rx="38.3077" fill="#00312D"/>
<path d="M690.55 209.403H686.764L685.638 212.797H683.239L687.302 201.538H690.125L694.107 212.797H691.659L690.55 209.403ZM688.673 203.463L687.335 207.624H689.978L688.673 203.463ZM707.614 201.538V212.797H705.362V207.592C705.362 206.417 705.362 204.916 705.395 203.741C705.117 204.916 704.709 206.417 704.35 207.575L702.768 212.797H700.32L698.705 207.559C698.362 206.417 697.954 204.916 697.693 203.757C697.726 204.932 697.726 206.417 697.726 207.592V212.797H695.474V201.538H699.031L701.576 210.725L704.122 201.538H707.614ZM718.276 209.958C718.423 211.328 718.635 212.161 719.092 212.797H716.628C716.351 212.03 716.188 211.345 716.074 210.284C715.927 209.077 715.47 208.342 714.556 208.277C714.246 208.261 713.969 208.261 713.675 208.261H712.37V212.797H710.118V201.538H714.23C714.882 201.538 715.307 201.554 715.862 201.62C717.493 201.815 718.815 202.664 718.815 204.606C718.815 206.058 717.95 206.972 716.612 207.347C717.722 207.771 718.146 208.701 718.276 209.958ZM712.37 206.58H713.92C714.311 206.58 714.589 206.58 714.834 206.564C715.731 206.482 716.449 206.042 716.449 204.948C716.449 203.855 715.845 203.463 714.964 203.349C714.703 203.317 714.426 203.3 714.018 203.3H712.37V206.58ZM726.217 203.3V206.27H731.357V208.049H726.217V212.797H723.965V201.538H731.928V203.3H726.217ZM735.4 200.804V209.958C735.4 210.3 735.4 210.529 735.416 210.757C735.465 211.198 735.661 211.345 736.428 211.296V212.846C735.987 212.895 735.547 212.911 735.041 212.911C733.931 212.911 733.23 212.503 733.181 211.377C733.148 210.986 733.148 210.578 733.148 210.007V200.804H735.4ZM745.652 208.277C745.652 208.489 745.652 208.75 745.619 209.044H739.451C739.598 210.871 740.414 211.443 741.458 211.443C742.421 211.443 743.123 210.904 743.27 209.974H745.521C745.081 211.997 743.449 213.025 741.409 213.025C739.027 213.025 737.183 211.54 737.183 208.489C737.183 205.829 738.929 203.888 741.589 203.888C744.249 203.888 745.652 205.911 745.652 208.277ZM741.491 205.47C740.447 205.47 739.712 206.139 739.517 207.575H743.335C743.188 206.205 742.568 205.47 741.491 205.47ZM755.085 208.277C755.085 208.489 755.085 208.75 755.053 209.044H748.885C749.032 210.871 749.847 211.443 750.892 211.443C751.854 211.443 752.556 210.904 752.703 209.974H754.955C754.514 211.997 752.882 213.025 750.843 213.025C748.46 213.025 746.617 211.54 746.617 208.489C746.617 205.829 748.363 203.888 751.022 203.888C753.682 203.888 755.085 205.911 755.085 208.277ZM750.924 205.47C749.88 205.47 749.146 206.139 748.95 207.575H752.768C752.621 206.205 752.001 205.47 750.924 205.47ZM759.33 205.666V209.68C759.33 209.974 759.33 210.219 759.346 210.447C759.411 211.296 759.721 211.491 760.978 211.394V212.862C760.472 212.944 759.999 212.976 759.493 212.976C757.812 212.976 757.209 212.422 757.111 211.198C757.078 210.806 757.078 210.431 757.078 209.941V205.666H755.805V204.181H757.078V202.044H759.33V204.181H761.125V205.666H759.33ZM701.216 223.538V234.797H698.964V229.592C698.964 228.417 698.964 226.916 698.997 225.741C698.719 226.916 698.312 228.417 697.953 229.575L696.37 234.797H693.922L692.307 229.559C691.964 228.417 691.556 226.916 691.295 225.757C691.328 226.932 691.328 228.417 691.328 229.592V234.797H689.076V223.538H692.633L695.179 232.725L697.724 223.538H701.216ZM708.338 234.797L708.175 233.524L707.75 234.454C707.147 234.862 706.412 235.025 705.597 235.025C704.095 235.025 702.806 234.144 702.806 232.496C702.806 230.587 704.438 229.51 707.587 229.51H708.142V229.331C708.142 229.07 708.142 228.808 708.109 228.515C708.044 227.911 707.653 227.47 706.771 227.47C705.874 227.47 705.384 227.993 705.319 228.939L703.133 228.955C703.198 226.997 704.781 225.888 706.853 225.888C709.284 225.888 710.198 226.948 710.329 228.449C710.361 228.857 710.377 229.314 710.377 229.787V232.594C710.377 233.247 710.41 233.834 710.541 234.797H708.338ZM706.461 233.443C707.375 233.443 708.142 232.806 708.142 231.599V230.897C706.347 230.767 705.14 231.174 705.14 232.317C705.14 233.084 705.662 233.443 706.461 233.443ZM720.552 228.319C720.601 228.76 720.617 229.2 720.617 229.902V234.797H718.365V230.212C718.365 229.853 718.365 229.445 718.332 229.004C718.267 228.091 717.761 227.47 716.668 227.47C715.575 227.47 714.71 228.417 714.71 230.832V234.797H712.458V226.116H714.71V227.519L715.379 226.491C715.999 226.051 716.636 225.888 717.468 225.888C719.312 225.888 720.372 226.801 720.552 228.319ZM727.635 234.797L727.472 233.524L727.047 234.454C726.444 234.862 725.709 235.025 724.894 235.025C723.392 235.025 722.103 234.144 722.103 232.496C722.103 230.587 723.735 229.51 726.884 229.51H727.439V229.331C727.439 229.07 727.439 228.808 727.406 228.515C727.341 227.911 726.949 227.47 726.068 227.47C725.171 227.47 724.681 227.993 724.616 228.939L722.43 228.955C722.495 226.997 724.078 225.888 726.15 225.888C728.581 225.888 729.495 226.948 729.626 228.449C729.658 228.857 729.674 229.314 729.674 229.787V232.594C729.674 233.247 729.707 233.834 729.838 234.797H727.635ZM725.758 233.443C726.672 233.443 727.439 232.806 727.439 231.599V230.897C725.644 230.767 724.437 231.174 724.437 232.317C724.437 233.084 724.959 233.443 725.758 233.443ZM740.191 226.116V232.627C740.191 233.165 740.191 233.834 740.175 234.307C740.077 237.016 738.315 238.321 735.574 238.321C733.028 238.321 731.608 237.261 731.413 235.352L731.396 235.188H733.583L733.599 235.335C733.697 236.135 734.448 236.641 735.606 236.641C736.993 236.641 737.842 235.939 737.923 234.552C737.94 234.226 737.94 233.867 737.94 233.491V233.279L737.287 234.242C736.797 234.617 736.014 234.846 735.133 234.846C732.685 234.846 731.168 233.1 731.168 230.554C731.168 227.405 733.093 225.888 735.329 225.888C736.047 225.888 736.928 226.067 737.368 226.377L737.94 227.275V226.116H740.191ZM735.688 233.263C736.928 233.263 737.94 232.496 737.94 230.375V230.13C737.94 228.172 736.814 227.47 735.769 227.47C734.464 227.47 733.501 228.368 733.501 230.359C733.501 232.137 734.35 233.263 735.688 233.263ZM750.153 230.277C750.153 230.489 750.153 230.75 750.121 231.044H743.953C744.1 232.871 744.916 233.443 745.96 233.443C746.923 233.443 747.624 232.904 747.771 231.974H750.023C749.582 233.997 747.951 235.025 745.911 235.025C743.529 235.025 741.685 233.54 741.685 230.489C741.685 227.829 743.431 225.888 746.09 225.888C748.75 225.888 750.153 227.911 750.153 230.277ZM745.993 227.47C744.948 227.47 744.214 228.139 744.018 229.575H747.836C747.69 228.205 747.069 227.47 745.993 227.47ZM756.128 225.904C756.389 225.904 756.568 225.92 756.764 225.969V227.78C754.887 227.65 753.957 228.482 753.957 230.815V234.797H751.706V226.116H753.957V227.699L754.643 226.491C755.067 226.1 755.638 225.904 756.128 225.904Z" fill="#FCFCFC"/>
<rect x="836.258" y="179.489" width="188.082" height="76.6154" rx="38.3077" fill="#00312D"/>
<path d="M899.752 209.403H895.966L894.84 212.797H892.442L896.505 201.538H899.327L903.309 212.797H900.861L899.752 209.403ZM897.875 203.463L896.537 207.624H899.181L897.875 203.463ZM909.577 207.053H914.113V212.797H912.302L912.155 210.969L911.65 212.112C911.013 212.732 910.148 213.025 908.908 213.025C905.775 213.025 903.801 210.806 903.801 207.233C903.801 203.545 906.2 201.31 909.349 201.31C912.4 201.31 913.983 202.974 914.211 205.193L914.228 205.356H911.976L911.943 205.193C911.666 203.806 910.817 202.99 909.316 202.99C907.489 202.99 906.183 204.54 906.183 207.102C906.183 209.909 907.489 211.345 909.251 211.345C910.703 211.345 911.731 210.398 911.96 208.815H909.577V207.053ZM922.326 212.797H919.503L915.522 201.538H917.969L920.955 211.067L923.99 201.538H926.389L922.326 212.797ZM933.109 203.3V206.27H938.248V208.049H933.109V212.797H930.857V201.538H938.82V203.3H933.109ZM942.291 200.804V209.958C942.291 210.3 942.291 210.529 942.308 210.757C942.357 211.198 942.553 211.345 943.319 211.296V212.846C942.879 212.895 942.438 212.911 941.932 212.911C940.823 212.911 940.121 212.503 940.072 211.377C940.04 210.986 940.04 210.578 940.04 210.007V200.804H942.291ZM952.543 208.277C952.543 208.489 952.543 208.75 952.511 209.044H946.343C946.49 210.871 947.306 211.443 948.35 211.443C949.313 211.443 950.014 210.904 950.161 209.974H952.413C951.972 211.997 950.341 213.025 948.301 213.025C945.919 213.025 944.075 211.54 944.075 208.489C944.075 205.829 945.821 203.888 948.481 203.888C951.14 203.888 952.543 205.911 952.543 208.277ZM948.383 205.47C947.338 205.47 946.604 206.139 946.408 207.575H950.226C950.08 206.205 949.46 205.47 948.383 205.47ZM961.977 208.277C961.977 208.489 961.977 208.75 961.944 209.044H955.776C955.923 210.871 956.739 211.443 957.783 211.443C958.746 211.443 959.448 210.904 959.595 209.974H961.846C961.406 211.997 959.774 213.025 957.734 213.025C955.352 213.025 953.508 211.54 953.508 208.489C953.508 205.829 955.254 203.888 957.914 203.888C960.574 203.888 961.977 205.911 961.977 208.277ZM957.816 205.47C956.772 205.47 956.037 206.139 955.842 207.575H959.66C959.513 206.205 958.893 205.47 957.816 205.47ZM966.221 205.666V209.68C966.221 209.974 966.221 210.219 966.238 210.447C966.303 211.296 966.613 211.491 967.869 211.394V212.862C967.364 212.944 966.89 212.976 966.385 212.976C964.704 212.976 964.1 212.422 964.002 211.198C963.97 210.806 963.97 210.431 963.97 209.941V205.666H962.697V204.181H963.97V202.044H966.221V204.181H968.016V205.666H966.221ZM909.263 223.538V234.797H907.011V229.592C907.011 228.417 907.011 226.916 907.044 225.741C906.766 226.916 906.358 228.417 905.999 229.575L904.417 234.797H901.969L900.354 229.559C900.011 228.417 899.603 226.916 899.342 225.757C899.375 226.932 899.375 228.417 899.375 229.592V234.797H897.123V223.538H900.68L903.226 232.725L905.771 223.538H909.263ZM916.385 234.797L916.222 233.524L915.797 234.454C915.194 234.862 914.459 235.025 913.643 235.025C912.142 235.025 910.853 234.144 910.853 232.496C910.853 230.587 912.485 229.51 915.634 229.51H916.189V229.331C916.189 229.07 916.189 228.808 916.156 228.515C916.091 227.911 915.699 227.47 914.818 227.47C913.921 227.47 913.431 227.993 913.366 228.939L911.18 228.955C911.245 226.997 912.828 225.888 914.9 225.888C917.331 225.888 918.245 226.948 918.375 228.449C918.408 228.857 918.424 229.314 918.424 229.787V232.594C918.424 233.247 918.457 233.834 918.588 234.797H916.385ZM914.508 233.443C915.422 233.443 916.189 232.806 916.189 231.599V230.897C914.394 230.767 913.187 231.174 913.187 232.317C913.187 233.084 913.709 233.443 914.508 233.443ZM928.599 228.319C928.647 228.76 928.664 229.2 928.664 229.902V234.797H926.412V230.212C926.412 229.853 926.412 229.445 926.379 229.004C926.314 228.091 925.808 227.47 924.715 227.47C923.622 227.47 922.757 228.417 922.757 230.832V234.797H920.505V226.116H922.757V227.519L923.426 226.491C924.046 226.051 924.682 225.888 925.515 225.888C927.358 225.888 928.419 226.801 928.599 228.319ZM935.682 234.797L935.519 233.524L935.094 234.454C934.491 234.862 933.756 235.025 932.94 235.025C931.439 235.025 930.15 234.144 930.15 232.496C930.15 230.587 931.782 229.51 934.931 229.51H935.486V229.331C935.486 229.07 935.486 228.808 935.453 228.515C935.388 227.911 934.996 227.47 934.115 227.47C933.218 227.47 932.728 227.993 932.663 228.939L930.477 228.955C930.542 226.997 932.125 225.888 934.197 225.888C936.628 225.888 937.542 226.948 937.672 228.449C937.705 228.857 937.721 229.314 937.721 229.787V232.594C937.721 233.247 937.754 233.834 937.885 234.797H935.682ZM933.805 233.443C934.719 233.443 935.486 232.806 935.486 231.599V230.897C933.691 230.767 932.484 231.174 932.484 232.317C932.484 233.084 933.006 233.443 933.805 233.443ZM948.238 226.116V232.627C948.238 233.165 948.238 233.834 948.222 234.307C948.124 237.016 946.362 238.321 943.62 238.321C941.075 238.321 939.655 237.261 939.46 235.352L939.443 235.188H941.63L941.646 235.335C941.744 236.135 942.495 236.641 943.653 236.641C945.04 236.641 945.888 235.939 945.97 234.552C945.986 234.226 945.986 233.867 945.986 233.491V233.279L945.334 234.242C944.844 234.617 944.061 234.846 943.18 234.846C940.732 234.846 939.215 233.1 939.215 230.554C939.215 227.405 941.14 225.888 943.376 225.888C944.094 225.888 944.975 226.067 945.415 226.377L945.986 227.275V226.116H948.238ZM943.735 233.263C944.975 233.263 945.986 232.496 945.986 230.375V230.13C945.986 228.172 944.861 227.47 943.816 227.47C942.511 227.47 941.548 228.368 941.548 230.359C941.548 232.137 942.397 233.263 943.735 233.263ZM958.2 230.277C958.2 230.489 958.2 230.75 958.168 231.044H952C952.147 232.871 952.962 233.443 954.007 233.443C954.97 233.443 955.671 232.904 955.818 231.974H958.07C957.629 233.997 955.997 235.025 953.958 235.025C951.576 235.025 949.732 233.54 949.732 230.489C949.732 227.829 951.478 225.888 954.137 225.888C956.797 225.888 958.2 227.911 958.2 230.277ZM954.039 227.47C952.995 227.47 952.261 228.139 952.065 229.575H955.883C955.736 228.205 955.116 227.47 954.039 227.47ZM964.174 225.904C964.436 225.904 964.615 225.92 964.811 225.969V227.78C962.934 227.65 962.004 228.482 962.004 230.815V234.797H959.752V226.116H962.004V227.699L962.69 226.491C963.114 226.1 963.685 225.904 964.174 225.904Z" fill="#FCFCFC"/>
<rect x="1124.53" y="189.008" width="188.082" height="67.6154" rx="33.8077" fill="#00312D"/>
<path d="M1204.05 217.057L1201.06 228.315H1198.07L1196.15 218.949L1194.13 228.315H1191.12L1188.3 217.057H1190.73L1192.62 226.586L1194.62 217.22H1197.78L1199.71 226.618L1201.73 217.057H1204.05ZM1210.33 216.828C1213.38 216.828 1214.97 218.492 1215.19 220.712L1215.21 220.875H1212.96L1212.93 220.712C1212.65 219.325 1211.8 218.509 1210.3 218.509C1208.49 218.509 1207.26 220.059 1207.26 222.621C1207.26 225.427 1208.55 226.863 1210.27 226.863C1211.74 226.863 1212.58 225.982 1212.88 224.579L1212.91 224.416H1215.15L1215.13 224.579C1214.88 226.977 1213.06 228.544 1210.17 228.544C1207.04 228.544 1204.88 226.341 1204.88 222.751C1204.88 219.064 1207.22 216.828 1210.33 216.828ZM1220.95 216.828C1223.64 216.828 1224.87 218.362 1225.11 220.369H1222.81C1222.68 219.227 1222.04 218.509 1220.87 218.509C1219.97 218.509 1219.29 218.933 1219.29 219.847C1219.29 220.793 1219.89 221.266 1221.69 221.691C1224.17 222.262 1225.27 223.404 1225.27 225.215C1225.27 227.336 1223.33 228.544 1221.11 228.544C1218.42 228.544 1216.66 227.353 1216.45 224.987H1218.75C1218.99 226.227 1219.94 226.863 1221.08 226.863C1222.11 226.863 1222.93 226.308 1222.93 225.444C1222.93 224.497 1222.34 223.942 1220.67 223.551C1218.37 222.996 1216.92 222.196 1216.92 220.124C1216.92 218.052 1218.8 216.828 1220.95 216.828ZM1236.24 221.74L1235.83 223.632H1237.43V224.905H1235.57L1234.83 228.315H1233.48L1234.21 224.905H1232.78L1232.04 228.315H1230.69L1231.42 224.905H1230.02V223.632H1231.68L1232.09 221.74H1230.51V220.467H1232.35L1233.09 217.057H1234.44L1233.71 220.467H1235.14L1235.88 217.057H1237.23L1236.5 220.467H1237.92V221.74H1236.24ZM1234.88 221.74H1233.45L1233.04 223.632H1234.47L1234.88 221.74ZM1246.07 222.36C1247.59 222.702 1248.42 223.6 1248.42 225.068C1248.42 227.19 1246.6 228.544 1244.07 228.544C1241.52 228.544 1239.94 227.353 1239.69 225.019L1239.68 224.856H1241.93L1241.96 225.019C1242.13 226.162 1242.91 226.863 1244.05 226.863C1245.24 226.863 1246.04 226.178 1246.04 225.15C1246.04 224.024 1245.28 223.42 1243.81 223.388H1243.43V221.821L1243.81 221.805C1245 221.756 1245.78 221.087 1245.78 220.026C1245.78 219.113 1245.18 218.509 1244.18 218.509C1243.17 218.509 1242.55 219.227 1242.44 220.287L1242.42 220.451H1240.18L1240.2 220.287C1240.4 218.329 1241.8 216.828 1244.43 216.828C1246.87 216.828 1248.16 218.117 1248.16 219.765C1248.16 221.071 1247.43 222.001 1246.07 222.36Z" fill="#FCFCFC"/>
<rect x="1427.75" y="187.648" width="188.082" height="67.6154" rx="33.8077" fill="#00312D"/>
<path d="M1507.27 215.697L1504.29 226.956H1501.3L1499.38 217.59L1497.35 226.956H1494.35L1491.53 215.697H1493.96L1495.85 225.226L1497.84 215.86H1501.01L1502.93 225.259L1504.96 215.697H1507.27ZM1513.56 215.469C1516.61 215.469 1518.19 217.133 1518.42 219.352L1518.44 219.515H1516.19L1516.15 219.352C1515.88 217.965 1515.03 217.149 1513.53 217.149C1511.71 217.149 1510.49 218.7 1510.49 221.261C1510.49 224.068 1511.78 225.504 1513.49 225.504C1514.96 225.504 1515.81 224.623 1516.1 223.219L1516.14 223.056H1518.37L1518.36 223.219C1518.11 225.618 1516.28 227.184 1513.4 227.184C1510.26 227.184 1508.11 224.982 1508.11 221.392C1508.11 217.704 1510.44 215.469 1513.56 215.469ZM1524.18 215.469C1526.87 215.469 1528.09 217.003 1528.34 219.01H1526.04C1525.91 217.867 1525.27 217.149 1524.1 217.149C1523.2 217.149 1522.51 217.574 1522.51 218.487C1522.51 219.434 1523.12 219.907 1524.91 220.331C1527.39 220.902 1528.5 222.045 1528.5 223.856C1528.5 225.977 1526.56 227.184 1524.34 227.184C1521.65 227.184 1519.89 225.993 1519.67 223.627H1521.97C1522.22 224.867 1523.17 225.504 1524.31 225.504C1525.34 225.504 1526.15 224.949 1526.15 224.084C1526.15 223.138 1525.56 222.583 1523.9 222.191C1521.6 221.637 1520.15 220.837 1520.15 218.765C1520.15 216.693 1522.02 215.469 1524.18 215.469ZM1539.46 220.38L1539.05 222.273H1540.65V223.546H1538.79L1538.06 226.956H1536.7L1537.44 223.546H1536L1535.27 226.956H1533.91L1534.65 223.546H1533.25V222.273H1534.91L1535.32 220.38H1533.73V219.107H1535.58L1536.31 215.697H1537.67L1536.93 219.107H1538.37L1539.1 215.697H1540.46L1539.72 219.107H1541.14V220.38H1539.46ZM1538.11 220.38H1536.67L1536.26 222.273H1537.7L1538.11 220.38ZM1551.93 224.296H1550.54V226.956H1548.29V224.296H1542.87V223.089L1548.14 215.697H1550.54V222.518H1551.93V224.296ZM1548.29 222.518V218.243C1548.05 218.667 1547.8 219.059 1547.54 219.434L1545.34 222.518H1548.29Z" fill="#FCFCFC"/>
<rect x="497.676" y="307.308" width="165.891" height="67.9883" rx="33.9942" fill="white"/>
<path d="M528.018 346.802H525.768V335.549H528.018V346.802ZM538.194 340.328C538.243 340.768 538.26 341.208 538.26 341.909V346.802H536.009V342.219C536.009 341.861 536.009 341.453 535.976 341.013C535.911 340.099 535.406 339.48 534.313 339.48C533.22 339.48 532.356 340.425 532.356 342.839V346.802H530.106V338.126H532.356V339.529L533.025 338.501C533.644 338.061 534.28 337.898 535.112 337.898C536.955 337.898 538.015 338.811 538.194 340.328ZM548.665 334.816V346.802H546.415V345.465L545.763 346.427C545.273 346.802 544.393 347.03 543.512 347.03C541.082 347.03 539.647 345.187 539.647 342.627C539.647 339.48 541.572 337.898 543.806 337.898C544.523 337.898 545.404 338.077 545.844 338.387L546.415 339.284V334.816H548.665ZM544.164 345.448C545.404 345.448 546.415 344.682 546.415 342.562V342.138C546.415 340.181 545.29 339.48 544.246 339.48C542.941 339.48 541.979 340.474 541.979 342.48C541.979 344.258 542.827 345.448 544.164 345.448ZM558.752 338.126V346.802H556.502V345.334L555.833 346.443C555.197 346.867 554.577 347.03 553.746 347.03C551.952 347.03 550.876 346.019 550.68 344.829C550.615 344.388 550.598 343.948 550.598 343.247V338.126H552.849V342.774C552.849 343.051 552.865 343.524 552.914 343.964C553.028 344.861 553.55 345.432 554.594 345.432C555.719 345.432 556.502 344.502 556.502 342.545V338.126H558.752ZM563.924 337.898C565.995 337.898 567.17 339.056 567.365 340.637H565.115C564.968 339.838 564.528 339.382 563.778 339.382C563.109 339.382 562.75 339.773 562.75 340.311C562.75 340.964 563.288 341.306 564.723 341.665C566.501 342.121 567.545 342.839 567.545 344.437C567.545 346.182 565.963 347.03 563.973 347.03C561.87 347.03 560.386 346.117 560.141 344.16H562.391C562.571 345.106 563.223 345.546 564.006 345.546C564.723 345.546 565.278 345.236 565.278 344.6C565.278 343.932 564.707 343.557 563.207 343.181C561.592 342.774 560.483 342.073 560.483 340.572C560.483 338.909 561.853 337.898 563.924 337.898ZM571.623 339.675V343.687C571.623 343.981 571.623 344.225 571.639 344.453C571.704 345.301 572.014 345.497 573.27 345.399V346.867C572.764 346.949 572.291 346.981 571.786 346.981C570.106 346.981 569.503 346.427 569.405 345.204C569.372 344.812 569.372 344.437 569.372 343.948V339.675H568.1V338.191H569.372V336.055H571.623V338.191H573.417V339.675H571.623ZM579.244 337.914C579.505 337.914 579.684 337.93 579.88 337.979V339.789C578.004 339.659 577.075 340.491 577.075 342.823V346.802H574.824V338.126H577.075V339.708L577.76 338.501C578.184 338.11 578.755 337.914 579.244 337.914ZM582.145 334.897C582.878 334.897 583.384 335.386 583.384 336.088C583.384 336.805 582.878 337.278 582.145 337.278C581.411 337.278 580.905 336.805 580.905 336.088C580.905 335.386 581.411 334.897 582.145 334.897ZM583.27 346.802H581.019V338.126H583.27V346.802ZM590.39 346.802L590.227 345.53L589.803 346.459C589.2 346.867 588.466 347.03 587.651 347.03C586.15 347.03 584.862 346.149 584.862 344.502C584.862 342.594 586.493 341.518 589.64 341.518H590.195V341.339C590.195 341.078 590.195 340.817 590.162 340.523C590.097 339.92 589.705 339.48 588.825 339.48C587.928 339.48 587.439 340.001 587.373 340.947L585.188 340.964C585.253 339.007 586.835 337.898 588.906 337.898C591.336 337.898 592.249 338.958 592.38 340.458C592.412 340.866 592.429 341.322 592.429 341.795V344.6C592.429 345.253 592.461 345.84 592.592 346.802H590.39ZM588.515 345.448C589.428 345.448 590.195 344.812 590.195 343.605V342.904C588.401 342.774 587.194 343.181 587.194 344.323C587.194 345.089 587.716 345.448 588.515 345.448ZM596.694 334.816V343.964C596.694 344.307 596.694 344.535 596.71 344.763C596.759 345.204 596.954 345.35 597.721 345.301V346.851C597.281 346.9 596.84 346.916 596.335 346.916C595.226 346.916 594.525 346.508 594.476 345.383C594.443 344.992 594.443 344.584 594.443 344.013V334.816H596.694ZM608.755 343.41H604.972L603.847 346.802H601.449L605.51 335.549H608.331L612.31 346.802H609.864L608.755 343.41ZM606.88 337.474L605.543 341.632H608.184L606.88 337.474ZM617.672 337.914C617.933 337.914 618.112 337.93 618.308 337.979V339.789C616.433 339.659 615.503 340.491 615.503 342.823V346.802H613.253V338.126H615.503V339.708L616.188 338.501C616.612 338.11 617.183 337.914 617.672 337.914ZM627.245 342.285C627.245 342.497 627.245 342.757 627.212 343.051H621.048C621.194 344.877 622.01 345.448 623.053 345.448C624.016 345.448 624.717 344.91 624.864 343.981H627.114C626.674 346.003 625.043 347.03 623.005 347.03C620.624 347.03 618.781 345.546 618.781 342.497C618.781 339.838 620.526 337.898 623.184 337.898C625.842 337.898 627.245 339.92 627.245 342.285ZM623.086 339.48C622.042 339.48 621.309 340.148 621.113 341.583H624.929C624.782 340.213 624.162 339.48 623.086 339.48ZM633.835 346.802L633.672 345.53L633.248 346.459C632.644 346.867 631.911 347.03 631.095 347.03C629.595 347.03 628.307 346.149 628.307 344.502C628.307 342.594 629.937 341.518 633.085 341.518H633.639V341.339C633.639 341.078 633.639 340.817 633.607 340.523C633.541 339.92 633.15 339.48 632.269 339.48C631.372 339.48 630.883 340.001 630.818 340.947L628.633 340.964C628.698 339.007 630.28 337.898 632.351 337.898C634.781 337.898 635.694 338.958 635.824 340.458C635.857 340.866 635.873 341.322 635.873 341.795V344.6C635.873 345.253 635.906 345.84 636.036 346.802H633.835ZM631.96 345.448C632.873 345.448 633.639 344.812 633.639 343.605V342.904C631.845 342.774 630.639 343.181 630.639 344.323C630.639 345.089 631.16 345.448 631.96 345.448Z" fill="#00312D"/>
<rect x="681.242" y="307.308" width="165.891" height="67.9883" rx="33.9942" fill="white"/>
<path d="M753.575 343.41H749.792L748.666 346.802H746.269L750.33 335.549H753.151L757.13 346.802H754.684L753.575 343.41ZM751.7 337.474L750.362 341.632H753.004L751.7 337.474ZM770.629 335.549V346.802H768.379V341.6C768.379 340.425 768.379 338.925 768.411 337.751C768.134 338.925 767.726 340.425 767.368 341.583L765.786 346.802H763.34L761.725 341.567C761.383 340.425 760.975 338.925 760.714 337.767C760.747 338.941 760.747 340.425 760.747 341.6V346.802H758.496V335.549H762.051L764.595 344.731L767.139 335.549H770.629ZM781.286 343.964C781.432 345.334 781.644 346.166 782.101 346.802H779.639C779.361 346.035 779.198 345.35 779.084 344.29C778.937 343.084 778.481 342.35 777.568 342.285C777.258 342.268 776.98 342.268 776.687 342.268H775.382V346.802H773.132V335.549H777.241C777.894 335.549 778.318 335.566 778.872 335.631C780.503 335.827 781.824 336.675 781.824 338.615C781.824 340.067 780.96 340.98 779.622 341.355C780.731 341.779 781.155 342.709 781.286 343.964ZM775.382 340.589H776.932C777.323 340.589 777.6 340.589 777.845 340.572C778.742 340.491 779.459 340.05 779.459 338.958C779.459 337.865 778.856 337.474 777.975 337.36C777.714 337.327 777.437 337.311 777.029 337.311H775.382V340.589Z" fill="#00312D"/>
<rect x="1093.25" y="307.308" width="165.891" height="67.9883" rx="33.9942" fill="white"/>
<path d="M1145.07 335.321C1148.12 335.321 1149.7 336.985 1149.93 339.202L1149.94 339.365H1147.69L1147.66 339.202C1147.38 337.816 1146.54 337.001 1145.04 337.001C1143.23 337.001 1142 338.55 1142 341.11C1142 343.915 1143.29 345.35 1145 345.35C1146.47 345.35 1147.32 344.47 1147.61 343.067L1147.65 342.904H1149.88L1149.86 343.067C1149.62 345.465 1147.79 347.03 1144.91 347.03C1141.77 347.03 1139.62 344.829 1139.62 341.241C1139.62 337.555 1141.95 335.321 1145.07 335.321ZM1155.44 337.898C1158.32 337.898 1159.94 339.822 1159.94 342.464C1159.94 345.089 1158.32 347.03 1155.44 347.03C1152.55 347.03 1150.94 345.089 1150.94 342.464C1150.94 339.822 1152.55 337.898 1155.44 337.898ZM1155.44 345.448C1156.79 345.448 1157.61 344.323 1157.61 342.464C1157.61 340.589 1156.79 339.48 1155.44 339.48C1154.08 339.48 1153.27 340.589 1153.27 342.464C1153.27 344.323 1154.08 345.448 1155.44 345.448ZM1169.5 340.328C1169.55 340.768 1169.57 341.208 1169.57 341.909V346.802H1167.32V342.219C1167.32 341.861 1167.32 341.453 1167.28 341.013C1167.22 340.099 1166.71 339.48 1165.62 339.48C1164.53 339.48 1163.66 340.425 1163.66 342.839V346.802H1161.41V338.126H1163.66V339.529L1164.33 338.501C1164.95 338.061 1165.59 337.898 1166.42 337.898C1168.26 337.898 1169.32 338.811 1169.5 340.328ZM1179.76 338.126L1176.4 346.802H1173.89L1170.51 338.126H1173.01L1175.19 345.106L1177.33 338.126H1179.76ZM1188.37 342.285C1188.37 342.497 1188.37 342.757 1188.34 343.051H1182.17C1182.32 344.877 1183.13 345.448 1184.18 345.448C1185.14 345.448 1185.84 344.91 1185.99 343.981H1188.24C1187.8 346.003 1186.17 347.03 1184.13 347.03C1181.75 347.03 1179.9 345.546 1179.9 342.497C1179.9 339.838 1181.65 337.898 1184.31 337.898C1186.97 337.898 1188.37 339.92 1188.37 342.285ZM1184.21 339.48C1183.17 339.48 1182.43 340.148 1182.24 341.583H1186.05C1185.91 340.213 1185.29 339.48 1184.21 339.48ZM1197.84 338.126L1194.35 347.128C1193.43 349.476 1192.49 350.226 1190.73 350.226C1190.32 350.226 1190.04 350.21 1189.71 350.161V348.612C1189.94 348.645 1190.15 348.645 1190.38 348.645C1191.15 348.645 1191.66 348.351 1192.01 347.487L1192.13 347.209L1188.59 338.126H1191.1L1193.25 345.089L1195.37 338.126H1197.84ZM1202.46 337.898C1205.35 337.898 1206.97 339.822 1206.97 342.464C1206.97 345.089 1205.35 347.03 1202.46 347.03C1199.58 347.03 1197.96 345.089 1197.96 342.464C1197.96 339.822 1199.58 337.898 1202.46 337.898ZM1202.46 345.448C1203.82 345.448 1204.63 344.323 1204.63 342.464C1204.63 340.589 1203.82 339.48 1202.46 339.48C1201.11 339.48 1200.3 340.589 1200.3 342.464C1200.3 344.323 1201.11 345.448 1202.46 345.448ZM1212.86 337.914C1213.12 337.914 1213.3 337.93 1213.5 337.979V339.789C1211.62 339.659 1210.69 340.491 1210.69 342.823V346.802H1208.44V338.126H1210.69V339.708L1211.38 338.501C1211.8 338.11 1212.37 337.914 1212.86 337.914Z" fill="#00312D"/>
<rect x="1291.78" y="307.308" width="165.891" height="67.9883" rx="33.9942" fill="white"/>
<path d="M1341.24 335.631C1342.96 335.827 1344.28 336.985 1344.28 339.056C1344.28 341.127 1342.87 342.285 1341.24 342.48C1340.69 342.545 1340.27 342.562 1339.61 342.562H1337.97V346.802H1335.72V335.549H1339.61C1340.27 335.549 1340.69 335.566 1341.24 335.631ZM1340.58 340.735C1341.36 340.621 1341.91 340.116 1341.91 339.056C1341.91 337.996 1341.36 337.49 1340.58 337.376C1340.33 337.343 1339.99 337.327 1339.58 337.327H1337.97V340.784H1339.58C1339.99 340.784 1340.33 340.768 1340.58 340.735ZM1350.49 346.802L1350.33 345.53L1349.9 346.459C1349.3 346.867 1348.57 347.03 1347.75 347.03C1346.25 347.03 1344.96 346.149 1344.96 344.502C1344.96 342.594 1346.59 341.518 1349.74 341.518H1350.3V341.339C1350.3 341.078 1350.3 340.817 1350.26 340.523C1350.2 339.92 1349.81 339.48 1348.93 339.48C1348.03 339.48 1347.54 340.001 1347.47 340.947L1345.29 340.964C1345.35 339.007 1346.94 337.898 1349.01 337.898C1351.44 337.898 1352.35 338.958 1352.48 340.458C1352.51 340.866 1352.53 341.322 1352.53 341.795V344.6C1352.53 345.253 1352.56 345.84 1352.69 346.802H1350.49ZM1348.62 345.448C1349.53 345.448 1350.3 344.812 1350.3 343.605V342.904C1348.5 342.774 1347.29 343.181 1347.29 344.323C1347.29 345.089 1347.82 345.448 1348.62 345.448ZM1356.79 334.816V343.964C1356.79 344.307 1356.79 344.535 1356.81 344.763C1356.86 345.204 1357.06 345.35 1357.82 345.301V346.851C1357.38 346.9 1356.94 346.916 1356.44 346.916C1355.33 346.916 1354.63 346.508 1354.58 345.383C1354.54 344.992 1354.54 344.584 1354.54 344.013V334.816H1356.79ZM1361.35 334.816V343.964C1361.35 344.307 1361.35 344.535 1361.37 344.763C1361.41 345.204 1361.61 345.35 1362.38 345.301V346.851C1361.94 346.9 1361.5 346.916 1360.99 346.916C1359.88 346.916 1359.18 346.508 1359.13 345.383C1359.1 344.992 1359.1 344.584 1359.1 344.013V334.816H1361.35ZM1371.59 342.285C1371.59 342.497 1371.59 342.757 1371.56 343.051H1365.4C1365.54 344.877 1366.36 345.448 1367.4 345.448C1368.37 345.448 1369.07 344.91 1369.21 343.981H1371.46C1371.02 346.003 1369.39 347.03 1367.35 347.03C1364.97 347.03 1363.13 345.546 1363.13 342.497C1363.13 339.838 1364.88 337.898 1367.53 337.898C1370.19 337.898 1371.59 339.92 1371.59 342.285ZM1367.44 339.48C1366.39 339.48 1365.66 340.148 1365.46 341.583H1369.28C1369.13 340.213 1368.51 339.48 1367.44 339.48ZM1375.84 339.675V343.687C1375.84 343.981 1375.84 344.225 1375.85 344.453C1375.92 345.301 1376.23 345.497 1377.48 345.399V346.867C1376.98 346.949 1376.51 346.981 1376 346.981C1374.32 346.981 1373.72 346.427 1373.62 345.204C1373.59 344.812 1373.59 344.437 1373.59 343.948V339.675H1372.31V338.191H1373.59V336.055H1375.84V338.191H1377.63V339.675H1375.84ZM1386.77 342.285C1386.77 342.497 1386.77 342.757 1386.74 343.051H1380.58C1380.72 344.877 1381.54 345.448 1382.58 345.448C1383.54 345.448 1384.24 344.91 1384.39 343.981H1386.64C1386.2 346.003 1384.57 347.03 1382.53 347.03C1380.15 347.03 1378.31 345.546 1378.31 342.497C1378.31 339.838 1380.05 337.898 1382.71 337.898C1385.37 337.898 1386.77 339.92 1386.77 342.285ZM1382.61 339.48C1381.57 339.48 1380.84 340.148 1380.64 341.583H1384.46C1384.31 340.213 1383.69 339.48 1382.61 339.48ZM1389.45 334.897C1390.18 334.897 1390.69 335.386 1390.69 336.088C1390.69 336.805 1390.18 337.278 1389.45 337.278C1388.71 337.278 1388.21 336.805 1388.21 336.088C1388.21 335.386 1388.71 334.897 1389.45 334.897ZM1390.57 346.802H1388.32V338.126H1390.57V346.802ZM1399.26 345.301V346.802H1392.08V345.383L1396.78 339.692H1392.38V338.191H1399.19V339.675L1394.53 345.301H1399.26ZM1408.46 342.285C1408.46 342.497 1408.46 342.757 1408.43 343.051H1402.27C1402.41 344.877 1403.23 345.448 1404.27 345.448C1405.23 345.448 1405.93 344.91 1406.08 343.981H1408.33C1407.89 346.003 1406.26 347.03 1404.22 347.03C1401.84 347.03 1400 345.546 1400 342.497C1400 339.838 1401.74 337.898 1404.4 337.898C1407.06 337.898 1408.46 339.92 1408.46 342.285ZM1404.3 339.48C1403.26 339.48 1402.53 340.148 1402.33 341.583H1406.15C1406 340.213 1405.38 339.48 1404.3 339.48ZM1414.43 337.914C1414.69 337.914 1414.87 337.93 1415.07 337.979V339.789C1413.19 339.659 1412.26 340.491 1412.26 342.823V346.802H1410.01V338.126H1412.26V339.708L1412.95 338.501C1413.37 338.11 1413.94 337.914 1414.43 337.914Z" fill="#00312D"/>
<rect x="1479.43" y="307.308" width="165.891" height="67.9883" rx="33.9942" fill="white"/>
<path d="M1546.57 343.41H1542.79L1541.67 346.802H1539.27L1543.33 335.549H1546.15L1550.13 346.802H1547.68L1546.57 343.41ZM1544.7 337.474L1543.36 341.632H1546L1544.7 337.474ZM1555.06 335.321C1557.75 335.321 1558.97 336.854 1559.21 338.86H1556.91C1556.78 337.718 1556.15 337.001 1554.97 337.001C1554.08 337.001 1553.39 337.425 1553.39 338.338C1553.39 339.284 1554 339.757 1555.79 340.181C1558.27 340.752 1559.38 341.893 1559.38 343.703C1559.38 345.823 1557.44 347.03 1555.22 347.03C1552.53 347.03 1550.77 345.84 1550.55 343.475H1552.85C1553.1 344.714 1554.04 345.35 1555.19 345.35C1556.21 345.35 1557.03 344.796 1557.03 343.932C1557.03 342.986 1556.44 342.431 1554.78 342.04C1552.48 341.485 1551.03 340.686 1551.03 338.615C1551.03 336.544 1552.9 335.321 1555.06 335.321ZM1561.11 347.291H1559.71L1563.8 335.06H1565.21L1561.11 347.291ZM1574.73 343.964C1574.88 345.334 1575.09 346.166 1575.55 346.802H1573.08C1572.81 346.035 1572.64 345.35 1572.53 344.29C1572.38 343.084 1571.93 342.35 1571.01 342.285C1570.7 342.268 1570.43 342.268 1570.13 342.268H1568.83V346.802H1566.58V335.549H1570.69C1571.34 335.549 1571.76 335.566 1572.32 335.631C1573.95 335.827 1575.27 336.675 1575.27 338.615C1575.27 340.067 1574.41 340.98 1573.07 341.355C1574.18 341.779 1574.6 342.709 1574.73 343.964ZM1568.83 340.589H1570.38C1570.77 340.589 1571.05 340.589 1571.29 340.572C1572.19 340.491 1572.9 340.05 1572.9 338.958C1572.9 337.865 1572.3 337.474 1571.42 337.36C1571.16 337.327 1570.88 337.311 1570.48 337.311H1568.83V340.589ZM1580.98 335.321C1583.67 335.321 1584.9 336.854 1585.14 338.86H1582.84C1582.71 337.718 1582.07 337.001 1580.9 337.001C1580 337.001 1579.32 337.425 1579.32 338.338C1579.32 339.284 1579.92 339.757 1581.72 340.181C1584.19 340.752 1585.3 341.893 1585.3 343.703C1585.3 345.823 1583.36 347.03 1581.15 347.03C1578.45 347.03 1576.69 345.84 1576.48 343.475H1578.78C1579.03 344.714 1579.97 345.35 1581.11 345.35C1582.14 345.35 1582.96 344.796 1582.96 343.932C1582.96 342.986 1582.37 342.431 1580.7 342.04C1578.41 341.485 1576.95 340.686 1576.95 338.615C1576.95 336.544 1578.83 335.321 1580.98 335.321Z" fill="#00312D"/>
<rect x="-21.7578" y="307.308" width="165.891" height="67.9883" rx="33.9942" fill="white"/>
<path d="M20.9452 344.926V346.802H12.824V335.549H15.0745V344.926H20.9452ZM23.3672 334.897C24.101 334.897 24.6066 335.386 24.6066 336.088C24.6066 336.805 24.101 337.278 23.3672 337.278C22.6333 337.278 22.1278 336.805 22.1278 336.088C22.1278 335.386 22.6333 334.897 23.3672 334.897ZM24.4924 346.802H22.2419V338.126H24.4924V346.802ZM34.6623 340.328C34.7112 340.768 34.7275 341.208 34.7275 341.909V346.802H32.4771V342.219C32.4771 341.861 32.4771 341.453 32.4444 341.013C32.3792 340.099 31.8737 339.48 30.7811 339.48C29.6884 339.48 28.8241 340.425 28.8241 342.839V346.802H26.5737V338.126H28.8241V339.529L29.4927 338.501C30.1124 338.061 30.7484 337.898 31.5801 337.898C33.4229 337.898 34.4829 338.811 34.6623 340.328ZM44.5789 342.285C44.5789 342.497 44.5789 342.757 44.5463 343.051H38.382C38.5287 344.877 39.3441 345.448 40.3878 345.448C41.35 345.448 42.0512 344.91 42.198 343.981H44.4484C44.0081 346.003 42.3773 347.03 40.3389 347.03C37.958 347.03 36.1152 345.546 36.1152 342.497C36.1152 339.838 37.8601 337.898 40.5183 337.898C43.1764 337.898 44.5789 339.92 44.5789 342.285ZM40.4204 339.48C39.3767 339.48 38.6429 340.148 38.4472 341.583H42.2632C42.1164 340.213 41.4967 339.48 40.4204 339.48ZM51.1692 346.802L51.0062 345.53L50.5822 346.459C49.9788 346.867 49.2449 347.03 48.4295 347.03C46.9292 347.03 45.6409 346.149 45.6409 344.502C45.6409 342.594 47.2717 341.518 50.4191 341.518H50.9735V341.339C50.9735 341.078 50.9735 340.817 50.9409 340.523C50.8757 339.92 50.4843 339.48 49.6037 339.48C48.7068 339.48 48.2175 340.001 48.1523 340.947L45.9671 340.964C46.0323 339.007 47.6142 337.898 49.6852 337.898C52.1151 337.898 53.0283 338.958 53.1588 340.458C53.1914 340.866 53.2077 341.322 53.2077 341.795V344.6C53.2077 345.253 53.2403 345.84 53.3708 346.802H51.1692ZM49.2938 345.448C50.2071 345.448 50.9735 344.812 50.9735 343.605V342.904C49.1797 342.774 47.9729 343.181 47.9729 344.323C47.9729 345.089 48.4948 345.448 49.2938 345.448ZM59.7067 337.914C59.9676 337.914 60.147 337.93 60.3427 337.979V339.789C58.4673 339.659 57.5378 340.491 57.5378 342.823V346.802H55.2873V338.126H57.5378V339.708L58.2227 338.501C58.6467 338.11 59.2175 337.914 59.7067 337.914ZM68.8099 335.321C71.5007 335.321 72.7238 336.854 72.9684 338.86H70.669C70.5386 337.718 69.9026 337.001 68.7284 337.001C67.8315 337.001 67.1466 337.425 67.1466 338.338C67.1466 339.284 67.7499 339.757 69.5438 340.181C72.0226 340.752 73.1315 341.893 73.1315 343.703C73.1315 345.823 71.1909 347.03 68.973 347.03C66.2822 347.03 64.521 345.84 64.309 343.475H66.6084C66.853 344.714 67.7989 345.35 68.9404 345.35C69.9678 345.35 70.7832 344.796 70.7832 343.932C70.7832 342.986 70.1961 342.431 68.5327 342.04C66.2333 341.485 64.7819 340.686 64.7819 338.615C64.7819 336.544 66.6573 335.321 68.8099 335.321ZM78.4869 337.898C81.3734 337.898 82.9878 339.822 82.9878 342.464C82.9878 345.089 81.3734 347.03 78.4869 347.03C75.6004 347.03 73.986 345.089 73.986 342.464C73.986 339.822 75.6004 337.898 78.4869 337.898ZM78.4869 345.448C79.8404 345.448 80.6558 344.323 80.6558 342.464C80.6558 340.589 79.8404 339.48 78.4869 339.48C77.1334 339.48 76.318 340.589 76.318 342.464C76.318 344.323 77.1334 345.448 78.4869 345.448ZM88.8822 337.914C89.1431 337.914 89.3225 337.93 89.5182 337.979V339.789C87.6428 339.659 86.7132 340.491 86.7132 342.823V346.802H84.4628V338.126H86.7132V339.708L87.3982 338.501C87.8222 338.11 88.3929 337.914 88.8822 337.914ZM93.3486 339.675V343.687C93.3486 343.981 93.3486 344.225 93.3649 344.453C93.4301 345.301 93.7399 345.497 94.9956 345.399V346.867C94.4901 346.949 94.0172 346.981 93.5116 346.981C91.8319 346.981 91.2286 346.427 91.1307 345.204C91.0981 344.812 91.0981 344.437 91.0981 343.948V339.675H89.8261V338.191H91.0981V336.055H93.3486V338.191H95.1424V339.675H93.3486ZM104.283 342.285C104.283 342.497 104.283 342.757 104.251 343.051H98.0866C98.2333 344.877 99.0487 345.448 100.092 345.448C101.055 345.448 101.756 344.91 101.903 343.981H104.153C103.713 346.003 102.082 347.03 100.043 347.03C97.6626 347.03 95.8198 345.546 95.8198 342.497C95.8198 339.838 97.5647 337.898 100.223 337.898C102.881 337.898 104.283 339.92 104.283 342.285ZM100.125 339.48C99.0813 339.48 98.3475 340.148 98.1518 341.583H101.968C101.821 340.213 101.201 339.48 100.125 339.48ZM110.254 337.914C110.515 337.914 110.694 337.93 110.89 337.979V339.789C109.015 339.659 108.085 340.491 108.085 342.823V346.802H105.835V338.126H108.085V339.708L108.77 338.501C109.194 338.11 109.765 337.914 110.254 337.914Z" fill="#00312D"/>
<path d="M637.729 80.2266H140.055V189.008" stroke="black" stroke-width="1.08718"/>
<path d="M135.48 256.996V281.195M135.48 281.195H38.0742V307.006M135.48 281.195H241.377V307.006" stroke="black" stroke-width="1.08718"/>
<path d="M140.055 164.532H273.649V229.801H296.428" stroke="black" stroke-width="1.08718"/>
<path d="M285.551 231.16V270.516H399.771V316.825" stroke="black" stroke-width="1.08718"/>
<path d="M391.613 80.2266V195.807" stroke="black" stroke-width="1.35977"/>
<path d="M488.52 448.488C490.737 448.51 492.281 447.444 492.542 445.574H495.738C495.586 449.358 492.172 451.206 488.585 451.206C484.062 451.206 480.757 448.358 480.757 443.4C480.757 438.442 484.106 435.572 488.65 435.572C492.259 435.572 495.695 437.203 495.738 441.378H492.542C492.325 439.356 490.781 438.29 488.498 438.29C485.606 438.29 484.084 440.204 484.084 443.4C484.084 446.553 485.671 448.466 488.52 448.488ZM496.741 445.248C496.741 441.682 498.763 439.095 502.895 439.095C507.004 439.095 509.005 441.682 509.005 445.27C509.005 449.206 506.265 451.206 502.895 451.206C499.546 451.206 496.741 449.14 496.741 445.248ZM502.895 448.705C504.612 448.705 505.765 447.423 505.765 445.161C505.765 442.9 504.612 441.574 502.895 441.574C501.155 441.574 500.003 442.878 500.003 445.161C500.003 447.401 501.177 448.705 502.895 448.705ZM514.12 450.945H510.88V439.334H514.076V442.03H514.185C514.816 440.312 516.273 439.095 517.925 439.138C519.817 439.182 521.121 440.247 521.774 442.161H521.882C522.709 440.312 524.013 439.117 525.818 439.117C528.34 439.117 530.145 440.552 530.145 444.531V450.945H526.905V444.509C526.905 442.856 526.449 441.682 524.687 441.682C523.122 441.682 522.122 442.856 522.122 444.487V450.945H518.882V444.487C518.904 442.835 518.295 441.682 516.686 441.682C515.055 441.682 514.12 442.943 514.12 444.531V450.945ZM535.776 456.011H532.58V439.334H535.798V441.834H535.885C536.624 439.791 538.211 439.117 539.69 439.117C542.93 439.117 544.865 442.052 544.865 445.313C544.865 448.684 542.93 451.184 539.755 451.184C538.32 451.184 536.494 450.401 535.863 448.466H535.776V456.011ZM541.603 445.183C541.603 443.226 540.516 441.53 538.646 441.53C537.298 441.53 536.037 442.443 535.841 443.509V446.966C536.08 448.031 537.407 448.792 538.668 448.792C540.494 448.792 541.603 447.118 541.603 445.183ZM550.472 450.967H547.232V433.789H550.472V450.967ZM558.573 448.966C560.008 448.966 560.899 448.271 561.117 446.944H564.161C563.791 449.858 561.812 451.206 558.573 451.206C554.681 451.206 552.484 448.597 552.484 445.118C552.484 442.139 554.006 439.095 558.464 439.095C562.878 439.095 564.356 441.856 564.422 445.596H555.702C555.746 447.488 556.724 448.945 558.573 448.966ZM555.876 443.835H561.378C561.204 442.704 560.225 441.378 558.507 441.378C556.898 441.378 555.963 442.726 555.876 443.835ZM573.916 450.967L571.241 447.009L568.567 450.967H564.914L569.306 445.074L564.957 439.356H568.632L571.263 443.248L573.894 439.356H577.612L573.068 445.074L577.634 450.967H573.916ZM601.149 435.812L601.737 450.967H598.388L598.04 442.356L598.192 441.117L594.192 450.967H591.365L587.494 441.008L587.647 442.356L587.277 450.967H583.929L584.516 435.812H588.342L592.952 446.422L597.344 435.812H601.149ZM610.023 448.966C611.458 448.966 612.349 448.271 612.567 446.944H615.611C615.241 449.858 613.262 451.206 610.023 451.206C606.13 451.206 603.934 448.597 603.934 445.118C603.934 442.139 605.456 439.095 609.914 439.095C614.328 439.095 615.806 441.856 615.872 445.596H607.152C607.196 447.488 608.174 448.945 610.023 448.966ZM607.326 443.835H612.827C612.654 442.704 611.675 441.378 609.957 441.378C608.348 441.378 607.413 442.726 607.326 443.835ZM617.377 447.423H620.399C620.617 448.684 621.552 449.075 622.704 449.075C623.53 449.075 624.661 448.836 624.661 447.792C624.661 445.4 617.464 446.814 617.464 442.639C617.464 439.899 620.378 439.117 622.617 439.117C625.118 439.117 627.792 440.03 627.857 442.965H624.792C624.683 441.726 623.835 441.226 622.682 441.226C621.834 441.226 620.747 441.53 620.747 442.574C620.747 444.705 627.944 443.639 627.944 447.662C627.944 450.358 624.835 451.184 622.617 451.184C620.356 451.184 617.399 450.249 617.377 447.423ZM629.565 447.423H632.588C632.805 448.684 633.74 449.075 634.892 449.075C635.719 449.075 636.849 448.836 636.849 447.792C636.849 445.4 629.652 446.814 629.652 442.639C629.652 439.899 632.566 439.117 634.805 439.117C637.306 439.117 639.98 440.03 640.046 442.965H636.98C636.871 441.726 636.023 441.226 634.871 441.226C634.023 441.226 632.936 441.53 632.936 442.574C632.936 444.705 640.133 443.639 640.133 447.662C640.133 450.358 637.023 451.184 634.805 451.184C632.544 451.184 629.587 450.249 629.565 447.423ZM644.803 450.075L640.824 439.334H644.15L647.151 447.966H647.216L650.369 439.334H653.674L648.151 452.945C647.564 454.381 646.499 455.424 644.585 455.424H642.454V452.663H643.498C645.085 452.641 645.325 452.489 645.607 451.728L645.933 450.836C645.455 450.836 644.977 450.532 644.803 450.075ZM663.383 450.967H660.035V435.812H663.383V450.967ZM669.553 450.945H666.313V439.334H669.574V442.008H669.661C670.292 440.573 671.27 439.117 673.184 439.117C677.315 439.117 677.772 442.008 677.772 444.335V450.945H674.532V444.4C674.532 442.596 673.88 441.639 672.249 441.639C670.314 441.639 669.553 443.313 669.553 444.77V450.945ZM684.64 441.856V447.162C684.64 447.749 685.096 448.184 685.705 448.184H688.814V450.967H684.444C682.704 450.967 681.421 449.706 681.421 447.966V441.856H679.356L678.856 439.334H681.443V436.594L684.618 435.42V439.334H688.053L688.619 441.856H684.64ZM696.148 448.966C697.583 448.966 698.474 448.271 698.692 446.944H701.736C701.366 449.858 699.387 451.206 696.148 451.206C692.255 451.206 690.059 448.597 690.059 445.118C690.059 442.139 691.581 439.095 696.039 439.095C700.453 439.095 701.931 441.856 701.997 445.596H693.277C693.321 447.488 694.299 448.945 696.148 448.966ZM693.451 443.835H698.952C698.778 442.704 697.8 441.378 696.082 441.378C694.473 441.378 693.538 442.726 693.451 443.835ZM704.285 452.38H707.394C707.438 453.706 708.894 454.098 710.09 454.098C711.764 454.098 712.895 453.185 712.895 450.945V448.466H712.808C712.178 450.401 710.351 451.184 708.916 451.184C705.742 451.184 703.785 448.684 703.785 445.313C703.785 442.052 705.72 439.117 708.981 439.117C710.482 439.117 712.069 439.791 712.786 441.834H712.873V439.356H716.091V450.923C716.091 454.489 713.417 456.707 709.895 456.707C706.416 456.707 704.263 455.359 704.285 452.38ZM707.046 445.183C707.046 447.118 708.177 448.792 710.025 448.792C711.264 448.792 712.612 448.031 712.83 446.966V443.509C712.634 442.443 711.373 441.53 710.047 441.53C708.177 441.53 707.046 443.226 707.046 445.183ZM721.788 450.945H718.548V439.334H721.81V442.03H721.875C722.375 440.573 723.114 439.095 724.615 439.095C727.833 439.095 728.202 441.769 728.05 443.791H725.093C725.093 442.161 724.767 441.639 723.636 441.639C722.31 441.639 721.788 443.03 721.788 444.487V450.945ZM740.015 450.989H737.058L736.971 448.292H736.906C736.166 450.293 734.383 451.228 732.622 451.206C730.556 451.184 728.599 449.988 728.599 447.901C728.599 445.205 730.513 444.205 733.579 444.205H737.036L737.014 443.313C736.992 441.834 735.862 441.4 734.97 441.4C733.861 441.4 732.687 441.813 732.687 443.4H729.578C729.578 440.247 732.165 439.117 734.883 439.117C737.536 439.117 740.015 440.225 740.015 443.096V450.989ZM737.014 446.944V445.835H733.753C732.666 445.835 731.774 446.292 731.774 447.423C731.774 448.51 732.818 448.879 733.861 448.879C735.34 448.858 737.014 448.01 737.014 446.944ZM746.876 441.856V447.162C746.876 447.749 747.333 448.184 747.942 448.184H751.051V450.967H746.681C744.941 450.967 743.658 449.706 743.658 447.966V441.856H741.593L741.093 439.334H743.68V436.594L746.855 435.42V439.334H750.29L750.855 441.856H746.876ZM756.103 437.573H752.798V434.463H756.103V437.573ZM756.06 450.945H752.82V439.334H756.06V450.945ZM757.94 445.248C757.94 441.682 759.962 439.095 764.094 439.095C768.203 439.095 770.204 441.682 770.204 445.27C770.204 449.206 767.464 451.206 764.094 451.206C760.745 451.206 757.94 449.14 757.94 445.248ZM764.094 448.705C765.811 448.705 766.964 447.423 766.964 445.161C766.964 442.9 765.811 441.574 764.094 441.574C762.354 441.574 761.202 442.878 761.202 445.161C761.202 447.401 762.376 448.705 764.094 448.705ZM775.319 450.945H772.079V439.334H775.341V442.008H775.428C776.058 440.573 777.037 439.117 778.95 439.117C783.081 439.117 783.538 442.008 783.538 444.335V450.945H780.298V444.4C780.298 442.596 779.646 441.639 778.015 441.639C776.08 441.639 775.319 443.313 775.319 444.77V450.945ZM797.248 450.967H793.247L789.29 439.356H792.682L795.443 448.162L798.335 439.356H801.249L804.206 448.162L806.902 439.356H810.185L806.315 450.967H802.336L799.748 443.922L797.248 450.967ZM814.794 437.573H811.489V434.463H814.794V437.573ZM814.75 450.945H811.511V439.334H814.75V450.945ZM821.875 441.856V447.162C821.875 447.749 822.331 448.184 822.94 448.184H826.049V450.967H821.679C819.94 450.967 818.657 449.706 818.657 447.966V441.856H816.591L816.091 439.334H818.678V436.594L821.853 435.42V439.334H825.288L825.854 441.856H821.875ZM830.761 450.967H827.521V434.355H830.783V442.03H830.891C831.522 440.573 832.479 439.095 834.414 439.095C838.523 439.095 838.98 442.008 838.98 444.357V450.967H835.74V444.422C835.74 442.596 835.088 441.639 833.479 441.639C831.544 441.639 830.761 443.335 830.761 444.792V450.967ZM863.453 435.812L864.04 450.967H860.691L860.343 442.356L860.496 441.117L856.495 450.967H853.668L849.798 441.008L849.95 442.356L849.58 450.967H846.232L846.819 435.812H850.646L855.255 446.422L859.648 435.812H863.453ZM874.761 439.356H878.001V450.989H874.739L874.761 448.292H874.652C874.022 449.749 873.043 451.228 871.13 451.228C866.999 451.228 866.542 448.314 866.542 445.966V439.356H869.782V445.901C869.782 447.727 870.434 448.684 872.065 448.684C874 448.684 874.761 446.988 874.761 445.531V439.356ZM883.845 450.967H880.605V433.789H883.845V450.967ZM890.991 441.856V447.162C890.991 447.749 891.448 448.184 892.057 448.184H895.166V450.967H890.796C889.056 450.967 887.773 449.706 887.773 447.966V441.856H885.708L885.207 439.334H887.795V436.594L890.969 435.42V439.334H894.405L894.97 441.856H890.991ZM900.218 437.573H896.913V434.463H900.218V437.573ZM900.175 450.945H896.935V439.334H900.175V450.945ZM905.969 456.011H902.773V439.334H905.991V441.834H906.078C906.817 439.791 908.404 439.117 909.883 439.117C913.123 439.117 915.058 442.052 915.058 445.313C915.058 448.684 913.123 451.184 909.948 451.184C908.513 451.184 906.687 450.401 906.056 448.466H905.969V456.011ZM911.796 445.183C911.796 443.226 910.709 441.53 908.839 441.53C907.491 441.53 906.23 442.443 906.034 443.509V446.966C906.273 448.031 907.6 448.792 908.861 448.792C910.687 448.792 911.796 447.118 911.796 445.183ZM920.665 450.967H917.425V433.789H920.665V450.967ZM928.766 448.966C930.201 448.966 931.092 448.271 931.31 446.944H934.354C933.984 449.858 932.005 451.206 928.766 451.206C924.874 451.206 922.677 448.597 922.677 445.118C922.677 442.139 924.199 439.095 928.657 439.095C933.071 439.095 934.549 441.856 934.615 445.596H925.895C925.939 447.488 926.917 448.945 928.766 448.966ZM926.069 443.835H931.571C931.397 442.704 930.418 441.378 928.7 441.378C927.091 441.378 926.156 442.726 926.069 443.835ZM940.573 446.531H944.03C944.248 448.314 945.748 448.836 947.227 448.836C949.314 448.814 950.314 447.879 950.314 446.727C950.314 445.835 949.618 445.422 948.227 445.053L945.183 444.226C942.747 443.552 940.812 442.487 940.812 439.986C940.812 436.92 943.987 435.594 947.357 435.594C950.814 435.594 953.597 436.812 953.663 440.269L950.162 440.291C949.988 438.486 948.792 437.964 947.161 437.964C945.509 437.964 944.53 438.682 944.53 439.943C944.53 440.834 945.139 441.356 946.553 441.769L949.466 442.617C951.771 443.313 953.858 444.226 953.858 446.727C953.858 449.706 950.706 451.184 947.14 451.184C943.182 451.184 940.704 449.249 940.573 446.531ZM955.013 445.248C955.013 441.682 957.035 439.095 961.166 439.095C965.276 439.095 967.276 441.682 967.276 445.27C967.276 449.206 964.536 451.206 961.166 451.206C957.818 451.206 955.013 449.14 955.013 445.248ZM961.166 448.705C962.884 448.705 964.036 447.423 964.036 445.161C964.036 442.9 962.884 441.574 961.166 441.574C959.427 441.574 958.274 442.878 958.274 445.161C958.274 447.401 959.448 448.705 961.166 448.705ZM969.882 450.989V441.921H967.577V439.334H969.86V437.529C969.86 434.398 971.534 433.507 974.078 433.507H976.862L977.818 436.203L974.731 436.138C973.557 436.116 973.078 436.573 973.078 437.312V439.334H977.405V441.921H973.078V450.989H969.882ZM983.89 441.856V447.162C983.89 447.749 984.346 448.184 984.955 448.184H988.065V450.967H983.694C981.955 450.967 980.672 449.706 980.672 447.966V441.856H978.606L978.106 439.334H980.694V436.594L983.868 435.42V439.334H987.304L987.869 441.856H983.89ZM996.401 450.967H992.4L988.443 439.356H991.835L994.596 448.162L997.488 439.356H1000.4L1003.36 448.162L1006.06 439.356H1009.34L1005.47 450.967H1001.49L998.902 443.922L996.401 450.967ZM1020.43 450.989H1017.47L1017.39 448.292H1017.32C1016.58 450.293 1014.8 451.228 1013.04 451.206C1010.97 451.184 1009.02 449.988 1009.02 447.901C1009.02 445.205 1010.93 444.205 1013.99 444.205H1017.45L1017.43 443.313C1017.41 441.834 1016.28 441.4 1015.39 441.4C1014.28 441.4 1013.1 441.813 1013.1 443.4H1009.99C1009.99 440.247 1012.58 439.117 1015.3 439.117C1017.95 439.117 1020.43 440.225 1020.43 443.096V450.989ZM1017.43 446.944V445.835H1014.17C1013.08 445.835 1012.19 446.292 1012.19 447.423C1012.19 448.51 1013.23 448.879 1014.28 448.879C1015.76 448.858 1017.43 448.01 1017.43 446.944ZM1026.05 450.945H1022.81V439.334H1026.07V442.03H1026.14C1026.64 440.573 1027.38 439.095 1028.88 439.095C1032.09 439.095 1032.46 441.769 1032.31 443.791H1029.35C1029.35 442.161 1029.03 441.639 1027.9 441.639C1026.57 441.639 1026.05 443.03 1026.05 444.487V450.945ZM1039.42 448.966C1040.85 448.966 1041.74 448.271 1041.96 446.944H1045C1044.63 449.858 1042.66 451.206 1039.42 451.206C1035.52 451.206 1033.33 448.597 1033.33 445.118C1033.33 442.139 1034.85 439.095 1039.31 439.095C1043.72 439.095 1045.2 441.856 1045.26 445.596H1036.55C1036.59 447.488 1037.57 448.945 1039.42 448.966ZM1036.72 443.835H1042.22C1042.05 442.704 1041.07 441.378 1039.35 441.378C1037.74 441.378 1036.81 442.726 1036.72 443.835ZM1051.22 446.531H1054.68C1054.9 448.314 1056.4 448.836 1057.88 448.836C1059.96 448.814 1060.96 447.879 1060.96 446.727C1060.96 445.835 1060.27 445.422 1058.88 445.053L1055.83 444.226C1053.4 443.552 1051.46 442.487 1051.46 439.986C1051.46 436.92 1054.64 435.594 1058.01 435.594C1061.46 435.594 1064.25 436.812 1064.31 440.269L1060.81 440.291C1060.64 438.486 1059.44 437.964 1057.81 437.964C1056.16 437.964 1055.18 438.682 1055.18 439.943C1055.18 440.834 1055.79 441.356 1057.2 441.769L1060.12 442.617C1062.42 443.313 1064.51 444.226 1064.51 446.727C1064.51 449.706 1061.36 451.184 1057.79 451.184C1053.83 451.184 1051.35 449.249 1051.22 446.531ZM1068.95 450.075L1064.97 439.334H1068.3L1071.3 447.966H1071.36L1074.52 439.334H1077.82L1072.3 452.945C1071.71 454.381 1070.65 455.424 1068.73 455.424H1066.6V452.663H1067.65C1069.23 452.641 1069.47 452.489 1069.76 451.728L1070.08 450.836C1069.6 450.836 1069.13 450.532 1068.95 450.075ZM1078.47 447.423H1081.49C1081.71 448.684 1082.65 449.075 1083.8 449.075C1084.63 449.075 1085.76 448.836 1085.76 447.792C1085.76 445.4 1078.56 446.814 1078.56 442.639C1078.56 439.899 1081.47 439.117 1083.71 439.117C1086.21 439.117 1088.89 440.03 1088.95 442.965H1085.89C1085.78 441.726 1084.93 441.226 1083.78 441.226C1082.93 441.226 1081.84 441.53 1081.84 442.574C1081.84 444.705 1089.04 443.639 1089.04 447.662C1089.04 450.358 1085.93 451.184 1083.71 451.184C1081.45 451.184 1078.49 450.249 1078.47 447.423ZM1095.81 441.856V447.162C1095.81 447.749 1096.27 448.184 1096.88 448.184H1099.99V450.967H1095.62C1093.88 450.967 1092.6 449.706 1092.6 447.966V441.856H1090.53L1090.03 439.334H1092.62V436.594L1095.79 435.42V439.334H1099.23L1099.79 441.856H1095.81ZM1107.32 448.966C1108.76 448.966 1109.65 448.271 1109.87 446.944H1112.91C1112.54 449.858 1110.56 451.206 1107.32 451.206C1103.43 451.206 1101.23 448.597 1101.23 445.118C1101.23 442.139 1102.76 439.095 1107.21 439.095C1111.63 439.095 1113.11 441.856 1113.17 445.596H1104.45C1104.5 447.488 1105.47 448.945 1107.32 448.966ZM1104.63 443.835H1110.13C1109.95 442.704 1108.97 441.378 1107.26 441.378C1105.65 441.378 1104.71 442.726 1104.63 443.835ZM1118.46 450.945H1115.22V439.334H1118.42V442.03H1118.53C1119.16 440.312 1120.61 439.095 1122.26 439.138C1124.16 439.182 1125.46 440.247 1126.11 442.161H1126.22C1127.05 440.312 1128.35 439.117 1130.16 439.117C1132.68 439.117 1134.48 440.552 1134.48 444.531V450.945H1131.25V444.509C1131.25 442.856 1130.79 441.682 1129.03 441.682C1127.46 441.682 1126.46 442.856 1126.46 444.487V450.945H1123.22V444.487C1123.24 442.835 1122.63 441.682 1121.03 441.682C1119.39 441.682 1118.46 442.943 1118.46 444.531V450.945ZM1136.44 447.423H1139.46C1139.68 448.684 1140.62 449.075 1141.77 449.075C1142.59 449.075 1143.73 448.836 1143.73 447.792C1143.73 445.4 1136.53 446.814 1136.53 442.639C1136.53 439.899 1139.44 439.117 1141.68 439.117C1144.18 439.117 1146.86 440.03 1146.92 442.965H1143.86C1143.75 441.726 1142.9 441.226 1141.75 441.226C1140.9 441.226 1139.81 441.53 1139.81 442.574C1139.81 444.705 1147.01 443.639 1147.01 447.662C1147.01 450.358 1143.9 451.184 1141.68 451.184C1139.42 451.184 1136.46 450.249 1136.44 447.423Z" fill="#00312D"/>
<rect x="329.062" y="307.308" width="165.891" height="67.9883" rx="33.9942" fill="white"/>
<path d="M394.358 335.321C397.408 335.321 398.99 336.985 399.218 339.202L399.234 339.365H396.984L396.951 339.202C396.674 337.816 395.826 337.001 394.326 337.001C392.515 337.001 391.292 338.55 391.292 341.11C391.292 343.915 392.581 345.35 394.293 345.35C395.761 345.35 396.609 344.47 396.902 343.067L396.935 342.904H399.169L399.153 343.067C398.908 345.465 397.082 347.03 394.195 347.03C391.064 347.03 388.911 344.829 388.911 341.241C388.911 337.555 391.243 335.321 394.358 335.321ZM404.726 337.898C407.613 337.898 409.227 339.822 409.227 342.464C409.227 345.089 407.613 347.03 404.726 347.03C401.84 347.03 400.225 345.089 400.225 342.464C400.225 339.822 401.84 337.898 404.726 337.898ZM404.726 345.448C406.08 345.448 406.895 344.323 406.895 342.464C406.895 340.589 406.08 339.48 404.726 339.48C403.373 339.48 402.557 340.589 402.557 342.464C402.557 344.323 403.373 345.448 404.726 345.448ZM415.855 337.898C418.285 337.898 419.72 339.741 419.72 342.301C419.72 345.432 417.796 347.03 415.562 347.03C414.844 347.03 413.964 346.851 413.523 346.541L412.953 345.644V346.802H410.702V334.816H412.953V339.447L413.605 338.501C414.094 338.11 414.975 337.898 415.855 337.898ZM415.121 345.448C416.426 345.448 417.388 344.453 417.388 342.448C417.388 340.67 416.54 339.48 415.203 339.48C413.964 339.48 412.953 340.246 412.953 342.366V342.774C412.953 344.747 414.078 345.448 415.121 345.448ZM425.095 337.898C427.981 337.898 429.596 339.822 429.596 342.464C429.596 345.089 427.981 347.03 425.095 347.03C422.208 347.03 420.594 345.089 420.594 342.464C420.594 339.822 422.208 337.898 425.095 337.898ZM425.095 345.448C426.448 345.448 427.264 344.323 427.264 342.464C427.264 340.589 426.448 339.48 425.095 339.48C423.741 339.48 422.926 340.589 422.926 342.464C422.926 344.323 423.741 345.448 425.095 345.448ZM433.762 339.675V343.687C433.762 343.981 433.762 344.225 433.778 344.453C433.843 345.301 434.153 345.497 435.409 345.399V346.867C434.903 346.949 434.43 346.981 433.925 346.981C432.245 346.981 431.642 346.427 431.544 345.204C431.511 344.812 431.511 344.437 431.511 343.948V339.675H430.239V338.191H431.511V336.055H433.762V338.191H435.555V339.675H433.762Z" fill="#00312D"/>
<path d="M822.66 131.218V153.654M822.66 153.654H714.559V176.77M822.66 153.654H924.642V182.209" stroke="black" stroke-width="1.35977"/>
<path d="M392.293 149.574H597.618V223.681H630.252" stroke="black" stroke-width="1.35977"/>
<path d="M737.672 256.316V309.347" stroke="black" stroke-width="1.35977"/>
<path d="M932.801 255.637V309.347" stroke="black" stroke-width="1.35977"/>
<path d="M817.219 221.643H826.737V280.113H932.799" stroke="black" stroke-width="1.35977"/>
<rect x="879.77" y="307.308" width="165.891" height="67.9883" rx="33.9942" fill="white"/>
<path d="M953.257 343.41H949.474L948.348 346.802H945.951L950.012 335.549H952.833L956.812 346.802H954.366L953.257 343.41ZM951.382 337.474L950.044 341.632H952.686L951.382 337.474ZM963.077 341.061H967.61V346.802H965.8L965.653 344.975L965.148 346.117C964.512 346.737 963.647 347.03 962.408 347.03C959.277 347.03 957.304 344.812 957.304 341.241C957.304 337.555 959.701 335.321 962.848 335.321C965.898 335.321 967.48 336.985 967.708 339.202L967.724 339.365H965.474L965.441 339.202C965.164 337.816 964.316 337.001 962.816 337.001C960.989 337.001 959.685 338.55 959.685 341.11C959.685 343.915 960.989 345.35 962.751 345.35C964.202 345.35 965.229 344.405 965.458 342.823H963.077V341.061ZM975.818 346.802H972.997L969.018 335.549H971.464L974.448 345.073L977.481 335.549H979.879L975.818 346.802Z" fill="#00312D"/>
<path d="M991.27 77.5068H1524.98V193.087" stroke="black" stroke-width="1.35977"/>
<path d="M1218.35 77.5068V190.367" stroke="black" stroke-width="1.35977"/>
<path d="M1218.35 256.996V276.713M1218.35 276.713H1169.4V308.667M1218.35 276.713H1362.49V308.667" stroke="black" stroke-width="1.35977"/>
<path d="M1018.46 216.203H1126.57" stroke="black" stroke-width="1.35977"/>
<path d="M1535.18 254.956V307.987" stroke="black" stroke-width="1.35977"/>
</g>
<rect x="1.63077" y="1.63077" width="1625.74" height="490.334" rx="52.7282" stroke="#809896" stroke-width="3.26154"/>
<defs>
<clipPath id="clip0_529_1352">
<rect width="1629" height="493.595" rx="54.359" fill="white"/>
</clipPath>
</defs>
</svg>
