<svg width="147" height="147" viewBox="0 0 147 147" fill="none" xmlns="http://www.w3.org/2000/svg">
<path fill-rule="evenodd" clip-rule="evenodd" d="M60.5202 0.589844C56.8551 0.589844 53.8839 3.56108 53.8839 7.22621V17.2631C51.8859 17.9693 49.9369 18.7787 48.0434 19.6846L40.9446 12.5858C38.353 9.99417 34.1511 9.99417 31.5594 12.5858L12.7889 31.3563C11.5444 32.6009 10.8452 34.2888 10.8452 36.0489C10.8452 37.809 11.5444 39.497 12.7889 40.7415L19.8877 47.8403C18.9818 49.7338 18.1724 51.6827 17.4662 53.6808H7.42933C3.7642 53.6808 0.792969 56.652 0.792969 60.3171V86.8626C0.792969 90.5278 3.7642 93.4989 7.42933 93.4989H17.4662C18.1724 95.4971 18.9818 97.4462 19.8877 99.3396L12.7889 106.438C10.1973 109.03 10.1973 113.231 12.7889 115.824L31.5594 134.594C34.1511 137.185 38.353 137.185 40.9446 134.594L48.0434 127.495C49.9369 128.401 51.8859 129.211 53.8839 129.917V139.953C53.8839 143.619 56.8551 146.59 60.5202 146.59H87.0657C90.731 146.59 93.7021 143.619 93.7021 139.953V129.917C95.7003 129.211 97.6494 128.401 99.5427 127.495L106.641 134.594C109.233 137.185 113.435 137.185 116.027 134.594L134.797 115.824C136.041 114.579 136.741 112.891 136.741 111.131C136.741 109.37 136.041 107.683 134.797 106.438L127.698 99.3396C128.604 97.4462 129.414 95.4971 130.12 93.4989H140.157C143.822 93.4989 146.793 90.5278 146.793 86.8626V60.3171C146.793 56.652 143.822 53.6808 140.157 53.6808H130.12C129.414 51.6827 128.604 49.7338 127.698 47.8403L134.797 40.7415C136.041 39.497 136.741 37.809 136.741 36.0489C136.741 34.2888 136.041 32.6009 134.797 31.3563L116.027 12.5858C113.435 9.99417 109.233 9.99417 106.641 12.5858L99.5427 19.6846C97.6494 18.7787 95.7003 17.9693 93.7021 17.2631V7.22621C93.7021 3.56108 90.731 0.589844 87.0657 0.589844H60.5202ZM66.3762 47.5495C68.8555 48.5766 70.4728 50.9965 70.4728 53.6808V93.4989H57.2001V69.7036L51.9404 74.9642L42.5546 65.5791L59.1435 48.9884C61.0412 47.0902 63.8962 46.5224 66.3762 47.5495ZM77.1112 93.4989C77.1112 96.1833 78.7278 98.603 81.2078 99.6303C83.6878 100.658 86.5421 100.09 88.4401 98.1915L105.031 81.6006L95.6459 72.2155L90.3839 77.4774V53.6808H77.1112V93.4989Z" fill="#8DC55C"/>
</svg>
