<svg width="128" height="128" viewBox="0 0 128 128" fill="none" xmlns="http://www.w3.org/2000/svg">
<g clip-path="url(#clip0_249_18408)">
<path d="M118.224 108.45H115.949V9.77539C115.949 4.38477 111.564 0 106.174 0C100.784 0 96.3984 4.38477 96.3984 9.77539V50.1406L82.9277 11.9717C80.5586 5.25879 73.127 0 66.0078 0H13.791C6.18652 0 0 6.1875 0 13.792V102.158C0 106.212 1.75879 109.862 4.55273 112.388C4.55176 112.325 4.5498 112.263 4.5498 112.2C4.5498 99.3525 15.0029 88.9004 27.8496 88.9004C39.1367 88.9004 48.5723 96.9668 50.7002 107.637C52.8271 96.9668 62.2637 88.9004 73.5498 88.9004C84.835 88.9004 94.2705 96.9658 96.3984 107.635V114.208C96.3984 121.813 102.135 128 109.186 128H118.224C123.613 128 127.998 123.615 127.998 118.225C127.999 112.835 123.614 108.45 118.224 108.45ZM55.6992 74.3086V69.0088C59.2334 67.5352 61.7246 64.0459 61.7246 59.9834C61.7246 54.5938 57.3398 50.209 51.9492 50.209H43.6494V35.8828C43.6494 30.4932 39.2646 26.1084 33.874 26.1084C28.4844 26.1084 24.0986 30.4932 24.0986 35.8828V62.2578H7.5V13.792C7.5 10.3223 10.3223 7.5 13.791 7.5H66.0078C69.9434 7.5 74.5449 10.7559 75.8555 14.4678L93.2715 63.8125C94.2295 66.5293 95.123 70.4287 95.7109 74.3086H55.6992Z" fill="#D1E8BE"/>
<path d="M27.8467 96.4014C19.1348 96.4014 12.0469 103.489 12.0469 112.201C12.0469 120.913 19.1348 128.001 27.8467 128.001C36.5586 128.001 43.6465 120.913 43.6465 112.201C43.6465 103.489 36.5586 96.4014 27.8467 96.4014ZM30.499 114.853C29.7988 115.551 28.834 115.95 27.8467 115.95C26.8613 115.95 25.8945 115.551 25.1943 114.853C24.4971 114.155 24.0967 113.188 24.0967 112.2C24.0967 111.213 24.4971 110.248 25.1943 109.551C25.8945 108.851 26.8594 108.45 27.8467 108.45C28.834 108.45 29.8018 108.851 30.499 109.551C31.1963 110.248 31.5967 111.213 31.5967 112.2C31.5967 113.188 31.1963 114.155 30.499 114.853Z" fill="#D1E8BE"/>
<path d="M73.5498 96.4014C64.8379 96.4014 57.75 103.489 57.75 112.201C57.75 120.913 64.8379 128.001 73.5498 128.001C82.2617 128.001 89.3486 120.913 89.3486 112.201C89.3486 103.489 82.2617 96.4014 73.5498 96.4014ZM76.2021 114.853C75.502 115.551 74.5371 115.95 73.5488 115.95C72.5645 115.95 71.5967 115.551 70.8975 114.853C70.1992 114.155 69.7988 113.188 69.7988 112.2C69.7988 111.213 70.1992 110.248 70.8975 109.551C71.5977 108.851 72.5615 108.45 73.5488 108.45C74.5371 108.45 75.502 108.851 76.2021 109.551C76.8994 110.248 77.2988 111.213 77.2988 112.2C77.2988 113.188 76.8994 114.155 76.2021 114.853Z" fill="#D1E8BE"/>
</g>
<defs>
<clipPath id="clip0_249_18408">
<rect width="128" height="128" fill="white"/>
</clipPath>
</defs>
</svg>
