<svg width="36" height="37" viewBox="0 0 36 37" fill="none" xmlns="http://www.w3.org/2000/svg">
<path d="M35.1047 8.64465C34.2967 5.40465 30.8849 1.99079 27.6429 1.18283C24.4616 0.595073 21.2336 0.296581 17.9985 0.291016C14.7635 0.296783 11.5355 0.595273 8.35423 1.18283C5.11218 1.99079 1.70036 5.40465 0.89241 8.64465C-0.300074 15.0196 -0.300074 21.5604 0.89241 27.9353C1.70036 31.1774 5.11218 34.5933 8.35423 35.3972C10.1726 35.7265 11.942 35.9637 13.6949 36.109C14.0754 36.1417 14.4538 36.1683 14.8322 36.1928C15.8897 36.2583 16.9431 36.291 17.9985 36.291C18.9149 36.291 19.8272 36.2644 20.7395 36.2174C23.0556 36.0907 25.3613 35.8174 27.6429 35.3992C30.8849 34.5933 34.2967 31.1774 35.1047 27.9353C35.3665 26.4933 35.569 25.0717 35.7183 23.6665C35.8329 22.5633 35.9126 21.4662 35.9576 20.3753C35.9904 19.5762 36.0047 18.7778 36.0006 17.9801C35.9751 14.8481 35.6753 11.7243 35.1047 8.64465ZM12.4758 28.7801C12.4761 28.8799 12.4567 28.9788 12.4186 29.0711C12.3806 29.1634 12.3248 29.2473 12.2543 29.318C12.1838 29.3887 12.1 29.4448 12.0078 29.4831C11.9156 29.5213 11.8168 29.541 11.717 29.541H8.48309C8.38319 29.5413 8.28422 29.5218 8.19189 29.4836C8.09957 29.4454 8.01571 29.3894 7.94516 29.3186C7.87462 29.2479 7.81877 29.1639 7.78085 29.0715C7.74293 28.979 7.72369 28.88 7.72423 28.7801V15.2228C7.72396 15.123 7.74339 15.0241 7.78141 14.9318C7.81942 14.8395 7.87528 14.7556 7.94577 14.6849C8.01626 14.6142 8.10001 14.5581 8.19221 14.5199C8.28442 14.4816 8.38326 14.4619 8.48309 14.4619H11.717C11.9184 14.4625 12.1114 14.5429 12.2537 14.6855C12.3959 14.8282 12.4758 15.0214 12.4758 15.2228V28.7801ZM10.101 13.1774C9.49422 13.1774 8.90102 12.9974 8.39646 12.6603C7.8919 12.3232 7.49864 11.844 7.26642 11.2833C7.03419 10.7227 6.97343 10.1058 7.09182 9.51062C7.21021 8.91546 7.50242 8.36876 7.93151 7.93967C8.36061 7.51057 8.90731 7.21836 9.50247 7.09997C10.0976 6.98158 10.7146 7.04234 11.2752 7.27457C11.8358 7.50679 12.315 7.90005 12.6521 8.40461C12.9893 8.90917 13.1692 9.50237 13.1692 10.1092C13.1692 10.9229 12.846 11.7033 12.2706 12.2787C11.6952 12.8541 10.9148 13.1774 10.101 13.1774ZM29.3795 28.8333C29.3797 28.9252 29.3618 29.0163 29.3268 29.1013C29.2917 29.1863 29.2402 29.2635 29.1752 29.3285C29.1102 29.3936 29.0329 29.4451 28.9479 29.4801C28.8629 29.5152 28.7719 29.5331 28.6799 29.5328H25.2026C25.1107 29.5331 25.0196 29.5152 24.9346 29.4801C24.8496 29.4451 24.7724 29.3936 24.7074 29.3285C24.6424 29.2635 24.5909 29.1863 24.5558 29.1013C24.5207 29.0163 24.5028 28.9252 24.5031 28.8333V22.4822C24.5031 21.5331 24.7813 18.3258 22.022 18.3258C19.8845 18.3258 19.4488 20.5206 19.3629 21.5065V28.8415C19.3629 29.0252 19.2906 29.2016 19.1616 29.3325C19.0326 29.4634 18.8573 29.5383 18.6735 29.541H15.3149C15.2231 29.541 15.1323 29.5229 15.0475 29.4877C14.9628 29.4525 14.8858 29.401 14.821 29.336C14.7562 29.271 14.7048 29.1939 14.6699 29.109C14.635 29.0242 14.6171 28.9332 14.6174 28.8415V15.1635C14.6171 15.0717 14.635 14.9808 14.6699 14.896C14.7048 14.8111 14.7562 14.734 14.821 14.669C14.8858 14.604 14.9628 14.5524 15.0475 14.5173C15.1323 14.4821 15.2231 14.464 15.3149 14.464H18.6735C18.8591 14.464 19.037 14.5377 19.1682 14.6689C19.2994 14.8001 19.3731 14.978 19.3731 15.1635V16.3458C20.1667 15.1533 21.3429 14.2369 23.8526 14.2369C29.4101 14.2369 29.3754 19.4283 29.3754 22.2797L29.3795 28.8333Z" fill="#DEF4AB"/>
</svg>
