<svg width="30" height="30" viewBox="0 0 30 30" fill="none" xmlns="http://www.w3.org/2000/svg">
<g clip-path="url(#clip0_368_1052)">
<path d="M14.9958 0.0527344C11.6882 0.0563732 8.51713 1.37183 6.1782 3.71052C3.83927 6.04921 2.5235 9.22016 2.51953 12.5277C2.51953 15.7402 5.00703 20.7677 9.91328 27.4702C10.4974 28.2704 11.2621 28.9213 12.1453 29.3701C13.0285 29.8189 14.0051 30.0528 14.9958 30.0528C15.9864 30.0528 16.9631 29.8189 17.8463 29.3701C18.7295 28.9213 19.4942 28.2704 20.0783 27.4702C24.9845 20.7677 27.472 15.7402 27.472 12.5277C27.4681 9.22016 26.1523 6.04921 23.8134 3.71052C21.4744 1.37183 18.3034 0.0563732 14.9958 0.0527344ZM14.9958 17.5002C14.0069 17.5002 13.0402 17.207 12.2179 16.6576C11.3957 16.1082 10.7548 15.3273 10.3764 14.4137C9.99794 13.5 9.89893 12.4947 10.0919 11.5248C10.2848 10.5549 10.761 9.66396 11.4602 8.9647C12.1595 8.26544 13.0504 7.78924 14.0203 7.59631C14.9902 7.40338 15.9956 7.5024 16.9092 7.88084C17.8228 8.25928 18.6037 8.90014 19.1531 9.72238C19.7025 10.5446 19.9958 11.5113 19.9958 12.5002C19.9958 13.8263 19.469 15.0981 18.5313 16.0358C17.5936 16.9735 16.3219 17.5002 14.9958 17.5002Z" fill="#00312D"/>
</g>
<defs>
<clipPath id="clip0_368_1052">
<rect width="30" height="30" fill="white"/>
</clipPath>
</defs>
</svg>
