<svg width="117" height="117" viewBox="0 0 117 117" fill="none" xmlns="http://www.w3.org/2000/svg">
<g clip-path="url(#clip0_285_1416)">
<path d="M77.4388 14.026C77.4388 24.4805 63.8088 37.4725 57.018 42.9197C55.9553 43.7716 54.6341 44.2359 53.2721 44.2359C51.9102 44.2359 50.5889 43.7716 49.5263 42.9197C42.7355 37.4677 29.1055 24.4805 29.1055 14.026C28.953 10.6631 30.1388 7.37668 32.4032 4.88575C34.6677 2.39482 37.8266 0.902181 41.1888 0.734375C44.551 0.902181 47.7099 2.39482 49.9744 4.88575C52.2389 7.37668 53.4246 10.6631 53.2721 14.026C53.1197 10.6631 54.3054 7.37668 56.5699 4.88575C58.8344 2.39482 61.9933 0.902181 65.3555 0.734375C68.7177 0.902181 71.8766 2.39482 74.141 4.88575C76.4055 7.37668 77.5912 10.6631 77.4388 14.026ZM112.906 60.426L75.6891 101.07C71.158 106.01 65.6487 109.954 59.5112 112.651C53.3737 115.348 46.7423 116.738 40.0385 116.734H19.4388C14.3113 116.734 9.39377 114.697 5.76807 111.072C2.14237 107.446 0.105469 102.529 0.105469 97.401V73.2344C0.105469 68.1069 2.14237 63.1894 5.76807 59.5636C9.39377 55.9379 14.3113 53.901 19.4388 53.901H57.076C58.6737 53.9041 60.2504 54.2643 61.691 54.9552C63.1316 55.646 64.3996 56.6502 65.4021 57.8941C66.4047 59.1381 67.1166 60.5904 67.4857 62.1449C67.8547 63.6994 67.8717 65.3167 67.5353 66.8785C67.012 69.0633 65.8335 71.036 64.1576 72.5322C62.4817 74.0284 60.3886 74.9767 58.1586 75.2499L38.0375 78.0677C36.7693 78.2496 35.6252 78.9276 34.8567 79.9526C34.0881 80.9776 33.758 82.2659 33.9388 83.5342C34.1196 84.8033 34.797 85.9485 35.8222 86.7181C36.8474 87.4876 38.1362 87.8184 39.4053 87.6377L59.9566 84.7377C64.7971 84.0248 69.2219 81.6012 72.4291 77.9064C75.6363 74.2115 77.4136 69.4898 77.4388 64.5972C77.4151 63.5627 77.3101 62.5316 77.1246 61.5135L94.2443 43.4514C96.5018 41.0069 99.635 39.555 102.959 39.4128C106.284 39.2707 109.529 40.4497 111.987 42.6925C114.433 44.9338 115.9 48.0464 116.072 51.3592C116.243 54.672 115.106 57.9197 112.906 60.4019V60.426Z" fill="#A4D07C"/>
</g>
<defs>
<clipPath id="clip0_285_1416">
<rect width="116" height="116" fill="white" transform="translate(0.105469 0.734375)"/>
</clipPath>
</defs>
</svg>
