<svg width="147" height="147" viewBox="0 0 147 147" fill="none" xmlns="http://www.w3.org/2000/svg">
<path d="M109.827 6.67285H36.8268C32.8325 6.67285 28.8772 7.4596 25.1869 8.98818C21.4965 10.5168 18.1434 12.7572 15.319 15.5817C9.61476 21.2859 6.41016 29.0225 6.41016 37.0895V85.7562C6.41016 93.8232 9.61476 101.56 15.319 107.264C18.1434 110.088 21.4965 112.329 25.1869 113.858C28.8772 115.386 32.8325 116.173 36.8268 116.173H109.827C113.821 116.173 117.776 115.386 121.467 113.858C125.157 112.329 128.51 110.088 131.335 107.264C134.159 104.44 136.4 101.086 137.928 97.3961C139.457 93.7058 140.243 89.7506 140.243 85.7562V37.0895C140.243 33.0951 139.457 29.1399 137.928 25.4496C136.4 21.7592 134.159 18.4061 131.335 15.5817C128.51 12.7572 125.157 10.5168 121.467 8.98818C117.776 7.4596 113.821 6.67285 109.827 6.67285ZM89.8127 53.5754C89.2471 54.1455 88.5743 54.5981 87.833 54.9069C87.0917 55.2158 86.2966 55.3748 85.4935 55.3748C84.6904 55.3748 83.8953 55.2158 83.154 54.9069C82.4127 54.5981 81.7399 54.1455 81.1743 53.5754L79.4102 51.7504V85.7562C79.4102 87.3696 78.7692 88.9169 77.6284 90.0578C76.4875 91.1986 74.9402 91.8395 73.3268 91.8395C71.7134 91.8395 70.1661 91.1986 69.0253 90.0578C67.8844 88.9169 67.2435 87.3696 67.2435 85.7562V51.7504L65.4793 53.5754C64.3338 54.7209 62.7802 55.3644 61.1602 55.3644C59.5402 55.3644 57.9865 54.7209 56.841 53.5754C55.6955 52.4298 55.0519 50.8762 55.0519 49.2562C55.0519 47.6362 55.6955 46.0825 56.841 44.937L69.0077 32.7704C69.5732 32.2002 70.246 31.7476 70.9873 31.4388C71.7286 31.1299 72.5238 30.9709 73.3268 30.9709C74.1299 30.9709 74.925 31.1299 75.6663 31.4388C76.4076 31.7476 77.0805 32.2002 77.646 32.7704L89.8127 44.937C90.3828 45.5025 90.8354 46.1754 91.1443 46.9167C91.4531 47.658 91.6121 48.4531 91.6121 49.2562C91.6121 50.0593 91.4531 50.8544 91.1443 51.5957C90.8354 52.337 90.3828 53.0098 89.8127 53.5754ZM109.827 140.506H36.8268C35.2134 140.506 33.6661 139.865 32.5253 138.724C31.3844 137.584 30.7435 136.036 30.7435 134.423C30.7435 132.809 31.3844 131.262 32.5253 130.121C33.6661 128.98 35.2134 128.34 36.8268 128.34H109.827C111.44 128.34 112.988 128.98 114.128 130.121C115.269 131.262 115.91 132.809 115.91 134.423C115.91 136.036 115.269 137.584 114.128 138.724C112.988 139.865 111.44 140.506 109.827 140.506Z" fill="#8DC55C"/>
</svg>
