<svg width="221" height="220" viewBox="0 0 221 220" fill="none" xmlns="http://www.w3.org/2000/svg">
<g clip-path="url(#clip0_249_20220)">
<path d="M115.14 105.567C115.104 105.529 115.094 105.479 115.057 105.442L78.2742 68.6587V45.5463C78.2742 43.834 77.5944 42.1977 76.3861 40.989L37.7143 1.88786C35.8765 0.0505165 33.1007 -0.509796 30.6898 0.490946C28.2792 1.48524 26.7117 3.8395 26.7117 6.44513V25.7811H6.94609C4.3409 25.7806 1.98664 27.3477 0.992346 29.7587C-0.00839525 32.1692 0.545472 34.939 2.38969 36.7832L41.4912 75.8843C42.6999 77.0931 44.3362 77.7728 46.0481 77.7728H69.1605L105.943 114.556C105.98 114.593 106.031 114.603 106.069 114.639C108.578 117.034 112.39 117.066 114.933 114.639C117.61 112.083 117.55 108.092 115.14 105.567Z" fill="#A4D07C"/>
<path d="M110.499 0C94.0073 0 78.4144 4.1959 64.373 10.7499L84.1447 30.5216C92.4428 27.7621 101.287 26.2109 110.5 26.2109C156.699 26.2105 194.288 63.7996 194.288 109.999C194.288 156.199 156.699 193.788 110.499 193.788C64.2991 193.788 26.7105 156.199 26.7105 109.999C26.7105 100.787 28.2621 91.9424 31.0211 83.6443L11.2495 63.8726C4.69633 77.9144 0.5 93.5073 0.5 109.999C0.5 170.417 50.0812 219.999 110.499 219.999C170.917 219.999 220.499 170.417 220.499 109.999C220.499 49.5812 170.918 0 110.499 0Z" fill="#A4D07C"/>
<path d="M110.503 51.9941C103.691 51.9941 97.2455 53.3906 91.1675 55.5575V63.3237L106.068 78.224C107.531 78.0195 108.985 77.7754 110.503 77.7754C128.272 77.7754 142.73 92.2331 142.73 110.002C142.73 127.771 128.272 142.229 110.503 142.229C92.7346 142.229 78.2769 127.771 78.2769 110.002C78.2769 108.483 78.521 107.029 78.7255 105.566L63.8257 90.6656H56.0595C53.8926 96.7435 52.4961 103.189 52.4961 110.002C52.4961 141.989 78.5167 168.009 110.503 168.009C142.49 168.009 168.511 141.989 168.511 110.002C168.511 78.0143 142.491 51.9941 110.503 51.9941Z" fill="#A4D07C"/>
</g>
<defs>
<clipPath id="clip0_249_20220">
<rect width="220" height="220" fill="white" transform="translate(0.5)"/>
</clipPath>
</defs>
</svg>
