<svg width="180" height="181" viewBox="0 0 180 181" fill="none" xmlns="http://www.w3.org/2000/svg">
<path d="M175.18 74.3994C174.955 73.1619 173.935 72.2232 172.684 72.1001L161.687 71.0209C159.996 64.6154 157.45 58.4736 154.1 52.715L161.11 44.1826C161.908 43.2123 161.968 41.8271 161.251 40.7935C155.267 32.1416 147.846 24.7201 139.19 18.733C138.157 18.0193 136.771 18.0755 135.801 18.8736L127.272 25.8943C121.521 22.5404 115.379 19.9951 108.966 18.3005L107.894 7.30366C107.771 6.04858 106.832 5.02905 105.595 4.80405C95.2168 2.92671 84.7227 2.92671 74.4008 4.80757C73.1633 5.03257 72.2281 6.04858 72.1051 7.30366L71.0328 18.3005C64.6203 19.9951 58.4785 22.5404 52.727 25.8943L44.198 18.8736C43.2277 18.0755 41.8426 18.0193 40.809 18.733C32.1535 24.7201 24.732 32.1416 18.7484 40.7935C18.0313 41.8271 18.091 43.2123 18.8891 44.1826L25.9062 52.715C22.5559 58.4666 20.007 64.6083 18.3125 71.0209L7.31562 72.1001C6.06406 72.2232 5.04453 73.1619 4.81953 74.3994C2.93516 84.7458 2.93516 95.2365 4.81953 105.583C5.04453 106.82 6.06406 107.759 7.31562 107.879L18.3125 108.954C20.0105 115.377 22.5559 121.519 25.9062 127.26L18.8891 135.8C18.0875 136.77 18.0313 138.155 18.7484 139.189C24.718 147.809 32.0902 155.192 40.6648 161.137C39.9969 163.52 39.4941 165.974 39.1777 168.492C38.7699 171.754 39.2727 174.131 40.7105 175.758C41.5262 176.683 43.0414 177.783 45.6395 177.783H134.36C136.954 177.783 138.473 176.679 139.289 175.755C140.727 174.127 141.233 171.779 140.832 168.579C140.516 166.031 140.009 163.549 139.334 161.137C147.909 155.192 155.281 147.809 161.251 139.189C161.968 138.155 161.912 136.77 161.114 135.8L154.1 127.26C157.447 121.512 159.992 115.37 161.687 108.954L172.684 107.879C173.935 107.759 174.955 106.82 175.18 105.583C177.064 95.2365 177.064 84.7458 175.18 74.3994ZM90.0031 45.1494C114.725 45.1494 134.834 65.2658 134.834 89.9912C134.834 106.107 126.246 120.876 112.324 128.87C109.578 127.538 106.702 126.445 103.721 125.615C111.206 121.182 116.374 113.247 116.954 104.082C120.132 103.393 122.516 100.566 122.516 97.1876C122.516 94.5861 121.095 92.315 118.989 91.0916C118.8 84.2853 116.311 77.7533 111.923 72.6099C107.82 67.8041 102.322 64.5029 96.282 63.174C95.2625 60.4669 92.6539 58.5334 89.5953 58.5334C86.4207 58.5334 83.7242 60.6181 82.7961 63.4869C70.5898 66.7775 61.8289 77.915 61.3824 90.8912C59.0727 92.0513 57.4836 94.4349 57.4836 97.1876C57.4836 100.566 59.8672 103.393 63.0453 104.082C63.6254 113.247 68.7969 121.182 76.2816 125.611C73.3004 126.445 70.4211 127.538 67.6789 128.874C53.7535 120.876 45.1648 106.11 45.1648 89.9912C45.1648 65.2658 65.2813 45.1494 90.0031 45.1494ZM90.0031 123.738C78.8481 123.738 69.6617 115.156 68.702 104.247H111.297C110.337 115.156 101.158 123.738 90.0031 123.738ZM102.455 131.103V145.464H77.5438V131.103C81.5129 129.974 85.693 129.37 89.9961 129.37C94.2992 129.37 98.4828 129.974 102.455 131.103ZM115.456 95.7673C116.244 95.7673 116.887 96.4037 116.887 97.1876C116.887 97.9716 116.244 98.615 115.456 98.615H64.543C63.7555 98.615 63.1121 97.9752 63.1121 97.1876C63.1121 96.4177 63.766 95.7673 64.543 95.7673H115.456ZM88.0766 77.4439V65.6841C88.0766 64.8615 88.7727 64.1654 89.5953 64.1654C90.418 64.1654 91.1176 64.8615 91.1176 65.6841V77.4439C91.1176 78.2666 90.4215 78.9626 89.5953 78.9626C88.7691 78.9626 88.0766 78.2666 88.0766 77.4439ZM71.9117 145.464H71.4688C68.6141 145.464 66.2902 147.792 66.2902 150.65V172.151H45.6395C45.1402 172.151 44.9469 172.053 44.9293 172.032C44.9258 172.028 44.4793 171.487 44.7641 169.191C46.8383 152.822 57.5223 139.358 71.9117 133.117V145.464ZM108.077 172.151H71.9223V151.093H108.077V172.151ZM135.07 172.028C135.045 172.053 134.852 172.151 134.36 172.151H113.709V150.65C113.709 147.792 111.385 145.464 108.53 145.464H108.088V133.117C122.505 139.368 133.2 152.865 135.246 169.276C135.52 171.487 135.073 172.025 135.07 172.028ZM77.0938 158.563C77.0938 157.01 78.3559 155.747 79.9098 155.747H100.089C101.643 155.747 102.905 157.01 102.905 158.563C102.905 165.683 97.1188 171.473 90.0031 171.473C82.8875 171.473 77.0938 165.683 77.0938 158.563Z" fill="#BBDC9D"/>
</svg>
