<svg width="60" height="60" viewBox="0 0 60 60" fill="none" xmlns="http://www.w3.org/2000/svg">
<rect x="2" y="2" width="56" height="56" rx="28" stroke="#CED1CE" stroke-width="4"/>
<path d="M19.4336 29.1502C19.4318 27.372 20.0817 25.6547 21.2604 24.3232C21.9673 23.5289 22.6548 22.7758 23.148 22.2826L30.0083 15.3033C30.4655 14.8738 31.0711 14.6378 31.6983 14.6447C32.3256 14.6516 32.9259 14.9009 33.3735 15.3403C33.8212 15.7798 34.0814 16.3754 34.0999 17.0024C34.1183 17.6294 33.8935 18.2393 33.4724 18.7043L26.6 25.7007C26.1457 26.1574 25.5287 26.8376 24.8995 27.5445C24.508 27.9883 24.292 28.5597 24.292 29.1515C24.292 29.7432 24.508 30.3146 24.8995 30.7584C25.5262 31.4629 26.1433 32.1431 26.583 32.5853L33.4724 39.5962C33.8935 40.0612 34.1183 40.671 34.0999 41.2981C34.0814 41.9251 33.8212 42.5207 33.3735 42.9602C32.9259 43.3996 32.3256 43.6489 31.6983 43.6558C31.0711 43.6627 30.4655 43.4267 30.0083 42.9972L23.1358 36.0057C22.65 35.5198 21.9698 34.774 21.2677 33.9821C20.0846 32.6508 19.4319 30.9313 19.4336 29.1502Z" fill="#CED1CE"/>
</svg>
