<svg width="60" height="60" viewBox="0 0 60 60" fill="none" xmlns="http://www.w3.org/2000/svg">
<rect x="2" y="2" width="56" height="56" rx="28" stroke="#CED1CE" stroke-width="4"/>
<path d="M38.5665 29.1535C38.5683 30.9318 37.9184 32.6491 36.7397 33.9805C36.0328 34.7749 35.3453 35.528 34.8521 36.0211L27.9918 43.0005C27.7722 43.2431 27.5057 43.4388 27.2086 43.5759C26.9114 43.713 26.5895 43.7886 26.2624 43.7982C25.9353 43.8078 25.6096 43.7513 25.3048 43.6319C25.0001 43.5125 24.7227 43.3328 24.4891 43.1035C24.2556 42.8742 24.0708 42.6001 23.9458 42.2976C23.8208 41.9951 23.7583 41.6705 23.7619 41.3433C23.7655 41.016 23.8352 40.6929 23.9667 40.3932C24.0983 40.0935 24.2891 39.8236 24.5277 39.5995L31.4001 32.6031C31.8544 32.1464 32.4714 31.4662 33.1006 30.7593C33.4921 30.3155 33.7081 29.7441 33.7081 29.1523C33.7081 28.5606 33.4921 27.9891 33.1006 27.5454C32.4739 26.8409 31.8568 26.1607 31.4171 25.7185L24.5277 18.7076C24.2891 18.4835 24.0983 18.2135 23.9667 17.9139C23.8352 17.6142 23.7655 17.2911 23.7619 16.9638C23.7583 16.6366 23.8208 16.3119 23.9458 16.0095C24.0708 15.707 24.2556 15.4329 24.4891 15.2036C24.7227 14.9743 25.0001 14.7946 25.3048 14.6752C25.6096 14.5558 25.9353 14.4992 26.2624 14.5089C26.5895 14.5185 26.9114 14.5941 27.2086 14.7312C27.5057 14.8683 27.7722 15.064 27.9918 15.3066L34.8643 22.3005C35.3501 22.7864 36.0303 23.5322 36.7324 24.3241C37.9149 25.6548 38.5676 27.3734 38.5665 29.1535Z" fill="#CED1CE"/>
</svg>
