<svg width="147" height="147" viewBox="0 0 147 147" fill="none" xmlns="http://www.w3.org/2000/svg">
<path d="M86.1977 33.6699V55.1137C86.1977 56.1174 85.422 56.893 84.4183 56.893H61.9708C60.967 56.893 60.1914 56.1174 60.1914 55.1137V33.6699H86.1977Z" fill="#A4D07C"/>
<path d="M103.125 33.6699H94.4109V55.1137C94.4109 60.6206 89.9306 65.101 84.4191 65.101H61.9716C56.4601 65.101 51.9797 60.6206 51.9797 55.1137V33.6699H43.2653C37.7447 33.6699 33.2734 38.1412 33.2734 43.6618V103.522C33.2734 109.042 37.7447 113.514 43.2653 113.514H103.125C108.646 113.514 113.117 109.042 113.117 103.522V43.6618C113.117 38.1412 108.646 33.6699 103.125 33.6699ZM64.2756 98.9867H51.9067C49.6391 98.9867 47.8004 97.148 47.8004 94.8804C47.8004 92.6129 49.6391 90.7742 51.9067 90.7742H64.2756C66.5432 90.7742 68.3819 92.6129 68.3819 94.8804C68.3819 97.148 66.5432 98.9867 64.2756 98.9867Z" fill="#A4D07C"/>
<path d="M133.649 5.61035H120.884C118.616 5.61035 116.777 7.44904 116.777 9.7166C116.777 11.9842 118.616 13.8229 120.884 13.8229H127.152L118.561 22.414C116.955 24.02 116.955 26.6207 118.561 28.2221C119.369 29.0251 120.418 29.4266 121.468 29.4266C122.517 29.4266 123.571 29.0251 124.369 28.2221L132.965 19.6309V25.9044C132.965 28.1719 134.804 30.0106 137.071 30.0106C139.339 30.0106 141.178 28.1719 141.178 25.9044V13.1385C141.178 8.9866 137.801 5.61035 133.649 5.61035Z" fill="#A4D07C"/>
<path d="M25.5088 133.361H19.24L27.8312 124.769C29.4372 123.163 29.4372 120.563 27.8312 118.961C26.2252 117.36 23.6245 117.355 22.0277 118.961L13.4273 127.553V121.279C13.4273 119.012 11.5887 117.173 9.32109 117.173C7.05353 117.173 5.21484 119.012 5.21484 121.279V134.045C5.21484 138.197 8.59109 141.573 12.743 141.573H25.5088C27.7764 141.573 29.6151 139.734 29.6151 137.467C29.6151 135.199 27.7764 133.361 25.5088 133.361Z" fill="#A4D07C"/>
<path d="M9.32109 30.0106C11.5887 30.0106 13.4273 28.1719 13.4273 25.9044V19.6309L22.0231 28.2267C22.8215 29.0251 23.8709 29.4266 24.9248 29.4266C25.9788 29.4266 27.0236 29.0251 27.8266 28.2221C29.4326 26.6161 29.4326 24.0155 27.8266 22.414L19.24 13.8229H25.5088C27.7764 13.8229 29.6151 11.9842 29.6151 9.7166C29.6151 7.44904 27.7764 5.61035 25.5088 5.61035H12.743C8.59109 5.61035 5.21484 8.9866 5.21484 13.1385V25.9044C5.21484 28.1719 7.05353 30.0106 9.32109 30.0106Z" fill="#A4D07C"/>
<path d="M137.071 117.173C134.803 117.173 132.964 119.012 132.964 121.279V127.553L124.369 118.957C122.767 117.351 120.167 117.351 118.565 118.957C116.964 120.563 116.959 123.163 118.565 124.765L127.156 133.356H120.887C118.62 133.356 116.781 135.195 116.781 137.462C116.781 139.73 118.62 141.569 120.887 141.569H133.653C137.805 141.569 141.181 138.192 141.181 134.04V121.275C141.177 119.012 139.338 117.173 137.071 117.173Z" fill="#A4D07C"/>
</svg>
