<svg width="60" height="61" viewBox="0 0 60 61" fill="none" xmlns="http://www.w3.org/2000/svg">
<rect y="0.332031" width="60" height="60" rx="30" fill="#CCD6D5"/>
<path fill-rule="evenodd" clip-rule="evenodd" d="M42.7541 19.3475L18.7266 43.375L16.667 41.3155L40.6945 17.288L42.7541 19.3475Z" fill="#00312D"/>
<path fill-rule="evenodd" clip-rule="evenodd" d="M39.6656 18.3171C34.8222 23.1606 35.1237 31.3776 39.6655 35.9195L40.6953 36.9492L42.7548 34.8897L41.7251 33.8599C38.2766 30.4115 38.0628 24.039 41.7252 20.3766L42.7545 19.3473L40.695 17.2878L39.6656 18.3171Z" fill="#00312D"/>
<path fill-rule="evenodd" clip-rule="evenodd" d="M41.7231 20.3765C36.8796 25.22 28.6626 24.9185 24.1207 20.3765L23.0909 19.3468L25.1504 17.2872L26.1802 18.317C29.6287 21.7655 36.0012 21.9794 39.6636 18.317L40.6929 17.2876L42.7524 19.3472L41.7231 20.3765Z" fill="#00312D"/>
</svg>
