<svg width="176" height="147" viewBox="0 0 176 147" fill="none" xmlns="http://www.w3.org/2000/svg">
<g clip-path="url(#clip0_623_1542)">
<path fill-rule="evenodd" clip-rule="evenodd" d="M109.888 60.8747C111.098 60.8747 112.258 61.3554 113.114 62.2111C113.969 63.0667 114.45 64.2272 114.45 65.4372V76.4557C114.45 77.6657 113.969 78.8262 113.114 79.6818C112.258 80.5375 111.098 81.0182 109.888 81.0182C108.678 81.0182 107.517 80.5375 106.661 79.6818C105.806 78.8262 105.325 77.6657 105.325 76.4557V76.4528L96.8052 84.9704C96.3818 85.3945 95.8789 85.7309 95.3254 85.9604C94.7718 86.19 94.1785 86.3081 93.5792 86.3081C92.98 86.3081 92.3866 86.19 91.833 85.9604C91.2795 85.7309 90.7766 85.3945 90.3532 84.9704L79.4466 74.0663L68.5394 84.9704C68.1187 85.4071 67.6153 85.7556 67.0585 85.9954C66.5016 86.2353 65.9026 86.3618 65.2963 86.3675C64.69 86.3732 64.0887 86.258 63.5275 86.0287C62.9662 85.7993 62.4563 85.4604 62.0275 85.0317C61.5988 84.6031 61.2597 84.0932 61.0303 83.532C60.8008 82.9708 60.6855 82.3695 60.6911 81.7633C60.6966 81.157 60.823 80.5579 61.0627 80.001C61.3025 79.4441 61.6508 78.9406 62.0874 78.5199L76.2203 64.3879C76.644 63.9641 77.147 63.628 77.7006 63.3987C78.2542 63.1693 78.8475 63.0513 79.4467 63.0513C80.0459 63.0513 80.6393 63.1693 81.1929 63.3987C81.7465 63.628 82.2494 63.9641 82.6731 64.3879L93.5789 75.2922L98.8723 69.9994H98.8686C97.6585 69.9994 96.498 69.5188 95.6424 68.6631C94.7868 67.8075 94.3061 66.647 94.3061 65.4369C94.3061 64.2269 94.7868 63.0664 95.6424 62.2108C96.498 61.3551 97.6585 60.8744 98.8686 60.8744L109.888 60.8747ZM87.6003 106.668C94.1426 106.668 100.538 104.728 105.978 101.093C111.417 97.4586 115.657 92.2925 118.161 86.2483C120.664 80.2041 121.319 73.5532 120.043 67.1366C118.767 60.7201 115.616 54.8261 110.99 50.2001C106.364 45.574 100.47 42.4236 94.0536 41.1473C87.637 39.871 80.9861 40.526 74.9419 43.0296C68.8976 45.5332 63.7316 49.773 60.0969 55.2126C56.4622 60.6523 54.5222 67.0476 54.5222 73.5899C54.5316 82.3598 58.0197 90.7679 64.221 96.9692C70.4223 103.171 78.8304 106.659 87.6003 106.668ZM153.084 62.9934C155.411 60.7396 156.918 57.7725 157.365 54.5639C157.812 51.3552 157.174 48.0893 155.551 45.2852L146.089 28.8973C144.472 26.0899 141.963 23.9036 138.961 22.6863C135.958 21.4691 132.635 21.2906 129.52 22.1793L123.182 23.9812C122.458 24.2088 121.692 24.2717 120.94 24.1652C120.188 24.0586 119.469 23.7855 118.836 23.3656C117.741 22.6835 116.608 22.0279 115.469 21.4177C114.791 21.0793 114.197 20.5936 113.73 19.9961C113.263 19.3985 112.936 18.7043 112.772 17.9641L111.164 11.5826C110.376 8.44009 108.56 5.65121 106.005 3.65938C103.45 1.66755 100.302 0.587116 97.0624 0.589849H78.1386C74.8986 0.586989 71.7507 1.66737 69.1954 3.65921C66.6401 5.65104 64.824 8.44 64.0359 11.5826L62.4279 17.9641C62.2642 18.7043 61.9371 19.3985 61.4706 19.996C61.0042 20.5935 60.41 21.0793 59.7317 21.4177C58.5945 22.0279 57.4613 22.6835 56.364 23.3656C55.7312 23.7855 55.0126 24.0587 54.2607 24.1652C53.5087 24.2717 52.7425 24.2089 52.018 23.9812L45.6807 22.1793C42.5652 21.2906 39.242 21.469 36.2397 22.6863C33.2373 23.9036 30.7282 26.0898 29.1114 28.8973L19.6493 45.2852C18.027 48.0894 17.3887 51.3553 17.8357 54.5639C18.2828 57.7725 19.7895 60.7395 22.1165 62.9934L26.8501 67.5876C27.4093 68.0996 27.8469 68.7302 28.1308 69.4333C28.4147 70.1364 28.5377 70.894 28.4909 71.6508C28.4695 72.2955 28.4589 72.946 28.4589 73.5899C28.4589 74.2337 28.4695 74.8876 28.4909 75.5289C28.538 76.2863 28.4149 77.0446 28.1307 77.7483C27.8466 78.4519 27.4085 79.083 26.8486 79.5952L22.1151 84.1894C19.7881 86.4433 18.2813 89.4104 17.8343 92.6189C17.3873 95.8275 18.0256 99.0935 19.6479 101.898L29.1099 118.286C30.7267 121.093 33.2358 123.279 36.2381 124.497C39.2404 125.714 42.5635 125.892 45.6789 125.004L52.0163 123.202C52.7409 122.974 53.5071 122.911 54.2591 123.018C55.0111 123.124 55.7298 123.398 56.3626 123.818C57.4582 124.499 58.5908 125.155 59.7294 125.765C60.4076 126.103 61.0016 126.588 61.4682 127.185C61.9349 127.782 62.2622 128.476 62.4265 129.216L64.0345 135.6C64.8228 138.743 66.6392 141.531 69.1949 143.523C71.7506 145.514 74.8987 146.594 78.1386 146.59H97.0624C100.302 146.593 103.45 145.513 106.005 143.522C108.56 141.531 110.376 138.742 111.164 135.6L112.773 129.215C112.937 128.475 113.264 127.781 113.73 127.183C114.197 126.586 114.791 126.1 115.469 125.762C116.604 125.155 117.736 124.499 118.833 123.815C119.466 123.395 120.184 123.122 120.937 123.016C121.689 122.91 122.455 122.973 123.179 123.201L129.52 125.004C132.635 125.891 135.958 125.713 138.96 124.495C141.963 123.278 144.472 121.092 146.089 118.285L155.551 101.897C157.174 99.0933 157.812 95.8273 157.365 92.6187C156.918 89.4101 155.411 86.443 153.084 84.1891L148.352 79.5981C147.793 79.0853 147.356 78.4541 147.072 77.7506C146.787 77.0471 146.664 76.289 146.71 75.5318C146.731 74.887 146.742 74.234 146.742 73.5893C146.742 72.9445 146.731 72.295 146.71 71.6536C146.663 70.8963 146.786 70.1379 147.07 69.4343C147.354 68.7307 147.792 68.0995 148.352 67.5873L153.084 62.9934Z" fill="#BADC9D"/>
</g>
<defs>
<clipPath id="clip0_623_1542">
<rect width="146" height="146" fill="white" transform="translate(14.6016 0.589844)"/>
</clipPath>
</defs>
</svg>
