<svg width="147" height="146" viewBox="0 0 147 146" fill="none" xmlns="http://www.w3.org/2000/svg">
<path fill-rule="evenodd" clip-rule="evenodd" d="M73.2006 59.0923C52.7606 59.0923 36.1328 75.7201 36.1328 96.1601V98.8368C36.1328 106.664 42.0134 113.153 49.8406 113.883C56.2484 114.451 64.1567 114.694 73.2411 114.694C82.3256 114.694 90.2745 114.41 96.6823 113.842C104.469 113.112 110.349 106.623 110.349 98.7962V96.1195C110.349 75.6795 93.7217 59.0518 73.2817 59.0518L73.2006 59.0923ZM94.33 83.0606C90.7206 87.4812 83.2989 96.5251 78.5134 102.365C77.3778 103.744 75.715 104.596 73.89 104.677C72.1056 104.758 70.3617 104.068 69.0639 102.811C67.8067 101.554 67.1173 99.7695 67.1984 97.9851C67.2795 96.2006 68.1311 94.4973 69.51 93.3618C75.35 88.5762 84.4345 81.1545 88.855 77.5451C90.315 76.3284 92.4645 76.4501 93.8434 77.7884C95.3845 79.1268 95.6278 81.4384 94.33 82.9795V83.0606Z" fill="#A4D07C"/>
<path fill-rule="evenodd" clip-rule="evenodd" d="M132.656 13.5487C129.168 10.0609 124.464 8.11426 119.556 8.11426H26.8464C21.9392 8.11426 17.2347 10.0609 13.7469 13.5487C10.2592 17.0365 8.3125 21.7409 8.3125 26.6481V119.358C8.3125 124.265 10.2592 128.97 13.7469 132.458C17.2347 135.945 21.9392 137.892 26.8464 137.892H119.556C124.464 137.892 129.168 135.945 132.656 132.458C136.144 128.97 138.09 124.265 138.09 119.358V26.6481C138.09 21.7409 136.144 17.0365 132.656 13.5487ZM45.3803 22.0248C47.9353 22.0248 50.0036 24.0931 50.0036 26.6481C50.0036 29.2031 47.9353 31.2715 45.3803 31.2715C42.8253 31.2715 40.7569 29.2031 40.7569 26.6481C40.7569 24.0931 42.8253 22.0248 45.3803 22.0248ZM22.2231 26.6481C22.2231 24.0931 24.2914 22.0248 26.8464 22.0248C29.4014 22.0248 31.4697 24.0931 31.4697 26.6481C31.4697 29.2031 29.4014 31.2715 26.8464 31.2715C24.2914 31.2715 22.2231 29.2031 22.2231 26.6481ZM119.556 98.8776C119.556 111.49 110.066 121.954 97.4536 123.13C90.7619 123.698 82.6103 124.022 73.2014 124.022C63.7925 124.022 55.7219 123.738 48.9897 123.17C36.3364 121.954 26.8464 111.531 26.8464 98.8776V96.2009C26.8464 70.6509 47.6514 49.8459 73.2014 49.8459C98.7514 49.8459 119.556 70.6509 119.556 96.2009V98.8776Z" fill="#A4D07C"/>
</svg>
