<svg width="27" height="27" viewBox="0 0 27 27" fill="none" xmlns="http://www.w3.org/2000/svg">
<g clip-path="url(#clip0_316_2198)">
<path d="M26.6703 25.0761L19.9551 18.361C21.7851 16.1229 22.6848 13.2671 22.4682 10.3842C22.2516 7.50137 20.9352 4.81206 18.7914 2.87254C16.6476 0.933033 13.8403 -0.108287 10.9502 -0.0360266C8.06015 0.0362342 5.30842 1.21655 3.26419 3.26077C1.21997 5.305 0.0396521 8.05674 -0.0326086 10.9468C-0.104869 13.8369 0.936451 16.6442 2.87596 18.788C4.81547 20.9318 7.50479 22.2482 10.3876 22.4648C13.2705 22.6814 16.1263 21.7817 18.3644 19.9517L25.0795 26.6668C25.2917 26.8718 25.5759 26.9852 25.8708 26.9826C26.1658 26.98 26.448 26.8617 26.6565 26.6531C26.8651 26.4445 26.9834 26.1624 26.986 25.8674C26.9886 25.5724 26.8752 25.2883 26.6703 25.0761ZM11.2499 20.2465C9.46984 20.2465 7.72979 19.7186 6.24974 18.7297C4.7697 17.7408 3.61615 16.3351 2.93496 14.6906C2.25377 13.0461 2.07554 11.2365 2.42281 9.49065C2.77008 7.74482 3.62724 6.14117 4.88592 4.8825C6.14459 3.62382 7.74823 2.76666 9.49406 2.41939C11.2399 2.07212 13.0495 2.25035 14.694 2.93154C16.3386 3.61273 17.7442 4.76628 18.7331 6.24633C19.722 7.72637 20.2499 9.46643 20.2499 11.2465C20.2472 13.6326 19.2981 15.9202 17.6109 17.6075C15.9236 19.2947 13.636 20.2438 11.2499 20.2465Z" fill="#CED1CE"/>
</g>
<defs>
<clipPath id="clip0_316_2198">
<rect width="27" height="27" fill="white"/>
</clipPath>
</defs>
</svg>
