<svg width="176" height="147" viewBox="0 0 176 147" fill="none" xmlns="http://www.w3.org/2000/svg">
<g clip-path="url(#clip0_623_1273)">
<path d="M88.4627 104.549C66.6451 107.888 46.8242 90.8906 46.8242 68.7422C46.8242 48.7727 63.0696 32.5273 83.0391 32.5273C101.754 32.5273 117.195 46.7937 119.063 65.0209C119.242 64.8555 119.419 64.6873 119.59 64.5162C124.605 59.5017 132.722 59.5006 137.738 64.5162C141.262 68.0421 146.777 70.0953 151.191 71.1863V58.5222C151.191 56.365 149.585 54.5454 147.444 54.2779L133.317 52.5131C132.463 49.8668 131.4 47.2916 130.139 44.8127L139.631 32.6069C140.955 30.9042 140.804 28.4824 139.28 26.9571L124.828 12.5025C123.302 10.9767 120.88 10.8261 119.177 12.1506L106.972 21.6444C104.491 20.3823 101.915 19.3189 99.2682 18.4646L97.503 4.33737C97.2358 2.19641 95.4163 0.589844 93.2591 0.589844H72.8191C70.6619 0.589844 68.8423 2.19641 68.5748 4.3368L66.81 18.464C64.1629 19.3183 61.5868 20.3817 59.1065 21.6438L46.9012 12.1501C45.1988 10.8255 42.7759 10.9764 41.2503 12.502L26.7986 26.9565C25.2735 28.4818 25.1227 30.9039 26.4467 32.6063L35.9387 44.8122C34.6774 47.2916 33.6149 49.8668 32.7609 52.5125L18.6337 54.2774C16.4933 54.5454 14.8867 56.365 14.8867 58.5222V78.9622C14.8867 81.1194 16.4933 82.939 18.6337 83.2065L32.7609 84.9713C33.6146 87.6172 34.6774 90.1925 35.9387 92.6716L26.4467 104.877C25.1227 106.58 25.2735 109.002 26.7986 110.527L41.2503 124.982C42.7753 126.507 45.1983 126.658 46.9012 125.334L59.1065 115.84C61.5868 117.102 64.1629 118.165 66.81 119.02L68.5748 133.147C68.8423 135.287 70.6619 136.894 72.8191 136.894H93.2591C95.4006 136.894 97.2073 135.31 97.4953 133.193C91.8407 124.858 88.6045 114.931 88.4627 104.549Z" fill="#BADC9D"/>
<path d="M110.676 69.8001C111.42 54.5696 98.9739 41.082 83.0391 41.082C67.7861 41.082 55.3789 53.4892 55.3789 68.7422C55.3789 86.1213 71.3371 99.2984 88.457 95.8691V84.9961C88.457 78.2864 93.6839 72.6773 100.371 72.1983C102.353 72.0357 106.476 71.3485 110.676 69.8001Z" fill="#BADC9D"/>
<path d="M156.331 80.7288C156.283 80.7254 154.81 80.6121 152.536 80.2058V80.2061C145.067 78.8747 137.034 75.9108 131.69 70.5644C130.029 68.9033 127.316 68.8871 125.639 70.5644C121.133 75.0701 114.743 77.8333 108.563 79.3957C104.26 80.4821 101.069 80.7245 101.004 80.7273C98.7569 80.8785 97.0117 82.7434 97.0117 84.9961V103.836C97.0117 119.518 105.503 134.192 119.307 141.957L126.567 146.041C127.869 146.773 129.459 146.773 130.761 146.041L138.021 141.957C151.774 134.221 160.317 119.614 160.317 103.835V84.9961C160.317 82.75 158.572 80.8856 156.331 80.7288ZM137.615 106.03L130.771 114.014C129.152 115.904 126.261 116.017 124.499 114.255L121.077 110.833C119.407 109.163 119.407 106.455 121.077 104.784C122.748 103.114 125.456 103.114 127.127 104.784L127.282 104.94L131.12 100.463C132.657 98.6688 135.358 98.4612 137.151 99.9988C138.945 101.536 139.152 104.236 137.615 106.03Z" fill="#BADC9D"/>
</g>
<defs>
<clipPath id="clip0_623_1273">
<rect width="146" height="146" fill="white" transform="translate(14.6016 0.589844)"/>
</clipPath>
</defs>
</svg>
