<svg width="82" height="121" viewBox="0 0 82 121" fill="none" xmlns="http://www.w3.org/2000/svg">
<path d="M55.4883 20.6085C55.1496 20.2701 54.7268 20.028 54.2635 19.9073C53.8002 19.7866 53.313 19.7916 52.8522 19.9218H52.827L20.5178 29.7253C19.9932 29.8765 19.527 30.1834 19.1809 30.6056C18.8348 31.0277 18.6251 31.545 18.5797 32.089C18.5342 32.633 18.6551 33.1779 18.9264 33.6516C19.1976 34.1253 19.6064 34.5054 20.0986 34.7415L34.3932 41.7036L41.3452 55.9898C41.5614 56.4512 41.9052 56.8412 42.3359 57.1135C42.7667 57.3858 43.2663 57.5292 43.7759 57.5267C43.8533 57.5267 43.9308 57.5233 44.0082 57.5166C44.5517 57.4725 45.0688 57.2634 45.49 56.917C45.9113 56.5707 46.2165 56.1039 46.3648 55.5791L56.1616 23.2698C56.1616 23.2614 56.1616 23.253 56.1616 23.2446C56.2935 22.785 56.3006 22.2986 56.1823 21.8353C56.0639 21.372 55.8244 20.9486 55.4883 20.6085ZM43.791 54.8081L43.7826 54.8317V54.8199L37.0393 40.9664L45.1192 32.8865C45.361 32.6319 45.4939 32.2929 45.4894 31.9418C45.4849 31.5906 45.3434 31.2551 45.0951 31.0068C44.8468 30.7585 44.5113 30.617 44.1601 30.6125C43.809 30.608 43.47 30.7408 43.2154 30.9827L35.1355 39.0626L21.2769 32.3193H21.2651H21.2887L53.5828 22.514L43.791 54.8081Z" fill="#8C8C8C"/>
<path d="M4.27693 108.136V107.651H7.27062V108.081C7.27062 109.273 7.63559 110.164 8.36554 110.756C9.10472 111.338 10.135 111.629 11.4562 111.629C12.7683 111.629 13.7708 111.338 14.4638 110.756C15.166 110.164 15.5171 109.388 15.5171 108.427C15.5171 107.531 15.1845 106.82 14.5192 106.293C13.854 105.766 12.5512 105.207 10.6108 104.616C8.54109 103.978 7.03039 103.225 6.07869 102.357C5.12699 101.479 4.65114 100.232 4.65114 98.6146C4.65114 96.9976 5.24249 95.6763 6.42518 94.6507C7.61711 93.6159 9.25255 93.0984 11.3315 93.0984C13.392 93.0984 15.0367 93.6251 16.2656 94.6784C17.5037 95.7225 18.1227 97.1178 18.1227 98.8641V99.266H15.1568V98.9056C15.1568 97.88 14.8334 97.0577 14.1866 96.4386C13.5491 95.8196 12.602 95.51 11.3454 95.51C10.061 95.51 9.11858 95.778 8.51799 96.3139C7.92665 96.8406 7.63097 97.5566 7.63097 98.4621C7.63097 99.303 7.94974 99.9682 8.58729 100.458C9.22484 100.938 10.523 101.474 12.4819 102.066C14.5331 102.685 16.0484 103.465 17.0278 104.408C18.0165 105.341 18.5108 106.639 18.5108 108.303C18.5108 110.03 17.8733 111.416 16.5982 112.46C15.3231 113.505 13.6091 114.027 11.4562 114.027C9.31261 114.027 7.58015 113.514 6.25886 112.488C4.93758 111.463 4.27693 110.012 4.27693 108.136ZM21.3105 113.652V92.7381H24.2349V101.484C24.6876 100.846 25.2882 100.338 26.0366 99.959C26.785 99.5802 27.6443 99.3907 28.6145 99.3907C29.9358 99.3907 31.0122 99.7927 31.8438 100.597C32.6846 101.4 33.1051 102.726 33.1051 104.574V113.652H30.1807V104.741C30.1807 103.669 29.9404 102.906 29.46 102.454C28.9887 101.992 28.3281 101.761 27.478 101.761C26.7388 101.761 26.0874 101.964 25.5238 102.371C24.9694 102.777 24.5398 103.313 24.2349 103.978V113.652H21.3105ZM35.8493 109.578C35.8493 108.145 36.4129 107.032 37.5402 106.237C38.6674 105.443 40.1181 105.041 41.8921 105.032H45.0244V104.034C45.0244 103.239 44.8211 102.611 44.4146 102.149C44.008 101.678 43.3104 101.442 42.3217 101.442C41.3423 101.442 40.6309 101.641 40.1874 102.038C39.7438 102.426 39.5221 102.916 39.5221 103.507V103.687H36.6531V103.452C36.6531 102.297 37.1752 101.317 38.2193 100.513C39.2634 99.7003 40.6678 99.2937 42.4326 99.2937C44.1882 99.2937 45.5464 99.6818 46.5074 100.458C47.4683 101.234 47.9488 102.435 47.9488 104.061V110.381C47.9488 110.973 47.995 111.532 48.0874 112.058C48.1798 112.585 48.3137 113.043 48.4893 113.431V113.652H45.6481C45.5187 113.421 45.4032 113.13 45.3016 112.779C45.2092 112.419 45.1491 112.058 45.1214 111.698C44.8072 112.271 44.2667 112.784 43.4998 113.237C42.7422 113.68 41.7766 113.902 40.6031 113.902C39.2357 113.902 38.0992 113.537 37.1937 112.807C36.2974 112.068 35.8493 110.991 35.8493 109.578ZM38.7737 109.384C38.7737 110.141 38.9908 110.728 39.4251 111.144C39.8686 111.56 40.5385 111.767 41.4347 111.767C42.3679 111.767 43.1995 111.453 43.9295 110.825C44.6594 110.197 45.0244 109.494 45.0244 108.718V106.944H42.3772C41.1668 106.944 40.2613 107.161 39.6607 107.596C39.0693 108.021 38.7737 108.617 38.7737 109.384ZM51.5523 113.652V99.6818H54.3242L54.3935 101.456H54.449C54.8001 100.864 55.2621 100.361 55.8349 99.9451C56.417 99.5293 57.0962 99.3214 57.8723 99.3214C58.0756 99.3214 58.2835 99.3399 58.496 99.3769C58.7177 99.4138 58.8748 99.4508 58.9672 99.4878V102.052C58.7917 102.006 58.6022 101.973 58.399 101.955C58.1957 101.927 57.9693 101.913 57.7198 101.913C56.9991 101.913 56.3524 102.121 55.7795 102.537C55.2159 102.953 54.7908 103.484 54.5044 104.131V113.652H51.5523ZM59.9651 106.875V106.431C59.9651 104.306 60.5657 102.588 61.7669 101.276C62.968 99.9544 64.5434 99.2937 66.493 99.2937C68.4519 99.2937 69.9626 99.9128 71.0251 101.151C72.0877 102.38 72.619 104.066 72.619 106.21V107.291H61.753V105.253H69.7223V105.004C69.7223 104.061 69.4544 103.253 68.9185 102.578C68.3918 101.895 67.6018 101.553 66.5485 101.553C65.338 101.553 64.4279 102.001 63.8181 102.897C63.2083 103.793 62.9034 104.939 62.9034 106.334V106.93C62.9034 108.344 63.2268 109.504 63.8735 110.409C64.5203 111.305 65.4951 111.754 66.7979 111.754C67.648 111.754 68.3733 111.569 68.9739 111.199C69.5837 110.82 70.0688 110.368 70.4292 109.841L72.4804 111.171C72.0461 111.929 71.3485 112.594 70.3876 113.167C69.4266 113.74 68.2393 114.027 66.8256 114.027C64.6358 114.027 62.9449 113.371 61.753 112.058C60.5611 110.746 59.9651 109.019 59.9651 106.875Z" fill="#8C8C8C"/>
</svg>
