<svg width="147" height="147" viewBox="0 0 147 147" fill="none" xmlns="http://www.w3.org/2000/svg">
<g clip-path="url(#clip0_249_17428)">
<path d="M98.9578 70.7055L82.5554 65.237L79.7276 39.7957C79.5265 37.1881 75.9358 36.1342 74.3512 38.2066L46.9762 71.6649C45.6189 73.2213 46.3879 75.8793 48.3664 76.474L64.7688 81.9425L67.5966 107.384C67.8021 109.986 71.3759 111.056 72.973 108.973L100.348 75.5146C101.705 73.9582 100.936 71.3002 98.9578 70.7055Z" fill="#A4D07C"/>
<path d="M20.6954 92.0184L29.5189 93.7828C26.5875 87.4741 24.9935 80.6441 24.9935 73.5901C24.9935 63.7225 27.8926 54.348 33.4175 46.2686L37.9384 51.2915C39.5212 53.1486 42.7808 52.2458 43.1841 49.8538L49.2674 19.4371C49.6771 17.6185 48.147 15.7535 46.2852 15.7985H12.8268C10.2746 15.7138 8.79394 19.0324 10.5634 20.8748L16.8428 27.8492C6.38707 40.815 0.660156 56.9531 0.660156 73.5901C0.660156 86.0936 3.81729 98.0456 9.78516 108.768V100.965C9.78516 98.2205 11.003 95.6422 13.1298 93.9075C15.2506 92.1669 18.0072 91.4837 20.6954 92.0184Z" fill="#A4D07C"/>
<path d="M53.3446 13.0595C55.0852 15.1803 55.7684 17.9368 55.2338 20.625L53.4556 29.5168C68.7089 22.6059 87.1055 23.8657 100.984 33.3501L95.9636 37.871C94.1044 39.4354 95.0022 42.7154 97.4013 43.1138L127.815 49.1971C129.634 49.6067 131.499 48.0767 131.454 46.2149V12.7565C131.54 10.208 128.208 8.71341 126.374 10.4961L119.406 16.7725C106.437 6.31676 90.2961 0.589844 73.662 0.589844C61.1518 0.589844 49.2005 3.74515 38.4805 9.71485H46.287C49.0316 9.71485 51.6099 10.9327 53.3446 13.0595Z" fill="#A4D07C"/>
<path d="M93.9777 134.12C92.2371 132 91.5539 129.243 92.0885 126.555L93.8663 117.665C78.6175 124.577 60.2212 123.317 46.3388 113.83L51.3588 109.309C53.2179 107.745 52.3201 104.465 49.9211 104.066L19.5074 97.9829C17.6887 97.5733 15.8237 99.1033 15.8687 100.965V134.424C15.7866 136.976 19.097 138.454 20.948 136.684L27.9166 130.408C40.8853 140.863 57.0263 146.59 73.6604 146.59C86.1705 146.59 98.1219 143.435 108.842 137.465H101.035C98.2908 137.465 95.7124 136.247 93.9777 134.12Z" fill="#A4D07C"/>
<path d="M130.476 119.33C140.932 106.365 146.658 90.2266 146.658 73.5895C146.658 61.0861 143.501 49.134 137.533 38.4121V46.2145C137.533 48.9592 136.316 51.5375 134.189 53.2722C132.068 55.0128 129.311 55.696 126.623 55.1614L117.8 53.3969C120.731 59.7057 122.325 66.5357 122.325 73.5896C122.325 83.4572 119.426 92.8317 113.901 100.911L109.38 95.8882C107.802 94.0312 104.537 94.9335 104.135 97.3259L98.0513 127.743C97.6416 129.561 99.1717 131.426 101.034 131.381H134.492C137.044 131.466 138.525 128.147 136.755 126.305L130.476 119.33Z" fill="#A4D07C"/>
</g>
<defs>
<clipPath id="clip0_249_17428">
<rect width="146" height="146" fill="white" transform="translate(0.660156 0.589844)"/>
</clipPath>
</defs>
</svg>
