<svg width="61" height="61" viewBox="0 0 61 61" fill="none" xmlns="http://www.w3.org/2000/svg">
<rect x="0.5" y="0.694336" width="60" height="60" rx="30" fill="#D0E2D2"/>
<path d="M19.9336 29.8446C19.9318 28.0663 20.5817 26.349 21.7604 25.0176C22.4673 24.2232 23.1548 23.4701 23.648 22.977L30.5083 15.9976C30.9655 15.5681 31.5711 15.3321 32.1983 15.339C32.8256 15.3459 33.4259 15.5952 33.8735 16.0347C34.3212 16.4741 34.5814 17.0697 34.5999 17.6967C34.6183 18.3238 34.3935 18.9336 33.9724 19.3986L27.1 26.395C26.6457 26.8517 26.0287 27.5319 25.3995 28.2388C25.008 28.6826 24.792 29.254 24.792 29.8458C24.792 30.4376 25.008 31.009 25.3995 31.4528C26.0262 32.1573 26.6433 32.8375 27.083 33.2796L33.9724 40.2905C34.3935 40.7555 34.6183 41.3654 34.5999 41.9924C34.5814 42.6194 34.3212 43.215 33.8735 43.6545C33.4259 44.094 32.8256 44.3432 32.1983 44.3501C31.5711 44.357 30.9655 44.121 30.5083 43.6915L23.6358 36.7C23.15 36.2142 22.4698 35.4684 21.7677 34.6764C20.5846 33.3451 19.9319 31.6256 19.9336 29.8446Z" fill="#00312D"/>
</svg>
