<svg width="61" height="61" viewBox="0 0 61 61" fill="none" xmlns="http://www.w3.org/2000/svg">
<rect x="0.5" y="0.694336" width="60" height="60" rx="30" fill="#D0E2D2"/>
<path d="M39.0665 29.8479C39.0683 31.6261 38.4184 33.3434 37.2397 34.6749C36.5328 35.4692 35.8453 36.2223 35.3521 36.7155L28.4918 43.6948C28.2722 43.9374 28.0057 44.1331 27.7086 44.2702C27.4114 44.4073 27.0895 44.4829 26.7624 44.4926C26.4353 44.5022 26.1096 44.4456 25.8048 44.3262C25.5001 44.2068 25.2227 44.0271 24.9891 43.7978C24.7556 43.5685 24.5708 43.2944 24.4458 42.9919C24.3208 42.6895 24.2583 42.3649 24.2619 42.0376C24.2655 41.7103 24.3352 41.3872 24.4667 41.0875C24.5983 40.7879 24.7891 40.5179 25.0277 40.2938L31.9001 33.2975C32.3544 32.8408 32.9714 32.1606 33.6006 31.4536C33.9921 31.0098 34.2081 30.4384 34.2081 29.8467C34.2081 29.2549 33.9921 28.6835 33.6006 28.2397C32.9739 27.5352 32.3568 26.855 31.9171 26.4129L25.0277 19.4019C24.7891 19.1779 24.5983 18.9079 24.4667 18.6082C24.3352 18.3086 24.2655 17.9854 24.2619 17.6582C24.2583 17.3309 24.3208 17.0063 24.4458 16.7038C24.5708 16.4013 24.7556 16.1272 24.9891 15.8979C25.2227 15.6687 25.5001 15.4889 25.8048 15.3695C26.1096 15.2502 26.4353 15.1936 26.7624 15.2032C27.0895 15.2128 27.4114 15.2884 27.7086 15.4255C28.0057 15.5626 28.2722 15.7583 28.4918 16.0009L35.3643 22.9949C35.8501 23.4807 36.5303 24.2265 37.2324 25.0185C38.4149 26.3491 39.0676 28.0677 39.0665 29.8479Z" fill="black"/>
</svg>
