<svg width="138" height="138" viewBox="0 0 138 138" fill="none" xmlns="http://www.w3.org/2000/svg">
<path d="M46.5644 58.4772C49.9533 58.4772 52.7136 61.2373 52.7136 64.6263V64.7278L52.7745 64.6467C53.9512 63.4899 55.4936 62.8608 57.1375 62.8608C58.7815 62.8608 60.3035 63.4899 61.4602 64.6467L70.7548 73.9413C71.932 75.1184 72.5813 76.6607 72.5613 78.3249C72.5613 79.9484 71.9117 81.4908 70.7548 82.6475L70.6939 82.7084H70.7954C71.3841 82.7084 71.932 82.7896 72.48 82.9519H80.6383C81.1863 82.9519 81.653 82.5055 81.653 81.9372V16.7525C81.653 12.8763 78.7711 9.52776 74.9762 8.95959C63.2664 7.23452 51.0696 7.21433 39.6846 8.95959C35.9303 9.52776 33.1094 12.856 33.1094 16.712V58.4975C33.2107 58.4772 33.3123 58.4772 33.4138 58.4772H46.5644ZM42.2417 19.959C42.2417 18.7414 43.1348 17.686 44.3521 17.544C48.5125 17.0569 52.8352 16.7931 57.1579 16.7931C61.6428 16.7931 66.067 17.0569 70.3897 17.5643C71.6073 17.7064 72.5206 18.7617 72.5206 19.9793V41.4302C72.5206 42.7695 71.4247 43.8452 70.0852 43.8452H44.6569C43.3171 43.8452 42.2417 42.7695 42.2417 41.4302V19.959Z" fill="#D8E7DA"/>
<path d="M88.5909 92.1657L94.7401 86.0165C95.6736 85.0831 96.9318 84.5351 98.2916 84.5351C99.0628 84.5351 99.8136 84.6975 100.483 85.0221C101.194 83.0537 103.081 81.6534 105.273 81.6534H113.938C116.13 81.6534 117.997 83.0537 118.708 85.0221C118.89 84.941 119.073 84.8598 119.255 84.7786V73.9213C119.255 69.1928 115.562 65.3571 110.854 65.1746L83.6799 64.0381V81.9374C83.6799 83.6218 82.3201 84.9815 80.6358 84.9815H79.6211V96.0825C79.6211 99.228 81.5286 101.947 84.2279 103.124V102.698C84.2279 100.486 85.6484 98.5989 87.6169 97.8887C86.7443 96.0013 87.0689 93.7081 88.5909 92.1657Z" fill="#D8E7DA"/>
<path d="M70.7923 84.7349H65.8912C65.8813 84.7091 65.8714 84.6853 65.8615 84.6596L69.3218 81.1973C70.1007 80.4283 70.5327 79.4037 70.5367 78.3077C70.5406 77.2019 70.1106 76.1614 69.3277 75.3805L60.0309 66.0837C58.4395 64.4923 55.8333 64.4883 54.2181 66.0837L50.744 69.5579C50.7202 69.55 50.6984 69.54 50.6766 69.5301V64.6191C50.6766 62.3539 48.8335 60.5107 46.5682 60.5107H33.4187C31.1534 60.5107 29.3103 62.3539 29.3103 64.6191V69.5182C29.2845 69.5282 29.2607 69.5381 29.235 69.55L25.7648 66.0787C24.1515 64.4883 21.5454 64.4913 19.956 66.0837L10.6591 75.3805C9.88422 76.1535 9.45614 77.186 9.45614 78.2859C9.45614 79.3859 9.88422 80.4184 10.6591 81.1913L14.1135 84.6477C14.1016 84.6754 14.0897 84.7051 14.0778 84.7349H9.17868C6.91343 84.7349 5.07031 86.578 5.07031 88.8432V101.993C5.07031 104.258 6.91343 106.101 9.17868 106.101H14.0719C14.0857 106.135 14.0996 106.171 14.1135 106.204L10.6591 109.659C9.88224 110.435 9.45416 111.464 9.45019 112.556C9.44821 113.654 9.87629 114.689 10.6591 115.471L11.8284 116.641C11.8301 116.642 11.8306 116.645 11.8324 116.647L19.956 124.77C20.1512 124.962 20.362 125.129 20.5832 125.274C22.1781 126.325 24.3576 126.162 25.7687 124.768L28.3154 122.222H29.3103V126.231C29.3103 128.498 31.1534 130.341 33.4187 130.341H46.5682C48.8335 130.341 50.6766 128.498 50.6766 126.231V121.332C50.7004 121.322 50.7261 121.31 50.7499 121.3L54.2221 124.772C55.8215 126.352 58.4236 126.356 60.0309 124.768L69.3277 115.471C70.1145 114.685 70.5466 113.646 70.5426 112.546C70.5387 111.454 70.1066 110.426 69.3277 109.659L65.8575 106.188C65.8694 106.161 65.8833 106.131 65.8932 106.101H70.7923C73.0576 106.101 74.9007 104.258 74.9007 101.993V88.8432C74.9007 86.578 73.0576 84.7349 70.7923 84.7349ZM39.9905 108.028C33.0421 108.028 27.3899 102.373 27.3899 95.423C27.3899 88.4746 33.0421 82.8224 39.9905 82.8224C46.9408 82.8224 52.597 88.4746 52.597 95.423C52.597 102.373 46.9408 108.028 39.9905 108.028Z" fill="#D8E7DA"/>
<path d="M129.866 99.6325H127.411L129.145 97.8984C129.726 97.3177 130.047 96.5488 130.047 95.7322C130.045 94.9177 129.726 94.1507 129.145 93.572L123.041 87.466C122.472 86.8873 121.711 86.5642 120.9 86.5603C120.894 86.5603 120.889 86.5603 120.885 86.5603C120.072 86.5603 119.305 86.8793 118.722 87.46L116.974 89.2021V86.7406C116.974 85.0541 115.611 83.6826 113.934 83.6826H105.272C103.585 83.6826 102.214 85.0541 102.214 86.7406V89.1822L100.481 87.46C99.9047 86.8833 99.1377 86.5662 98.3192 86.5662C98.3133 86.5662 98.3093 86.5662 98.3053 86.5662C97.4908 86.5702 96.7298 86.8892 96.1689 87.46L90.0371 93.578C88.8698 94.7671 88.8698 96.7014 90.045 97.9004L91.7871 99.6325H89.3236C87.6371 99.6325 86.2656 101.004 86.2656 102.689V111.335C86.2656 113.02 87.6371 114.391 89.3236 114.391H91.793L90.043 116.139C88.8559 117.33 88.8559 119.265 90.043 120.452L96.1768 126.586C97.358 127.743 99.2883 127.747 100.481 126.578L102.214 124.846V127.283C102.214 128.97 103.585 130.341 105.272 130.341H113.934C115.611 130.341 116.974 128.97 116.974 127.283V124.83L118.73 126.586C119.913 127.745 121.842 127.745 123.037 126.578L129.145 120.452C129.73 119.867 130.049 119.094 130.045 118.278C130.043 117.465 129.72 116.704 129.147 116.141L127.407 114.391H129.866C131.551 114.391 132.922 113.02 132.922 111.335V102.689C132.922 101.004 131.551 99.6325 129.866 99.6325ZM109.598 115.656C104.834 115.656 100.957 111.777 100.957 107.011C100.957 102.247 104.834 98.3721 109.598 98.3721C114.364 98.3721 118.241 102.247 118.241 107.011C118.241 111.777 114.364 115.656 109.598 115.656Z" fill="#D8E7DA"/>
<path d="M100.404 38.3047V62.6982L102.433 62.7997V37.8786C102.433 37.6147 102.311 37.3509 102.129 37.1682L94.9446 29.9841C94.5386 29.5782 93.9096 29.5782 93.5036 29.9841C93.0978 30.3697 93.0978 31.0191 93.5036 31.4047L100.404 38.3047Z" fill="#D8E7DA"/>
<path d="M92.4474 57.4825C92.4474 56.9346 91.9804 56.4678 91.4327 56.4678C90.8644 56.4678 90.418 56.9346 90.418 57.4825V62.2922L92.4474 62.3734V57.4825Z" fill="#D8E7DA"/>
</svg>
