<svg width="180" height="181" viewBox="0 0 180 181" fill="none" xmlns="http://www.w3.org/2000/svg">
<g clip-path="url(#clip0_249_18229)">
<path d="M163.125 124.339H16.875C15.3832 124.339 13.9524 124.931 12.8975 125.986C11.8426 127.041 11.25 128.472 11.25 129.964V152.464C11.25 153.956 11.8426 155.386 12.8975 156.441C13.9524 157.496 15.3832 158.089 16.875 158.089H163.125C167.601 158.089 171.893 156.311 175.057 153.146C178.222 149.982 180 145.689 180 141.214C180 136.738 178.222 132.446 175.057 129.281C171.893 126.117 167.601 124.339 163.125 124.339Z" fill="#BBDC9D"/>
<path d="M39.375 180.589C48.6948 180.589 56.25 173.034 56.25 163.714C56.25 154.394 48.6948 146.839 39.375 146.839C30.0552 146.839 22.5 154.394 22.5 163.714C22.5 173.034 30.0552 180.589 39.375 180.589Z" fill="#BBDC9D"/>
<path d="M151.875 180.589C161.195 180.589 168.75 173.034 168.75 163.714C168.75 154.394 161.195 146.839 151.875 146.839C142.555 146.839 135 154.394 135 163.714C135 173.034 142.555 180.589 151.875 180.589Z" fill="#BBDC9D"/>
<path d="M16.8756 135.588C15.3837 135.588 13.953 134.996 12.8981 133.941C11.8432 132.886 11.2506 131.455 11.2506 129.963V20.9409L3.10953 16.87C1.77507 16.2027 0.76036 15.0327 0.288612 13.6172C-0.183136 12.2018 -0.0732751 10.6569 0.594026 9.32242C1.26133 7.98796 2.43141 6.97325 3.84686 6.5015C5.26232 6.02975 6.8072 6.13962 8.14165 6.80692L19.3917 12.4319C20.326 12.8992 21.1117 13.6174 21.6608 14.5061C22.2099 15.3948 22.5007 16.4188 22.5006 17.4635V129.963C22.5006 131.455 21.908 132.886 20.8531 133.941C19.7982 134.996 18.3674 135.588 16.8756 135.588Z" fill="#BBDC9D"/>
<path d="M76.3281 9.72949H84.922V23.9484C84.922 25.3544 85.3389 26.7289 86.1201 27.898C86.9013 29.0671 88.0116 29.9782 89.3106 30.5163C90.6096 31.0543 92.0391 31.1951 93.4181 30.9207C94.7971 30.6463 96.0638 29.9692 97.0579 28.9749L99.1392 26.8936L101.22 28.9749C102.215 29.9692 103.481 30.6463 104.86 30.9207C106.239 31.1951 107.669 31.0543 108.968 30.5163C110.267 29.9782 111.377 29.0671 112.158 27.898C112.939 26.7289 113.356 25.3544 113.356 23.9484V9.72949H121.95C123.442 9.72949 124.873 10.3221 125.928 11.377C126.983 12.4319 127.575 13.8626 127.575 15.3545V60.9794C127.575 62.4713 126.983 63.902 125.928 64.9569C124.873 66.0118 123.442 66.6044 121.95 66.6044H76.3281C74.8363 66.6044 73.4055 66.0118 72.3507 64.9569C71.2958 63.902 70.7031 62.4713 70.7031 60.9794V15.3545C70.7031 13.8626 71.2958 12.4319 72.3507 11.377C73.4055 10.3221 74.8363 9.72949 76.3281 9.72949Z" fill="#BBDC9D"/>
<path d="M40.7812 80.8232H49.3751V95.0421C49.3751 96.4482 49.792 97.8226 50.5732 98.9917C51.3544 100.161 52.4647 101.072 53.7637 101.61C55.0628 102.148 56.4922 102.289 57.8712 102.014C59.2502 101.74 60.5169 101.063 61.5111 100.069L63.5923 97.9874L65.6736 100.069C66.6677 101.063 67.9344 101.74 69.3134 102.014C70.6925 102.289 72.1219 102.148 73.4209 101.61C74.7199 101.072 75.8302 100.161 76.6114 98.9917C77.3926 97.8226 77.8095 96.4482 77.8095 95.0421V80.8232H86.4034C87.8952 80.8232 89.326 81.4159 90.3809 82.4708C91.4357 83.5257 92.0284 84.9564 92.0284 86.4482V132.073C92.0284 133.565 91.4357 134.996 90.3809 136.051C89.326 137.106 87.8952 137.698 86.4034 137.698H40.7812C39.2894 137.698 37.8587 137.106 36.8038 136.051C35.7489 134.996 35.1562 133.565 35.1562 132.073V86.4482C35.1562 84.9564 35.7489 83.5257 36.8038 82.4708C37.8587 81.4159 39.2894 80.8232 40.7812 80.8232Z" fill="#BBDC9D"/>
<path d="M157.5 137.698H111.875C110.383 137.698 108.952 137.106 107.898 136.051C106.843 134.996 106.25 133.565 106.25 132.073V86.4482C106.25 84.9564 106.843 83.5257 107.898 82.4708C108.952 81.4159 110.383 80.8232 111.875 80.8232H120.469V95.0421C120.469 96.4482 120.886 97.8226 121.667 98.9917C122.448 100.161 123.558 101.072 124.857 101.61C126.157 102.148 127.586 102.289 128.965 102.014C130.344 101.74 131.611 101.063 132.605 100.069L134.686 97.9874L136.767 100.069C137.761 101.063 139.028 101.74 140.407 102.014C141.786 102.289 143.216 102.148 144.515 101.61C145.814 101.072 146.924 100.161 147.705 98.9917C148.486 97.8226 148.903 96.4482 148.903 95.0421V80.8232H157.5C158.992 80.8232 160.423 81.4159 161.477 82.4708C162.532 83.5257 163.125 84.9564 163.125 86.4482V132.073C163.125 133.565 162.532 134.996 161.477 136.051C160.423 137.106 158.992 137.698 157.5 137.698Z" fill="#BBDC9D"/>
</g>
<defs>
<clipPath id="clip0_249_18229">
<rect width="180" height="180" fill="white" transform="translate(0 0.588867)"/>
</clipPath>
</defs>
</svg>
