<svg width="134" height="134" viewBox="0 0 134 134" fill="none" xmlns="http://www.w3.org/2000/svg">
<g clip-path="url(#clip0_249_18426)">
<path d="M121.438 92.126H12.5625C11.4519 92.126 10.3868 92.5672 9.60149 93.3525C8.81618 94.1378 8.375 95.2029 8.375 96.3135V113.063C8.375 114.174 8.81618 115.239 9.60149 116.024C10.3868 116.81 11.4519 117.251 12.5625 117.251H121.438C124.769 117.251 127.965 115.927 130.321 113.572C132.676 111.216 134 108.02 134 104.688C134 101.357 132.676 98.1614 130.321 95.8054C127.965 93.4495 124.769 92.126 121.438 92.126Z" fill="#D1E8BE"/>
<path d="M29.3125 134.001C36.2506 134.001 41.875 128.377 41.875 121.438C41.875 114.5 36.2506 108.876 29.3125 108.876C22.3744 108.876 16.75 114.5 16.75 121.438C16.75 128.377 22.3744 134.001 29.3125 134.001Z" fill="#D1E8BE"/>
<path d="M113.062 134.001C120.001 134.001 125.625 128.377 125.625 121.438C125.625 114.5 120.001 108.876 113.062 108.876C106.124 108.876 100.5 114.5 100.5 121.438C100.5 128.377 106.124 134.001 113.062 134.001Z" fill="#D1E8BE"/>
<path d="M12.5629 100.5C11.4523 100.5 10.3872 100.059 9.60193 99.2739C8.81662 98.4886 8.37544 97.4235 8.37544 96.3129V15.1517L2.31487 12.1212C1.32144 11.6244 0.566046 10.7533 0.214855 9.6996C-0.136335 8.64587 -0.0545492 7.4958 0.44222 6.50237C0.938988 5.50894 1.81005 4.75355 2.86378 4.40236C3.9175 4.05117 5.06758 4.13295 6.06101 4.62972L14.436 8.81722C15.1316 9.16508 15.7165 9.69975 16.1253 10.3613C16.5341 11.0229 16.7505 11.7853 16.7504 12.5629V96.3129C16.7504 97.4235 16.3093 98.4886 15.5239 99.2739C14.7386 100.059 13.6735 100.5 12.5629 100.5Z" fill="#D1E8BE"/>
<path d="M56.8203 6.80566H63.218V17.3908C63.218 18.4376 63.5283 19.4608 64.1099 20.3311C64.6914 21.2014 65.518 21.8797 66.485 22.2803C67.4521 22.6808 68.5162 22.7856 69.5428 22.5813C70.5694 22.3771 71.5124 21.873 72.2525 21.1328L73.8019 19.5834L75.3513 21.1328C76.0914 21.873 77.0343 22.3771 78.0609 22.5813C79.0875 22.7856 80.1517 22.6808 81.1187 22.2803C82.0858 21.8797 82.9123 21.2014 83.4939 20.3311C84.0754 19.4608 84.3858 18.4376 84.3858 17.3908V6.80566H90.7835C91.894 6.80566 92.9591 7.24685 93.7445 8.03215C94.5298 8.81746 94.971 9.88257 94.971 10.9932V44.9584C94.971 46.069 94.5298 47.1341 93.7445 47.9194C92.9591 48.7047 91.894 49.1459 90.7835 49.1459H56.8203C55.7097 49.1459 54.6446 48.7047 53.8593 47.9194C53.074 47.1341 52.6328 46.069 52.6328 44.9584V10.9932C52.6328 9.88257 53.074 8.81746 53.8593 8.03215C54.6446 7.24685 55.7097 6.80566 56.8203 6.80566Z" fill="#D1E8BE"/>
<path d="M30.3594 59.7305H36.757V70.3156C36.757 71.3624 37.0674 72.3856 37.6489 73.2559C38.2305 74.1262 39.057 74.8045 40.0241 75.2051C40.9912 75.6056 42.0553 75.7104 43.0819 75.5061C44.1085 75.3019 45.0515 74.7978 45.7916 74.0576L47.3409 72.5082L48.8903 74.0576C49.6304 74.7978 50.5734 75.3019 51.6 75.5061C52.6266 75.7104 53.6907 75.6056 54.6578 75.2051C55.6248 74.8045 56.4514 74.1262 57.0329 73.2559C57.6145 72.3856 57.9249 71.3624 57.9249 70.3156V59.7305H64.3225C65.4331 59.7305 66.4982 60.1717 67.2835 60.957C68.0688 61.7423 68.51 62.8074 68.51 63.918V97.8832C68.51 98.9938 68.0688 100.059 67.2835 100.844C66.4982 101.63 65.4331 102.071 64.3225 102.071H30.3594C29.2488 102.071 28.1837 101.63 27.3984 100.844C26.6131 100.059 26.1719 98.9938 26.1719 97.8832V63.918C26.1719 62.8074 26.6131 61.7423 27.3984 60.957C28.1837 60.1717 29.2488 59.7305 30.3594 59.7305Z" fill="#D1E8BE"/>
<path d="M117.25 102.071H83.2852C82.1746 102.071 81.1095 101.63 80.3241 100.844C79.5388 100.059 79.0977 98.9938 79.0977 97.8832V63.918C79.0977 62.8074 79.5388 61.7423 80.3241 60.957C81.1095 60.1717 82.1746 59.7305 83.2852 59.7305H89.6828V70.3156C89.6828 71.3624 89.9932 72.3856 90.5747 73.2559C91.1563 74.1262 91.9828 74.8045 92.9499 75.2051C93.9169 75.6056 94.9811 75.7104 96.0077 75.5061C97.0343 75.3019 97.9772 74.7978 98.7173 74.0576L100.267 72.5082L101.816 74.0576C102.556 74.7978 103.499 75.3019 104.526 75.5061C105.552 75.7104 106.617 75.6056 107.584 75.2051C108.551 74.8045 109.377 74.1262 109.959 73.2559C110.54 72.3856 110.851 71.3624 110.851 70.3156V59.7305H117.25C118.361 59.7305 119.426 60.1717 120.211 60.957C120.997 61.7423 121.438 62.8074 121.438 63.918V97.8832C121.438 98.9938 120.997 100.059 120.211 100.844C119.426 101.63 118.361 102.071 117.25 102.071Z" fill="#D1E8BE"/>
</g>
<defs>
<clipPath id="clip0_249_18426">
<rect width="134" height="134" fill="white"/>
</clipPath>
</defs>
</svg>
