<svg width="36" height="37" viewBox="0 0 36 37" fill="none" xmlns="http://www.w3.org/2000/svg">
<g clip-path="url(#clip0_249_13458)">
<path d="M21.5555 18.3031C21.5555 19.0067 21.3469 19.6944 20.956 20.2793C20.5652 20.8643 20.0096 21.3202 19.3597 21.5894C18.7097 21.8587 17.9945 21.9291 17.3045 21.7918C16.6145 21.6546 15.9807 21.3158 15.4832 20.8184C14.9858 20.3209 14.647 19.6871 14.5098 18.9971C14.3725 18.3071 14.4429 17.5919 14.7122 16.9419C14.9814 16.292 15.4373 15.7364 16.0223 15.3456C16.6072 14.9547 17.2949 14.7461 17.9985 14.7461C18.4658 14.7453 18.9287 14.8367 19.3606 15.0152C19.7926 15.1937 20.185 15.4557 20.5155 15.7861C20.8459 16.1166 21.1079 16.509 21.2864 16.941C21.4649 17.3729 21.5563 17.8358 21.5555 18.3031Z" fill="#DEF4AB"/>
<path d="M22.5454 9.31836H13.4513C12.2743 9.3189 11.1456 9.78672 10.3133 10.619C9.48105 11.4513 9.01324 12.58 9.0127 13.757V22.8552C9.0127 23.438 9.12752 24.0151 9.35061 24.5535C9.57369 25.0919 9.90067 25.581 10.3129 25.993C10.7251 26.405 11.2144 26.7318 11.7529 26.9546C12.2914 27.1775 12.8685 27.292 13.4513 27.2918H22.5495C23.1321 27.2915 23.709 27.1765 24.2472 26.9533C24.7853 26.7301 25.2743 26.403 25.6861 25.9909C26.0978 25.5787 26.4244 25.0895 26.6471 24.5511C26.8698 24.0127 26.9843 23.4358 26.9841 22.8531V13.757C26.9835 12.58 26.5157 11.4513 25.6834 10.619C24.8511 9.78672 23.7225 9.3189 22.5454 9.31836ZM17.9984 24.1234C16.8486 24.1226 15.7248 23.7809 14.7692 23.1416C13.8135 22.5023 13.0688 21.5941 12.6291 20.5316C12.1895 19.4692 12.0747 18.3003 12.2992 17.1726C12.5237 16.045 13.0775 15.0092 13.8905 14.1961C14.7035 13.3831 15.7393 12.8294 16.867 12.6048C17.9946 12.3803 19.1635 12.4951 20.226 12.9348C21.2884 13.3744 22.1967 14.1191 22.8359 15.0748C23.4752 16.0305 23.8169 17.1542 23.8177 18.304C23.8177 19.0682 23.6672 19.825 23.3747 20.531C23.0823 21.237 22.6536 21.8785 22.1133 22.4189C21.5729 22.9593 20.9314 23.3879 20.2253 23.6804C19.5193 23.9728 18.7626 24.1234 17.9984 24.1234ZM23.8504 13.9227C23.5672 13.9227 23.2904 13.8387 23.0549 13.6814C22.8195 13.524 22.636 13.3004 22.5276 13.0388C22.4192 12.7772 22.3909 12.4893 22.4461 12.2115C22.5014 11.9338 22.6377 11.6787 22.838 11.4784C23.0382 11.2782 23.2933 11.1418 23.5711 11.0866C23.8488 11.0313 24.1367 11.0597 24.3984 11.168C24.66 11.2764 24.8836 11.4599 25.0409 11.6954C25.1983 11.9308 25.2822 12.2077 25.2822 12.4909C25.2822 12.8706 25.1314 13.2348 24.8629 13.5033C24.5944 13.7718 24.2302 13.9227 23.8504 13.9227Z" fill="#DEF4AB"/>
<path d="M35.1068 8.6467C34.2988 5.40465 30.8849 1.99079 27.6429 1.18283C24.4616 0.595073 21.2337 0.296581 17.9986 0.291016C14.7635 0.296783 11.5355 0.595272 8.35425 1.18283C5.1122 1.99079 1.70039 5.40465 0.892431 8.6467C-0.300081 15.0209 -0.300081 21.5611 0.892431 27.9353C1.70039 31.1774 5.1122 34.5933 8.35425 35.3992C11.5355 35.9868 14.7635 36.2852 17.9986 36.291C18.9122 36.291 19.8258 36.2672 20.7395 36.2194C23.0556 36.0926 25.3613 35.8194 27.6429 35.4012C30.8931 34.5953 34.2988 31.1876 35.1068 27.9374C35.7142 24.6534 36.0128 21.3198 35.9986 17.9801C35.9755 14.8488 35.6771 11.7257 35.1068 8.6467ZM29.2486 22.8503C29.2464 24.6274 28.5395 26.3311 27.2829 27.5876C26.0264 28.8442 24.3227 29.5511 22.5456 29.5533H13.4515C11.6745 29.5511 9.97079 28.8442 8.71421 27.5876C7.45763 26.3311 6.75073 24.6274 6.74857 22.8503V13.7562C6.75073 11.9792 7.45763 10.2755 8.71421 9.01893C9.97079 7.76235 11.6745 7.05545 13.4515 7.05329H22.5456C24.3227 7.05545 26.0264 7.76235 27.2829 9.01893C28.5395 10.2755 29.2464 11.9792 29.2486 13.7562V22.8503Z" fill="#DEF4AB"/>
<path d="M17.9902 2.30273C9.15398 2.30273 1.99023 9.46648 1.99023 18.3027C1.99023 27.139 9.15398 34.3027 17.9902 34.3027C26.8265 34.3027 33.9902 27.139 33.9902 18.3027C33.9902 9.46648 26.8265 2.30273 17.9902 2.30273Z" fill="#DEF4AB"/>
<path d="M19.7428 16.8447L26.5922 8.88281H24.9691L19.0218 15.796L14.2717 8.88281H8.79297L15.9761 19.3368L8.79297 27.686H10.4162L16.6967 20.3855L21.7132 27.686H27.1918L19.7424 16.8447H19.7428ZM11.001 10.1047H13.4941L24.9698 26.5197H22.4767L11.001 10.1047Z" fill="#00312D"/>
<g clip-path="url(#clip1_249_13458)">
<path d="M25.6776 4.29102H10.3224C6.83064 4.29102 4 7.13477 4 10.6427V25.9393C4 29.4473 6.83064 32.291 10.3224 32.291H25.6776C29.1694 32.291 32 29.4473 32 25.9393V10.6427C32 7.13477 29.1694 4.29102 25.6776 4.29102Z" fill="#DEF4AB"/>
<path d="M21.7042 12.4414H23.6795L19.3641 17.3971L24.4408 24.1399H20.4655L17.3522 20.0507L13.7893 24.1399H11.8129L16.4285 18.8398L11.5586 12.4414H15.6345L18.4487 16.1796L21.7042 12.4414ZM21.0108 22.9521H22.1056L15.04 13.5671H13.8653L21.0108 22.9521Z" fill="#00312D"/>
</g>
</g>
<defs>
<clipPath id="clip0_249_13458">
<rect width="36" height="36" fill="white" transform="translate(0 0.291016)"/>
</clipPath>
<clipPath id="clip1_249_13458">
<rect width="28" height="28" fill="white" transform="translate(4 4.29102)"/>
</clipPath>
</defs>
</svg>
