<svg width="66" height="67" viewBox="0 0 66 67" fill="none" xmlns="http://www.w3.org/2000/svg">
<path d="M33.1271 0.956543C15.1846 0.956543 0.563477 15.5776 0.563477 33.5202C0.563477 51.4628 15.1846 66.0838 33.1271 66.0838C51.0697 66.0838 65.6908 51.4628 65.6908 33.5202C65.6908 15.5776 51.0697 0.956543 33.1271 0.956543ZM46.1526 35.9625H35.5694V46.5456C35.5694 47.8807 34.4622 48.9879 33.1271 48.9879C31.792 48.9879 30.6848 47.8807 30.6848 46.5456V35.9625H20.1017C18.7666 35.9625 17.6594 34.8553 17.6594 33.5202C17.6594 32.1851 18.7666 31.0779 20.1017 31.0779H30.6848V20.4947C30.6848 19.1596 31.792 18.0525 33.1271 18.0525C34.4622 18.0525 35.5694 19.1596 35.5694 20.4947V31.0779H46.1526C47.4877 31.0779 48.5948 32.1851 48.5948 33.5202C48.5948 34.8553 47.4877 35.9625 46.1526 35.9625Z" fill="#00312D"/>
</svg>
