<svg width="220" height="220" viewBox="0 0 220 220" fill="none" xmlns="http://www.w3.org/2000/svg">
<g clip-path="url(#clip0_249_20234)">
<path d="M48.5826 171.416C52.7081 175.542 55.0258 181.137 55.0258 186.972C55.0258 192.806 52.7081 198.402 48.5826 202.527C36.8624 210.563 23.78 216.402 9.97264 219.761C8.63248 220.07 7.23568 220.035 5.91295 219.658C4.59022 219.281 3.38479 218.574 2.40945 217.604C1.43411 216.634 0.720748 215.433 0.33611 214.112C-0.0485289 212.792 -0.0918703 211.395 0.210141 210.053C3.55762 196.238 9.38759 183.146 17.416 171.416C19.4599 169.365 21.8885 167.737 24.5626 166.627C27.2368 165.517 30.1038 164.945 32.9993 164.945C35.8948 164.945 38.7618 165.517 41.436 166.627C44.1101 167.737 46.5388 169.365 48.5826 171.416ZM57.3551 74.6067C57.5018 74.3958 57.6576 74.185 57.3551 74.6067V74.6067ZM164.999 77.9158C164.999 71.8379 162.585 66.009 158.287 61.7113C153.989 57.4136 148.161 54.9991 142.083 54.9991C136.005 54.9991 130.176 57.4136 125.878 61.7113C121.58 66.009 119.166 71.8379 119.166 77.9158C119.166 83.9937 121.58 89.8226 125.878 94.1203C130.176 98.4181 136.005 100.832 142.083 100.832C148.161 100.832 153.989 98.4181 158.287 94.1203C162.585 89.8226 164.999 83.9937 164.999 77.9158ZM146.886 161.598L146.959 161.543C145.055 168.215 142.529 174.694 139.415 180.894C132.084 196.874 119.685 209.988 104.142 218.202C100.754 219.615 97.0689 220.168 93.4156 219.81C89.7623 219.453 86.2541 218.198 83.2037 216.156C80.1534 214.114 77.6558 211.349 75.9334 208.107C74.2111 204.866 73.3176 201.248 73.3326 197.577V174.166C73.2965 166.884 70.3876 159.91 65.2381 154.76C60.0887 149.611 53.115 146.702 45.8326 146.666H21.926C18.336 146.681 14.798 145.808 11.6277 144.123C8.45733 142.439 5.75314 139.996 3.75631 137.013C1.75949 134.029 0.532113 130.598 0.183663 127.025C-0.164787 123.452 0.376522 119.848 1.75931 116.535C9.79119 101.334 22.6156 89.2087 38.2426 82.0408C44.3655 78.9671 50.7647 76.478 57.3551 74.6067C57.071 75.01 57.2085 74.8083 57.3551 74.6067C92.4726 25.6658 132.632 1.56665 187.531 -0.000853994C191.772 -0.035895 195.979 0.767234 199.908 2.36241C203.838 3.95759 207.415 6.3134 210.431 9.29454C213.448 12.2757 215.847 15.8234 217.489 19.7341C219.131 23.6447 219.984 27.8412 219.999 32.0825C218.432 87.3667 195.937 126.435 146.968 161.543L146.886 161.598ZM192.499 31.6975C192.417 30.5442 191.897 29.4662 191.044 28.6853C190.191 27.9043 189.072 27.4798 187.916 27.4991C141.753 28.8191 111.833 45.8325 81.4726 88.1275C74.0634 98.737 67.466 109.891 61.7368 121.494C70.2785 124.085 78.064 128.71 84.4249 134.972C90.7858 141.234 95.5323 148.946 98.2568 157.446L118.084 147.582C122.723 144.832 127.416 141.771 131.88 138.572C174.166 108.166 191.179 78.2458 192.499 31.6975ZM146.959 161.543L147.051 161.479L146.968 161.543H146.959Z" fill="#A4D07C"/>
</g>
<defs>
<clipPath id="clip0_249_20234">
<rect width="220" height="220" fill="white"/>
</clipPath>
</defs>
</svg>
