<svg width="36" height="36" viewBox="0 0 36 36" fill="none" xmlns="http://www.w3.org/2000/svg">
<path d="M35.1087 8.35568C34.3007 5.11364 30.8869 1.69977 27.6448 0.891818C24.4636 0.304057 21.2356 0.00556558 18.0005 0C14.7654 0.0057671 11.5375 0.304257 8.3562 0.891818C5.11416 1.69977 1.70234 5.11364 0.894384 8.35568C-0.298128 14.7299 -0.298128 21.2701 0.894384 27.6443C1.70234 30.8864 5.11416 34.3023 8.3562 35.1082C11.5375 35.6957 14.7654 35.9942 18.0005 36C18.9142 36 19.8278 35.9761 20.7414 35.9284C23.0575 35.8016 25.3633 35.5283 27.6448 35.1102C30.8951 34.3043 34.3007 30.8966 35.1087 27.6464C35.7161 24.3624 36.0147 21.0287 36.0005 17.6891C35.9774 14.5578 35.679 11.4347 35.1087 8.35568Z" fill="#DEF4AB"/>
<path d="M23.834 8.66602H12.1673C8.66732 8.66602 6.33398 10.9993 6.33398 14.4993V21.4993C6.33398 24.9993 8.66732 27.3327 12.1673 27.3327H23.834C27.334 27.3327 29.6673 24.9993 29.6673 21.4993V14.4993C29.6673 10.9993 27.334 8.66602 23.834 8.66602ZM20.2057 19.201L17.324 20.9277C16.1573 21.6277 15.2006 21.091 15.2006 19.726V16.261C15.2006 14.896 16.1573 14.3594 17.324 15.0594L20.2057 16.786C21.314 17.4627 21.314 18.536 20.2057 19.201Z" fill="#00312D"/>
</svg>
