<svg width="147" height="146" viewBox="0 0 147 146" fill="none" xmlns="http://www.w3.org/2000/svg">
<g clip-path="url(#clip0_635_1008)">
<path d="M112.923 78.0319C111.092 74.9294 107.685 73.001 104.017 73.001C100.349 73.001 96.942 74.9294 95.1596 77.9589L63.0943 130.057C62.0115 131.669 61.4336 133.591 61.4336 135.629C61.4336 141.347 66.1056 146.001 71.8483 146.001H136.186C141.928 146.001 146.6 141.347 146.6 135.629C146.6 133.591 146.022 131.663 145.043 130.221L112.923 78.0319ZM107.241 132.496C106.815 132.922 106.329 133.226 105.781 133.469C105.167 133.713 104.625 133.834 104.017 133.834C103.403 133.834 102.8 133.713 102.253 133.469C101.705 133.226 101.219 132.922 100.793 132.496C99.9411 131.644 99.4544 130.488 99.4544 129.272C99.4544 128.055 99.9411 126.899 100.793 126.048C101.219 125.622 101.705 125.318 102.253 125.074C103.403 124.588 104.625 124.588 105.781 125.074C106.329 125.318 106.815 125.622 107.241 126.048C108.093 126.899 108.579 128.055 108.579 129.272C108.579 130.488 108.093 131.644 107.241 132.496ZM108.579 117.105C108.579 119.624 106.535 121.668 104.017 121.668C101.498 121.668 99.4544 119.624 99.4544 117.105V95.8135C99.4544 93.295 101.498 91.251 104.017 91.251C106.535 91.251 108.579 93.295 108.579 95.8135V117.105Z" fill="#BADC9D"/>
<path d="M81.2057 0.000976562H17.3307C8.08406 0.000976562 0.601562 7.48348 0.601562 16.7301V111.022C0.601562 120.268 8.08406 127.751 17.3307 127.751H54.0132C54.3782 126.778 54.9257 125.865 55.5341 124.953L76.2782 91.251L76.3999 91.0076L79.6849 85.7151L81.8749 82.1868L87.4107 73.1835C89.7224 69.2293 93.5549 66.3093 97.9349 64.9101V16.7301C97.9349 7.48348 90.4524 0.000976562 81.2057 0.000976562ZM18.8516 60.6518C18.8516 45.4435 30.0449 32.7901 44.7057 30.6001V58.766L24.8132 78.6585C21.0416 73.6702 18.8516 67.4043 18.8516 60.6518ZM49.2682 91.0685C42.5157 91.0685 36.2499 88.8785 31.2616 85.1068L52.4924 63.876C53.3441 63.0243 53.8307 61.8685 53.8307 60.6518V30.6001C68.4916 32.7901 79.6849 45.4435 79.6849 60.6518C79.6849 77.4418 66.0582 91.0685 49.2682 91.0685Z" fill="#BADC9D"/>
</g>
<defs>
<clipPath id="clip0_635_1008">
<rect width="146" height="146" fill="white" transform="translate(0.601562 0.000976562)"/>
</clipPath>
</defs>
</svg>
