<svg width="46" height="46" viewBox="0 0 196 196" fill="none" xmlns="http://www.w3.org/2000/svg">
<rect width="196" height="196" rx="98" fill="#00312D"/>
<path fill-rule="evenodd" clip-rule="evenodd" d="M139.646 62.139L61.1562 140.629L54.4284 133.901L132.918 55.4112L139.646 62.139Z" fill="#EFF5F0"/>
<path fill-rule="evenodd" clip-rule="evenodd" d="M129.55 58.7562C113.728 74.5782 114.713 101.421 129.55 116.257L132.914 119.621L139.642 112.893L136.278 109.529C125.013 98.2644 124.314 77.4478 136.278 65.484L139.641 62.1214L132.913 55.3936L129.55 58.7562Z" fill="#EFF5F0"/>
<path fill-rule="evenodd" clip-rule="evenodd" d="M136.282 65.4915C120.46 81.3136 93.6177 80.3286 78.7806 65.4916L75.4167 62.1277L82.1445 55.3998L85.5084 58.7637C96.7735 70.0288 117.59 70.7276 129.554 58.7637L132.917 55.4012L139.644 62.129L136.282 65.4915Z" fill="#EFF5F0"/>
</svg>
